<svg width="20" height="16" viewBox="0 0 20 16" fill="none" xmlns="http://www.w3.org/2000/svg">
<path d="M15.3101 5.02664L15.8001 4.25883C15.8545 4.31801 15.9127 4.37373 15.9745 4.42559L16.0166 4.46012C16.0707 4.50043 16.1279 4.54061 16.188 4.57797L16.2271 4.59813C16.2961 4.63831 16.3686 4.67297 16.4436 4.70172L16.4977 4.72188V4.72175C16.5644 4.74524 16.6327 4.7645 16.7021 4.77926H16.7322L16.6299 5.00649L15.3101 5.02664ZM16.3323 1.59036C16.4775 1.66661 16.6595 1.62707 16.7562 1.49831C16.9563 1.20908 17.2956 1.03604 17.6582 1.03821C17.9444 1.03975 18.2185 1.14938 18.4207 1.34323C18.6229 1.5372 18.7367 1.79961 18.7375 2.07344C18.7382 2.22248 18.7044 2.36986 18.6384 2.50478C18.5637 2.65883 18.6337 2.84151 18.7946 2.91315C19.1033 3.04923 19.3272 3.31613 19.3993 3.63386C19.4712 3.9516 19.383 4.28319 19.161 4.52941C18.939 4.77564 18.609 4.90775 18.2698 4.88615C17.9306 4.86472 17.6218 4.69205 17.4357 4.41988C17.4235 4.40332 17.4125 4.38599 17.4026 4.36814C17.385 4.34426 17.3649 4.32206 17.3425 4.30203C17.2968 4.2639 17.2403 4.2399 17.1802 4.23296H17.084C16.8981 4.23065 16.7163 4.18058 16.5577 4.08802C16.399 3.99534 16.2692 3.86375 16.182 3.70673C16.1257 3.60763 16.0173 3.54575 15.8993 3.54575H15.7369H15.737C15.3671 3.50852 15.0433 3.29221 14.8791 2.97306C14.7149 2.65392 14.7337 2.2765 14.9286 1.97353C15.1235 1.67069 15.4674 1.48467 15.8392 1.48109C16.0104 1.47788 16.18 1.51537 16.3323 1.59034L16.3323 1.59036ZM10.8604 14.062H13.0462C14.9062 13.4648 16.531 12.3379 17.7024 10.8324C18.874 9.32695 19.5361 7.51478 19.6004 5.63922H12.6853C12.8313 5.88224 12.9235 6.15145 12.9559 6.43C13.0242 7.02593 12.8242 7.62159 12.4061 8.06822C11.9879 8.51484 11.3909 8.7703 10.7641 8.77082C10.0942 8.7739 9.4601 8.48236 9.04426 7.98004C8.53531 8.15502 7.9764 8.14269 7.47628 7.94551C6.97616 7.74832 6.57057 7.38041 6.33836 6.91311C6.24574 6.74186 6.1789 6.55894 6.13998 6.3697C6.12709 6.3145 6.09125 6.26662 6.04079 6.23735C5.98455 6.20551 5.91717 6.19717 5.85436 6.21437C5.58779 6.2869 5.30943 6.31129 5.03358 6.28626C4.9266 6.27856 4.81976 6.30179 4.72702 6.35315C4.63414 6.4045 4.55978 6.48139 4.51333 6.57382C4.31603 6.97835 3.98975 7.31251 3.58144 7.52856C3.17299 7.74449 2.70349 7.83114 2.24044 7.77581C1.80904 7.71855 1.40479 7.5414 1.07768 7.26628C0.750712 6.9913 0.515155 6.63056 0.400391 6.22876C0.578369 7.98236 1.27899 9.65025 2.41908 11.0342C3.55903 12.4182 5.09049 13.4601 6.83134 14.036C6.94208 14.0732 7.02341 14.1642 7.04475 14.2746C7.06113 14.3841 7.01523 14.4936 6.92449 14.5622C6.39915 14.9533 5.96239 15.4425 5.64067 16H14.2065C13.9128 15.4865 13.5213 15.03 13.0519 14.6542H10.8602C10.7698 14.6626 10.68 14.6341 10.6128 14.5758C10.5457 14.5175 10.5074 14.4347 10.5074 14.3479C10.5074 14.2612 10.5457 14.1785 10.6128 14.1202C10.68 14.0618 10.7698 14.0334 10.8602 14.0418L10.8604 14.062ZM14.9163 11.9512H14.9162C16.1027 11.1387 17.0527 10.05 17.6763 8.78804C17.7127 8.71166 17.7801 8.65273 17.863 8.62501C17.9458 8.59728 18.037 8.60318 18.1152 8.64144C18.2755 8.71513 18.3438 8.89845 18.2685 9.05264C17.5928 10.4089 16.5675 11.5787 15.289 12.4518C15.2199 12.4997 15.1335 12.519 15.0493 12.5056C14.965 12.492 14.8901 12.4468 14.841 12.3799C14.7384 12.2416 14.772 12.05 14.9162 11.9514L14.9163 11.9512ZM13.8429 12.5781L14.0564 12.4688C14.1317 12.4168 14.2267 12.3985 14.3171 12.4184C14.4076 12.4384 14.4847 12.4948 14.5285 12.5731C14.5723 12.6514 14.5786 12.7441 14.5457 12.8271C14.5128 12.9102 14.444 12.9755 14.357 13.0066L14.1255 13.1244C14.0809 13.1464 14.0313 13.1572 13.9812 13.1561C13.8344 13.1561 13.7066 13.0602 13.6717 12.9238C13.6366 12.7875 13.7036 12.6459 13.8338 12.581L13.8429 12.5781ZM10.2048 14.591C10.145 14.6481 10.0639 14.6802 9.97934 14.6802C9.89384 14.6804 9.8117 14.6484 9.75076 14.591C9.69264 14.5329 9.65935 14.4558 9.65761 14.3753C9.65547 14.2506 9.73251 14.1368 9.8525 14.0876C9.9725 14.0385 10.1117 14.0635 10.2048 14.1511C10.3298 14.2711 10.3298 14.4652 10.2048 14.5852L10.2048 14.591ZM12.3094 6.50181C12.254 6.01552 11.9533 5.58585 11.5045 5.35143C11.0555 5.11702 10.5151 5.10739 10.0575 5.32563C9.90874 5.39739 9.72754 5.34874 9.63949 5.21356C9.52286 5.03113 9.36702 4.87427 9.1826 4.75346C9.1073 4.70403 9.05724 4.62662 9.04475 4.54022C9.03214 4.45383 9.05818 4.36627 9.11643 4.29914C9.34715 4.0402 9.47777 3.71323 9.48622 3.37315C9.48112 2.90228 9.24784 2.46042 8.85484 2.17683C8.55633 1.92406 8.15983 1.80389 7.76347 1.84615C7.67341 1.85514 7.58348 1.82715 7.51637 1.76887C7.44926 1.71072 7.41114 1.62804 7.41168 1.54139V1.50685C7.39906 1.04688 7.16592 0.618105 6.77937 0.344281C6.39283 0.0704565 5.89592 -0.0179811 5.43219 0.104602C4.9686 0.227202 4.5898 0.547119 4.40512 0.972053C4.34673 1.11262 4.18929 1.19106 4.03533 1.15602C3.6854 1.07386 3.31616 1.11789 2.99804 1.27977C2.50572 1.51187 2.17366 1.97081 2.12009 2.49318C2.0864 2.93067 2.25445 3.3605 2.58008 3.66936C2.66759 3.75409 2.69685 3.87912 2.65524 3.99145C2.61323 4.10404 2.50626 4.18273 2.3817 4.19275C1.95755 4.23062 1.56777 4.43204 1.30229 4.75055C1.03077 5.0738 0.913056 5.49088 0.977613 5.9008C1.04043 6.32945 1.29438 6.71083 1.67369 6.94667C2.053 7.18262 2.52062 7.24976 2.95566 7.13076C3.39066 7.01176 3.75052 6.71841 3.94205 6.32648C4.04365 6.11812 4.20982 5.94495 4.41801 5.83016C4.62621 5.71537 4.86632 5.66481 5.10564 5.68509C5.30053 5.70332 5.49729 5.68676 5.68589 5.63631C5.92132 5.57122 6.17419 5.60357 6.38345 5.7254C6.5884 5.84325 6.73149 6.03864 6.77739 6.26316C6.80692 6.3959 6.8543 6.52453 6.9186 6.6456C7.09429 7.01082 7.41858 7.29158 7.81599 7.42241C8.21355 7.55336 8.64965 7.52306 9.02319 7.33858C9.06695 7.31727 9.1154 7.30636 9.16453 7.307C9.27633 7.30661 9.38008 7.3622 9.4382 7.4536C9.68678 7.84489 10.1092 8.10563 10.5844 8.1612C11.0596 8.21679 11.5351 8.06107 11.8751 7.7386C12.2149 7.41612 12.3816 6.96258 12.3274 6.50761L12.3094 6.50181ZM3.59039 4.50607C3.53294 4.56525 3.45228 4.59863 3.36785 4.59811C3.32423 4.59837 3.28115 4.58951 3.24155 4.57231C3.20303 4.55716 3.16826 4.5347 3.1394 4.50607C3.04652 4.41941 3.01793 4.28745 3.06719 4.17256C3.08343 4.13443 3.108 4.10016 3.1394 4.07192C3.16759 4.04252 3.20262 4.01992 3.24155 4.0058C3.36127 3.95959 3.49818 3.98552 3.59038 4.07192C3.71534 4.19195 3.71534 4.38605 3.59038 4.50608L3.59039 4.50607ZM3.5061 2.07336C3.32208 2.15822 3.18585 2.31573 3.13336 2.5047C3.11081 2.6178 3.11081 2.73386 3.13336 2.84695C3.17725 3.00793 3.28503 3.1462 3.43401 3.23222C3.57508 3.32786 3.61172 3.5131 3.5171 3.65163C3.42261 3.79002 3.2304 3.83213 3.08223 3.74701C2.79338 3.56973 2.58922 3.29076 2.51394 2.9706C2.47568 2.7806 2.47568 2.58533 2.51394 2.39547C2.60225 2.02023 2.86304 1.70316 3.22355 1.53279C3.38126 1.45332 3.57644 1.51135 3.65952 1.66219C3.74247 1.81303 3.68194 1.99971 3.52423 2.07917L3.5061 2.07336ZM14.0981 2.51049H14.0983C14.1 2.11664 14.2506 1.73677 14.5221 1.44072C13.7409 0.562889 12.6089 0.0406441 11.4043 0.00225867C10.1996 -0.0359985 9.03384 0.413193 8.19335 1.23943C8.59293 1.28809 8.96901 1.44701 9.27571 1.6967C9.82479 2.09761 10.1463 2.72102 10.1447 3.38175C10.1349 3.75417 10.0217 4.11735 9.81689 4.43416C9.89917 4.50618 9.97554 4.5841 10.0453 4.66716C10.4221 4.54161 10.8272 4.5158 11.2179 4.59232C11.5677 4.66049 11.8941 4.81068 12.168 5.02945H14.5733L15.2107 4.03159C14.8837 3.91541 14.602 3.70616 14.4031 3.43221C14.2042 3.15813 14.0979 2.83244 14.0983 2.49894L14.0981 2.51049ZM12.6341 1.1388C12.6056 1.21596 12.5459 1.27886 12.4684 1.31339C12.391 1.34805 12.3023 1.35139 12.2221 1.32289C10.6798 0.788093 9.67556 1.50121 9.66656 1.50981C9.59877 1.55936 9.51314 1.58118 9.42858 1.5704C9.34402 1.55962 9.26738 1.51713 9.21557 1.45229C9.16376 1.38746 9.14094 1.30556 9.15222 1.22468C9.16349 1.14381 9.20792 1.0705 9.2757 1.02095C9.32684 0.983595 10.5715 0.0949705 12.4416 0.73339C12.5241 0.761761 12.5911 0.820816 12.6274 0.897199C12.6636 0.973582 12.666 1.06075 12.6341 1.1388L12.6341 1.1388ZM13.5841 1.51546C13.5668 1.5532 13.5435 1.58812 13.5149 1.61906C13.4535 1.67554 13.3717 1.70751 13.2865 1.70815C13.2014 1.70635 13.1201 1.67464 13.0579 1.61906C13.0303 1.58812 13.008 1.5532 12.9918 1.51546C12.9751 1.47925 12.9658 1.4401 12.9648 1.40043C12.97 1.35922 12.9833 1.31917 13.0038 1.28259C13.0183 1.24497 13.0409 1.21069 13.07 1.18194C13.1995 1.06935 13.3974 1.06935 13.527 1.18194C13.5869 1.24022 13.6205 1.31879 13.6202 1.40043C13.6178 1.441 13.6054 1.48041 13.5841 1.51546H13.5841Z" fill="#191970"/>
</svg>
