<svg width="24" height="24" viewBox="0 0 24 24" fill="none" xmlns="http://www.w3.org/2000/svg">
<path d="M14.6957 10.9922C15.1037 10.3971 15.6488 9.9175 16.1528 10.0086C16.7838 10.1241 17.178 11.1147 17.3014 12.0004H20.2225C20.2294 11.927 20.2294 11.8534 20.2294 11.7799C20.2294 10.8768 20.0032 9.9806 19.5642 9.17909C19.0911 8.31805 18.8613 7.34132 18.9025 6.35418L18.9266 5.7591C18.9266 5.72753 18.9299 5.69612 18.9299 5.66815C18.9299 4.66709 18.2237 3.80585 17.2533 3.63083C16.2521 3.45237 15.275 4.05433 14.9664 5.0451L14.7881 5.61566C14.4967 6.55375 13.955 7.39387 13.2212 8.03804C13.115 8.13258 13.0121 8.23057 12.916 8.33214C13.8384 8.7172 14.4658 9.66577 14.6955 10.9925L14.6957 10.9922Z" fill="#191970"/>
<path d="M3.92487 11.2574C3.97629 11.5129 4.03798 11.7616 4.11007 11.9996H6.60603C6.61981 11.3204 6.72267 10.7149 6.90435 10.1934C5.90317 8.38725 5.54319 6.04884 5.54319 6.04884L5.48563 6.05525L5.54655 6.03228L5.42625 4.71274C5.40115 4.43707 5.14308 4.24767 4.8792 4.31112L4.18691 4.47739C3.96451 4.53083 3.81742 4.74696 3.84604 4.97838L4.04579 6.59796L4.08298 6.5839C3.91446 7.42466 3.57238 9.51667 3.92518 11.2573L3.92487 11.2574Z" fill="#191970"/>
<path d="M12.4639 8.91383C11.7934 8.7238 11.3619 9.06338 10.9844 9.2095C10.8202 8.43175 10.5078 7.82538 10.0333 7.36408C9.89679 7.23094 9.68006 7.23609 9.54842 7.37627C9.41786 7.51629 9.42322 7.73773 9.56052 7.87102C9.89388 8.19513 10.1212 8.60692 10.2626 9.14135C9.92006 8.98055 9.52055 8.75005 8.94259 8.91382C7.79067 9.2359 7.33453 10.6186 7.29688 12.0013H14.1093C14.0717 10.6186 13.6156 9.23591 12.4636 8.91382L12.4639 8.91383Z" fill="#191970"/>
<path d="M20.9147 12.6992H3.0861C2.70743 12.6992 2.40039 13.0127 2.40039 13.3993C2.40039 13.7859 2.70743 14.0994 3.0861 14.0994H3.42896V14.7995C3.42896 17.8927 5.88499 20.4003 8.91468 20.4003H15.0861C18.1158 20.4003 20.5718 17.8927 20.5718 14.7995V14.0994H20.9147C21.2934 14.0994 21.6004 13.7859 21.6004 13.3993C21.6004 13.0127 21.2934 12.6992 20.9147 12.6992Z" fill="#191970"/>
</svg>
