<svg width="24" height="24" viewBox="0 0 24 24" fill="none" xmlns="http://www.w3.org/2000/svg">
<path d="M17.4559 7.40059C17.4212 6.93443 17.194 6.51154 16.8395 6.25339C16.485 5.99524 16.0424 5.93028 15.6387 6.07721C15.2351 6.22415 14.915 6.56678 14.7706 7.00662L14.1604 8.81816C14.1361 8.88926 14.1352 8.96751 14.1578 9.03927C14.1805 9.11103 14.2252 9.17192 14.2843 9.21121L14.0321 9.9013H14.032C13.9952 10.0004 13.924 10.0793 13.8342 10.1205C13.7443 10.1616 13.6432 10.1616 13.5533 10.1205C13.4635 10.0793 13.3922 10.0004 13.3554 9.9013L13.1032 9.21121C13.1622 9.172 13.207 9.11128 13.2298 9.0396C13.2524 8.96791 13.2517 8.88975 13.2275 8.81864L12.6169 7.00659C12.4952 6.63778 12.2488 6.33476 11.9292 6.16058C11.6095 5.9864 11.2412 5.9545 10.9006 6.07145C10.5601 6.18849 10.2738 6.44533 10.1011 6.78864C9.92831 7.13202 9.88262 7.5353 9.97332 7.91483C10.0641 8.29427 10.2844 8.6207 10.5882 8.82612C10.8922 9.03153 11.2564 9.10015 11.6052 9.01766C11.8219 9.00371 11.9451 9.33189 11.9451 9.33189C11.9713 9.40856 12.0217 9.47227 12.0872 9.51106C12.1528 9.54993 12.2288 9.56131 12.3014 9.54312L12.8522 10.974L11.4802 17.0943C11.4433 17.2586 11.4622 17.4321 11.5333 17.5821C11.6042 17.7322 11.7226 17.8487 11.8661 17.9097L13.6952 13.1614L15.5223 17.9097C15.6657 17.8486 15.7839 17.7322 15.855 17.5821C15.926 17.432 15.9449 17.2586 15.9082 17.0943L14.5363 10.9742L15.086 9.54331C15.1586 9.56142 15.2347 9.55004 15.3002 9.51116C15.3657 9.47237 15.4162 9.40875 15.4423 9.33216C15.4423 9.33216 15.5656 9.00397 15.7821 9.01794C16.2113 9.11944 16.6588 8.99127 16.9885 8.67247C17.3182 8.35376 17.4912 7.88203 17.4548 7.40084L17.4559 7.40059ZM12.0459 7.59363C12.0298 7.80744 11.937 8.00537 11.7882 8.14393C11.6393 8.28248 11.4465 8.35035 11.2521 8.33249C11.0578 8.31463 10.8779 8.21263 10.7519 8.04882C10.6261 7.88502 10.5644 7.67287 10.5807 7.45916C10.597 7.24534 10.6898 7.0475 10.8387 6.90903C10.9876 6.77055 11.1805 6.70278 11.3749 6.7208C11.5689 6.73891 11.7486 6.84099 11.8744 7.00464C12.0002 7.16828 12.0619 7.38008 12.0459 7.59364L12.0459 7.59363ZM13.7491 11.2452C13.6502 11.2539 13.5564 11.1962 13.5113 11.0991C13.4661 11.0019 13.4787 10.8844 13.5431 10.8014C13.6076 10.7185 13.711 10.6864 13.8053 10.7201C13.8996 10.7539 13.9662 10.8469 13.9738 10.9556C13.9847 11.1037 13.8845 11.2335 13.7499 11.2458L13.7491 11.2452ZM16.1342 8.33214C15.9399 8.34959 15.7472 8.28148 15.5986 8.14267C15.4499 8.00396 15.3575 7.80585 15.3416 7.59212C15.3257 7.37839 15.3876 7.1664 15.5137 7.00294C15.6399 6.83939 15.8199 6.73771 16.0142 6.72019C16.2085 6.70266 16.4012 6.77077 16.5499 6.90949C16.6986 7.04821 16.791 7.24623 16.807 7.45996C16.8229 7.67369 16.7611 7.88559 16.6352 8.04922C16.5091 8.21294 16.3293 8.31486 16.135 8.33281L16.1342 8.33214Z" fill="#191970"/>
<path d="M20.2085 15.4136C20.2059 15.3388 20.2006 15.2683 20.1952 15.1978L20.1894 15.1812C20.065 13.2573 19.4148 12.1706 19.4063 12.1583C19.3681 12.0963 19.3477 12.0199 19.3502 11.9478L19.5261 7.36838C19.5299 7.20359 19.4835 7.02983 19.3976 6.88699C19.3117 6.74416 19.1937 6.6446 19.0706 6.61111C18.8323 6.54942 18.6372 6.74725 18.6236 7.06415L18.1481 18.5259C18.7687 18.4204 20.3068 17.8984 20.2084 15.4136L20.2085 15.4136Z" fill="#191970"/>
<path d="M7.52167 5.53775C7.6246 5.53882 7.72609 5.51097 7.81554 5.45725C7.9321 5.38665 7.97212 5.23022 7.90485 5.10787C7.83757 4.98552 7.68854 4.94352 7.57197 5.01413C7.51427 5.04913 7.39046 5.00044 7.3374 4.96635H7.33725C7.22315 4.89178 7.07281 4.92846 7.00177 5.04837C6.93073 5.16828 6.96567 5.32593 7.07991 5.4005C7.21344 5.48556 7.36552 5.53288 7.52165 5.53775H7.52167Z" fill="#191970"/>
<path d="M7.9476 4.6882C8.08214 4.69703 8.19812 4.5899 8.20653 4.44869C8.21508 4.30747 8.11302 4.18573 7.97848 4.17691C7.76174 4.14936 7.54283 4.14936 7.32608 4.17691C7.26069 4.1836 7.20067 4.21799 7.15964 4.27186C7.11861 4.32588 7.1002 4.39497 7.10846 4.46345C7.11673 4.53192 7.15109 4.59401 7.20357 4.63555C7.25605 4.67694 7.32245 4.69444 7.3874 4.68394C7.56268 4.66203 7.73985 4.66203 7.91514 4.68394C7.92586 4.68592 7.93674 4.68744 7.94761 4.68821L7.9476 4.6882Z" fill="#191970"/>
<path d="M1.28441 13.7271C1.6615 12.2325 1.79749 10.1906 1.92869 8.21483C2.07164 6.0601 2.20676 4.02435 2.65212 2.92385H2.65198C2.6614 2.90041 2.67228 2.87774 2.68445 2.85568C3.143 1.97414 3.97289 1.37337 4.92076 1.23659C5.86573 1.09172 6.87132 1.37629 7.4218 1.94649C7.44645 1.97235 7.47602 1.99244 7.50864 2.00522C8.15815 2.25189 8.64527 2.88555 8.77922 3.65796C8.90419 4.37257 8.70659 5.04273 8.23642 5.52297C8.33471 5.62828 8.41387 5.73602 8.42765 5.87327C8.45722 6.16255 8.31804 6.30482 8.21612 6.40892V6.40876C8.10115 6.51528 8.01953 6.65574 7.98198 6.81188C7.94197 6.96694 7.91123 7.12444 7.88977 7.28359C7.81177 7.79232 7.71479 8.42457 6.77708 8.37389C6.62398 8.3675 6.44783 8.32063 6.26152 8.27072C6.1625 8.24424 6.00781 8.203 5.87137 8.18033C5.88355 8.64215 5.91197 9.1113 5.95908 9.57405C6.19496 9.79866 6.45549 10.038 6.71255 10.2733C6.96959 10.5085 7.20302 10.7211 7.41234 10.9218C7.60662 11.1061 7.74391 11.3471 7.80669 11.6139C7.86932 11.8807 7.85467 12.1611 7.76435 12.419C7.61807 12.8264 7.34247 13.1683 6.98409 13.3874C6.94393 13.4138 6.91958 13.46 6.92001 13.5098C6.919 13.5248 6.919 13.5399 6.92001 13.555C6.98018 13.6725 7.04803 13.7855 7.12298 13.8933C7.16184 13.9479 7.1875 14.0113 7.19808 14.0786C7.57561 14.451 7.96416 14.8209 8.35546 15.1788C8.65818 15.4547 8.92669 15.7697 9.15428 16.1161C9.16443 16.1161 9.17458 16.1161 9.18516 16.1187C9.33217 16.126 9.41495 16.109 9.6475 16.1613C9.88004 16.2137 10.1265 16.4622 10.2183 16.6906V16.6904C10.2618 16.804 10.2819 16.9257 10.2776 17.0479C10.3008 17.0867 10.3217 17.127 10.3401 17.1686C10.4452 17.4029 10.5198 17.7757 10.28 18.2205C10.1919 18.3849 10.0679 18.5252 9.91832 18.6296C9.91803 19.4405 9.68201 20.2321 9.24157 20.8984C8.67328 21.766 8.67777 22.5315 8.67817 22.5384C8.68136 22.672 8.58597 22.7857 8.4594 22.7992H2.4795C2.36946 22.7991 2.27305 22.7216 2.24449 22.6099C1.46218 19.554 1.6953 17.4506 2.0521 16.1912C1.2669 15.7089 1.05869 14.622 1.28442 13.7272L1.28441 13.7271ZM6.38173 7.77424C6.53555 7.81685 6.69474 7.85946 6.79942 7.86204C7.30321 7.88974 7.33005 7.71626 7.40832 7.20116C7.41122 7.18411 7.41398 7.1654 7.41688 7.14744C7.31974 7.13618 7.2242 7.11198 7.13272 7.07546C7.07067 7.05248 7.02007 7.00409 6.99253 6.9414C6.96513 6.87855 6.96295 6.80688 6.98658 6.74236C7.01036 6.67784 7.05791 6.62625 7.11837 6.59916C7.17897 6.57208 7.2474 6.57193 7.30815 6.59871C7.37629 6.62519 7.44791 6.6404 7.5204 6.6439C7.58303 6.4123 7.70612 6.20351 7.8756 6.04145C7.9333 5.98271 7.94417 5.9716 7.94417 5.9468C7.90126 5.89263 7.85472 5.84165 7.80499 5.79432C7.6187 5.60685 7.36366 5.34999 7.43036 4.99756L7.43964 4.95236C7.48516 4.71635 7.5562 4.34399 7.4579 3.86709C7.22202 4.01409 7.05807 4.31403 6.92728 4.81559C6.8242 5.23405 6.53423 5.57418 6.14961 5.72832C6.09974 5.74872 6.049 5.76637 5.99739 5.78113C5.90779 6.40396 5.86371 7.03321 5.86545 7.66305C6.03986 7.68724 6.21239 7.72452 6.38172 7.77429L6.38173 7.77424ZM9.51242 18.2627C9.63667 18.235 9.7702 18.1188 9.85225 17.967C9.96389 17.7599 9.97809 17.5696 9.89531 17.3845H9.89517C9.88314 17.3611 9.86951 17.3384 9.85457 17.3168C9.79759 17.2295 9.78165 17.1198 9.81122 17.0186C9.83558 16.9333 9.80107 16.8221 9.74787 16.7497C9.64638 16.6121 9.35453 16.6142 9.12839 16.6278C8.98674 16.6363 8.84742 16.5852 8.71434 16.5293V16.5295C8.70564 16.5258 8.69709 16.5217 8.68882 16.517C8.67171 16.5073 6.97082 15.5524 6.07978 15.1574V15.1575C5.78793 15.0285 5.56756 14.7677 5.48056 14.4481C5.38227 14.0897 5.23946 13.6007 5.09694 13.1204C5.08303 13.0749 5.06273 13.0318 5.03692 12.9926C4.55473 12.2524 4.21532 11.3659 4.04485 10.4008C4.02774 10.304 4.00425 10.129 3.98758 10.0173V10.0172C3.98613 10.007 3.97801 9.99908 3.96815 9.99863C3.95815 9.99817 3.94931 10.005 3.94699 10.0151C3.77939 10.6968 3.64978 11.3743 3.55365 12.0176C3.54393 12.0817 3.54698 12.1471 3.56249 12.2098C3.871 13.4621 4.44018 15.1498 4.69912 15.5141C4.91949 15.8272 5.68556 16.4583 8.33272 17.163C8.47393 17.2004 8.59861 17.3445 8.91772 17.7455C9.06473 17.9304 9.2474 18.16 9.33381 18.2265C9.38528 18.2659 9.45066 18.2792 9.51243 18.2627L9.51242 18.2627Z" fill="#191970"/>
</svg>
