<svg width="24" height="24" viewBox="0 0 24 24" fill="none" xmlns="http://www.w3.org/2000/svg">
<path d="M14.5093 7.48944C14.2759 7.37226 14.064 7.32422 13.9042 7.30681C13.5903 7.84231 13.0554 8.23403 12.4246 8.35724L12.5122 8.70157L12.4861 8.74242C12.3454 8.85943 12.1727 8.91802 11.9992 8.91819C11.8256 8.91802 11.6534 8.8596 11.5127 8.74275L11.4864 8.70157L11.5742 8.35724C10.9435 8.23387 10.4087 7.84214 10.0948 7.30664C9.935 7.32405 9.72295 7.37226 9.48969 7.48927C9.00556 7.72831 8.48376 8.25078 8.11883 9.1768C7.74922 10.1063 7.50099 11.4506 7.5 13.4801C7.5 14.0048 7.51698 14.5751 7.55348 15.1963C7.57113 15.4964 7.77242 15.7418 8.04183 15.8326V16.2591H7.61823V19.9015H8.92284V16.2591H8.49907V15.8334C8.80041 15.7337 9.00994 15.4431 8.99043 15.1123C8.95529 14.5165 8.93931 13.974 8.93948 13.4802C8.93645 11.3112 9.25411 10.0929 9.56606 9.45695V22.8924C9.56606 23.504 10.0643 23.9997 10.6785 23.9997C11.2928 23.9997 11.791 23.5042 11.791 22.8924V14.8068H12.2081V22.8924C12.2081 23.504 12.7063 23.9997 13.3205 23.9997C13.9348 23.9997 14.433 23.5042 14.433 22.8924V9.46081C14.4863 9.56979 14.5401 9.69466 14.5931 9.8403C14.8469 10.54 15.0603 11.6882 15.0594 13.4802C15.0594 13.9742 15.0434 14.5167 15.0086 15.1127C14.9854 15.5077 15.2885 15.8467 15.6853 15.8696C15.6996 15.8705 15.7137 15.8708 15.728 15.8708C16.1064 15.871 16.4237 15.5767 16.4459 15.196C16.4823 14.575 16.4992 14.0048 16.4992 13.4802C16.4955 10.7767 16.0619 9.28073 15.4704 8.38107C15.1748 7.93479 14.8289 7.64836 14.5094 7.48967L14.5093 7.48944ZM11.9995 13.8069L11.1447 12.7321L11.6371 9.12066C11.754 9.16418 11.8766 9.18695 11.9994 9.18678H11.9995H12C12.1226 9.18678 12.2454 9.16402 12.3617 9.12049L12.8541 12.7321L11.9995 13.8069Z" fill="#191970"/>
<path d="M14.0245 6.20065C14.0245 7.31368 13.1181 8.21592 12.0001 8.21592C10.882 8.21592 9.97559 7.31364 9.97559 6.20065C9.97559 5.08778 10.882 4.18555 12.0001 4.18555C13.1181 4.18555 14.0245 5.08783 14.0245 6.20065Z" fill="#191970"/>
<path d="M13.6653 3.65108L14.9215 1.73891L14.0427 1.66677L14.7891 0.141952L14.4352 0L13.6559 1.90934L14.4501 1.91921L13.5859 3.6151L13.6653 3.65108Z" fill="#191970"/>
<path d="M16.2572 1.77734L14.8788 2.85305L15.4577 3.1927L14.1074 4.07587L14.1505 4.13546L15.8802 3.25748L15.2651 2.83664L16.457 2.02946L16.2572 1.77734Z" fill="#191970"/>
<path d="M12.8262 3.6568L13.0815 1.77039L12.3948 2.03002L12.4062 0.617188L12.0889 0.63694L12.1916 2.35057L12.7925 2.07436L12.7539 3.65776L12.8262 3.6568Z" fill="#191970"/>
</svg>
