<svg width="24" height="24" viewBox="0 0 24 24" fill="none" xmlns="http://www.w3.org/2000/svg">
<path d="M19.8926 10.1359V15.5477C19.8926 15.707 20.0312 15.8661 20.216 15.8661C20.4009 15.8661 20.5395 15.7297 20.5395 15.5477V10.0449C20.5164 10.0676 20.4932 10.0676 20.4702 10.0676C20.3316 10.1358 20.193 10.1585 20.0544 10.1585C20.0081 10.1586 19.9619 10.1586 19.8926 10.1358V10.1359Z" fill="#191970"/>
<path d="M15.7067 15.8659C16.0994 15.8659 16.3998 15.5702 16.4229 15.1837L16.5152 10.8406H17.0235L17.0928 15.1837C17.0928 15.5702 17.4393 15.8659 17.809 15.8659C18.2018 15.8659 18.5022 15.5476 18.5022 15.161L18.3404 7.38432L18.6869 7.72534L19.4031 9.36255C19.5187 9.61268 19.7496 9.74909 20.027 9.74909C20.1193 9.74909 20.2118 9.72641 20.2811 9.70357C20.6276 9.56716 20.7664 9.18061 20.6276 8.83945L19.8652 7.08851C19.8421 7.0203 19.7728 6.9521 19.7266 6.88389L18.7101 5.86085C18.3636 5.51983 17.9013 5.33789 17.393 5.33789H16.0992C15.6602 5.33789 15.2212 5.45162 14.8516 5.70175L13.1418 6.77048C12.8414 6.95241 12.7491 7.33895 12.9107 7.6573L13.9736 9.45359C14.1585 9.77193 14.5743 9.88567 14.8977 9.70373C14.9901 9.65821 15.0596 9.56732 15.1289 9.47627L15.0133 15.1837C14.9903 15.5476 15.2907 15.866 15.7067 15.866C15.6834 15.866 15.7067 15.866 15.7067 15.866L15.7067 15.8659ZM14.3896 7.52072L15.1521 7.04312L15.129 8.74854L14.3896 7.52072Z" fill="#191970"/>
<path d="M15.1758 3.33789C15.1758 4.20201 15.892 4.90692 16.7468 4.90692C17.6248 4.90692 18.3179 4.20205 18.3179 3.36075C17.9021 3.42896 17.3938 3.47448 16.7468 3.47448C16.1001 3.45164 15.5685 3.4288 15.1758 3.33791V3.33789Z" fill="#191970"/>
<path d="M16.748 3.0639C17.9725 3.0639 18.9429 2.88197 18.9429 2.63182C18.9429 2.49541 18.6425 2.38168 18.1804 2.31348L17.9263 1.54024C17.857 1.33562 17.6721 1.19922 17.441 1.19922H16.0546C15.8467 1.19922 15.6388 1.33563 15.5694 1.54024L15.3152 2.31332C14.8531 2.38152 14.5527 2.51793 14.5527 2.63166C14.5531 2.88195 15.5465 3.0639 16.748 3.0639H16.748Z" fill="#191970"/>
<path d="M10.3484 7.3817C10.0942 7.17708 9.7245 7.19976 9.51659 7.4499L8.1072 9.04158C7.9686 9.22352 7.73749 9.3144 7.50652 9.3144H6.28197C6.05086 9.3144 5.84294 9.22352 5.68129 9.04158L4.2719 7.42704C4.06399 7.1769 3.69428 7.15422 3.44013 7.35883C3.18596 7.56345 3.16292 7.92731 3.37082 8.17744L5.2655 10.3605L5.26533 15.1811C5.26533 15.4994 5.5195 15.7723 5.86602 15.7723C6.21268 15.7724 6.46682 15.4995 6.46682 15.1811V12.7026H7.32166V15.1811C7.32166 15.4994 7.57582 15.7723 7.92234 15.7723C8.2458 15.7723 8.52302 15.5221 8.52302 15.1811L8.52318 10.3605L10.4179 8.17744C10.6256 7.95014 10.6026 7.58626 10.3484 7.38165L10.3484 7.3817Z" fill="#191970"/>
<path d="M8.33968 7.36306C8.33968 8.14154 7.69824 8.77283 6.90706 8.77283C6.11606 8.77283 5.47461 8.14154 5.47461 7.36306C5.47461 6.58441 6.11606 5.95312 6.90706 5.95312C7.69824 5.95312 8.33968 6.58441 8.33968 7.36306Z" fill="#191970"/>
<path d="M3.00107 19.2988C2.67762 19.2988 2.40039 19.549 2.40039 19.89C2.40039 20.2083 2.65455 20.4812 3.00107 20.4812H7.82997C7.80692 20.2992 7.78372 20.0946 7.78372 19.89C7.78372 19.6854 7.80676 19.5035 7.82997 19.2988H3.00107Z" fill="#191970"/>
<path d="M21.4386 19.4796L19.1281 17.2057C18.897 16.9783 18.5274 16.9783 18.2963 17.2057C18.0652 17.4332 18.0652 17.7969 18.2963 18.0243L19.5902 19.2977L15.4082 19.2978C15.4312 19.4798 15.4545 19.6844 15.4545 19.889C15.4545 20.0936 15.4314 20.2756 15.4082 20.4802H19.5902L18.2963 21.7535C18.0652 21.981 18.0652 22.3447 18.2963 22.5721C18.4119 22.6859 18.5735 22.7314 18.7121 22.7314C18.8507 22.7314 19.0126 22.6859 19.1279 22.5721L21.4384 20.2982C21.554 20.1845 21.6002 20.0481 21.6002 19.889C21.6002 19.7298 21.5309 19.5934 21.4386 19.4796L21.4386 19.4796Z" fill="#191970"/>
<path d="M11.6176 16.9785C9.97705 16.9785 8.66016 18.2747 8.66016 19.8891C8.66016 21.5036 9.97721 22.7997 11.6176 22.7997C13.2581 22.7997 14.575 21.5035 14.575 19.8891C14.575 18.2746 13.2579 16.9785 11.6176 16.9785ZM12.8651 20.6167C12.7728 20.7531 12.634 20.8213 12.4954 20.8213C12.4261 20.8213 12.3336 20.7986 12.2643 20.7531L11.3863 20.2301C11.2477 20.1619 11.1784 20.0255 11.1784 19.8663V18.3883C11.1784 18.1609 11.3632 17.9562 11.6174 17.9562C11.8485 17.9562 12.0565 18.1382 12.0565 18.3883V19.6161L12.7264 20.0027C12.9114 20.1619 12.9807 20.4121 12.8652 20.6167H12.8651Z" fill="#191970"/>
</svg>
