<svg width="24" height="24" viewBox="0 0 24 24" fill="none" xmlns="http://www.w3.org/2000/svg">
<path d="M18.6002 6.10403C17.3648 6.10403 16.3636 5.17184 16.3636 4.02209C16.3636 3.36533 16.6906 2.78002 17.2011 2.39844C15.9719 2.55522 15.0215 3.60422 15.0215 4.87601C15.0215 6.25612 16.1402 7.37459 17.5201 7.37459C18.597 7.37459 19.5147 6.69344 19.8658 5.73831C19.5059 5.96895 19.0702 6.10403 18.6002 6.10403H18.6002Z" fill="#191970"/>
<path d="M2.95478 9.46687C2.59997 8.62387 2.99943 7.65411 3.84005 7.30284C4.67982 6.94944 5.65041 7.34692 6.00307 8.19192C6.35419 9.03521 5.95572 10.0026 5.11598 10.3544C4.2748 10.7059 3.30479 10.3086 2.95478 9.46687Z" fill="#191970"/>
<path d="M11.9337 9.9395C10.696 8.19548 8.4536 7.40452 8.35889 7.37248C8.16213 7.30443 7.75939 7.21726 7.48995 7.25539C6.98502 7.32754 6.50633 7.67895 6.50633 8.34631V11.7295L3.3242 11.7294C2.81416 11.7294 2.40039 12.1428 2.40039 12.6531C2.40039 13.1627 2.81391 13.5769 3.3242 13.5769H5.50511C5.05901 13.6884 4.72714 14.0892 4.72714 14.569V20.2486C4.72714 20.8158 5.18642 21.2751 5.75315 21.2751C6.31987 21.2751 6.77944 20.8158 6.77944 20.2486V15.5953H12.4547C12.7294 15.5953 12.9927 15.4851 13.1857 15.2888C13.379 15.0933 13.4848 14.8283 13.4809 14.553C13.4788 14.4522 13.4253 12.0418 11.9336 9.93954L11.9337 9.9395ZM8.35366 10.5113C8.54872 10.7505 8.74022 11.0221 8.9082 11.3281C9.21765 11.8919 9.42318 12.4578 9.56482 12.959L8.06705 13.2079C8.28535 13.0546 8.35382 12.8465 8.35382 12.6525V10.5113L8.35366 10.5113Z" fill="#191970"/>
<path d="M20.9649 13.3672H13.8141C13.8141 13.3672 14.0221 14.0809 14.0221 14.5562C14.0221 15.2833 13.6758 15.594 13.6758 15.594H22.1627V14.5545C22.163 13.8222 21.6808 13.3672 20.965 13.3672H20.9649Z" fill="#191970"/>
<path d="M7.42024 16.1543L7.41797 21.2751H9.42055V19.353H20.1777V21.2751H22.1771V16.1579L7.42024 16.1543Z" fill="#191970"/>
<path d="M19.8561 8.82912V10.0847C19.1658 9.68475 17.8707 9.07168 16.0661 8.81141C13.8327 8.48935 11.9614 8.90199 11.7705 8.94636C11.9483 9.13617 12.1174 9.33872 12.2719 9.55533C12.8793 9.44859 14.32 9.25992 15.9672 9.49735C18.0483 9.7973 19.4242 10.6134 19.8559 10.9004V12.7254H20.5735V8.82902L19.8561 8.82912Z" fill="#191970"/>
</svg>
