<svg width="24" height="25" viewBox="0 0 24 25" fill="none" xmlns="http://www.w3.org/2000/svg">
<path d="M1.60333 4.12214C1.08628 4.618 1.08628 5.80814 1.49089 6.13052C1.7832 6.35364 2.12039 5.98178 2.56999 6.25453C2.86231 6.42818 2.9972 6.7504 3.13205 7.07278C3.33435 7.56864 3.24449 7.66791 3.44679 8.41164C3.60424 8.98189 3.6941 9.03153 3.78396 9.50268C3.8514 9.89945 3.87382 10.197 3.87382 10.3706C3.87382 10.6681 3.89625 11.3129 3.69394 12.0566C3.60408 12.4534 3.49164 12.6517 3.5815 12.9245C3.5815 12.9493 3.71637 13.346 4.0087 13.3957C4.21101 13.4204 4.39088 13.2717 4.48091 13.1229C4.66079 12.8502 4.59335 12.503 4.45849 11.9079C4.32362 11.288 4.2336 11.2633 4.16617 10.8169C4.09873 10.3706 4.14374 9.99863 4.16617 9.77547C4.21118 9.35397 4.32362 9.03156 4.52592 8.38697C4.68337 7.94074 4.77323 7.76709 4.95312 7.64307C4.97555 7.61833 5.22286 7.46941 5.38033 7.56869C5.5152 7.6678 5.5152 7.89109 5.5152 8.06456C5.5152 8.33731 5.44776 8.41168 5.5152 8.53571C5.58263 8.65972 5.7175 8.78374 5.85237 8.75883C6.00982 8.7341 6.03224 8.56045 6.16711 8.53571C6.30198 8.53571 6.392 8.65972 6.41442 8.68446C6.52686 8.8332 6.52686 9.03158 6.52686 9.25471V10.0977C6.52686 10.5689 6.61673 10.8167 6.70674 11.2135C6.7966 11.6846 6.7966 12.1805 6.7966 13.1971C6.7966 14.3873 6.7966 14.9824 6.66173 15.503C6.63931 15.6021 6.50428 16.1229 6.43685 16.7924C6.39184 17.1643 6.39184 17.4619 6.54929 17.7347C6.5943 17.8091 6.72917 18.0322 6.95389 18.0571C7.2012 18.0818 7.4035 17.809 7.4261 17.7843C7.65098 17.4868 7.6284 17.0653 7.53854 16.4702C7.4261 15.6519 7.29123 15.1808 7.2238 14.8089C7.11151 14.0403 7.13409 13.4204 7.1791 12.1806C7.22411 11.164 7.33655 10.42 7.38141 10.0729C7.42642 9.84979 7.58371 8.83314 8.10092 7.71739C8.2808 7.29589 8.43809 7.04787 8.70798 6.99842C9.09016 6.92404 9.42749 7.37028 9.47234 7.44465C9.67464 7.7174 9.74207 7.99014 9.83209 8.68441C9.94453 9.50266 9.76465 9.99857 9.76465 10.42C9.74223 10.7175 9.89952 11.8582 9.69722 12.7259C9.67479 12.8003 9.62978 12.9987 9.69722 13.2467C9.71964 13.2964 9.83209 13.7179 10.1018 13.7426C10.2817 13.7673 10.4616 13.5938 10.5514 13.4202C10.6863 13.1474 10.6189 12.8747 10.484 12.2301C10.3265 11.4861 10.2591 11.1143 10.2367 10.9406C10.1468 10.296 10.1917 9.79997 10.2367 9.3785C10.2591 9.15538 10.3265 8.833 10.4616 8.21312C10.5066 8.03946 10.5514 7.79162 10.6639 7.76689C10.7763 7.76689 10.8213 8.06438 10.9786 8.08928C11.1135 8.11401 11.2483 7.94054 11.3158 7.76689C11.3832 7.5685 11.3158 7.4694 11.3382 7.19664C11.3606 7.07263 11.4056 6.79987 11.5855 6.62639C11.7654 6.47764 12.0577 6.47764 12.2374 6.60166C12.6646 6.84968 12.687 7.54392 12.687 7.7174C12.7095 8.2629 12.5071 8.33729 12.5972 8.68442C12.7096 9.13065 13.0468 9.15558 13.1368 9.62669C13.2042 9.92418 13.1144 10.1722 13.0693 10.2962C12.6647 11.6847 13.5416 15.2801 13.2042 17.4125C13.1368 17.8836 13.1368 18.3547 13.0243 18.8259C12.9569 19.1483 12.8669 19.4458 12.9569 19.7929C12.9793 19.9169 13.0918 20.3137 13.3615 20.3881C13.6088 20.4624 13.8561 20.2144 13.991 20.0162C14.1034 19.8425 14.1709 19.5947 14.0134 18.6773C13.8786 17.8094 13.7437 17.6112 13.6763 16.9913C13.6313 16.6442 13.6538 16.5451 13.6763 15.8012C13.6987 14.3134 13.6313 14.2639 13.6763 12.9498C13.6987 12.2803 13.7213 11.9084 13.7887 11.1646C13.8111 10.9909 13.8786 10.2472 14.1259 9.35454C14.3058 8.75941 14.3956 8.61064 14.5305 8.61064C14.7778 8.561 15.0475 9.1065 15.1375 9.28016C15.2724 9.55292 15.4299 10.0241 15.4523 11.2885C15.4523 12.5531 15.4747 13.1978 15.2724 13.6937C15.25 13.7681 15.1375 14.0655 15.16 14.4376C15.16 14.5863 15.205 15.0078 15.4523 15.1319C15.6322 15.2062 15.812 15.0822 15.8569 15.0575C16.1042 14.8838 16.1492 14.5616 16.1716 14.4624C16.2391 13.9912 16.0142 13.6441 15.8569 13.297C15.677 12.8507 15.7894 12.8011 15.767 10.7927C15.7446 9.67694 15.6996 8.90829 15.9919 8.78431C16.1268 8.73467 16.3066 8.85868 16.4191 8.75957C16.509 8.66047 16.4865 8.51155 16.4865 8.18933C16.4641 7.79256 16.4641 7.51981 16.509 7.3214C16.5764 7.04864 16.8237 6.62713 17.2285 6.52786C17.6331 6.45349 18.0603 6.72624 18.1727 7.04865C18.2402 7.2223 18.1952 7.39578 18.1053 7.76763C18.0379 8.13949 17.9478 8.23878 17.9704 8.51153C17.9704 8.56117 17.9929 8.9083 18.1503 8.95776C18.3078 9.0074 18.465 8.63537 18.5999 8.685C18.7348 8.73464 18.7574 9.13123 18.7798 9.28014C18.8248 10.0984 18.7348 10.5943 18.6899 11.0902C18.6675 11.3382 18.6899 11.8091 18.7574 12.7514C18.8024 13.7432 18.8472 13.7432 18.8472 14.2143C18.8472 14.8838 18.8472 15.355 18.7348 15.9253C18.5999 16.5699 18.4425 16.7682 18.3976 17.4625C18.3526 18.008 18.4426 18.2311 18.5775 18.4048C18.7124 18.5784 18.9372 18.7272 19.1845 18.6528C19.5443 18.5537 19.6342 18.0082 19.6568 17.9089C19.7466 17.413 19.5669 17.0907 19.4319 16.5204C19.3194 16.1236 19.297 15.6525 19.252 14.7351C19.2296 14.3136 19.252 13.6937 19.2744 12.4787C19.3194 10.9662 19.3194 11.1399 19.3419 10.5447C19.3419 9.77607 19.3194 9.60241 19.3643 9.10655C19.4317 8.48667 19.5442 8.13953 19.7014 7.64367C19.9488 6.89976 20.0836 6.75103 20.2411 6.7014C20.3985 6.65176 20.6008 6.67667 20.7133 6.80051C20.8931 6.97416 20.8257 7.27166 20.8481 7.91625C20.8706 8.38741 20.8931 8.33775 20.938 8.83364C20.983 9.52791 20.938 10.0487 20.8706 10.5942C20.8256 11.1644 20.8256 11.7349 20.7357 12.2802C20.7133 12.4538 20.6458 12.7264 20.8031 12.9745C20.893 13.1481 21.1179 13.3463 21.3202 13.2969C21.5001 13.2472 21.6125 13.0241 21.6349 12.9497C21.7698 12.6522 21.6799 12.3546 21.5451 11.834C21.3876 11.2141 21.3202 10.9166 21.2978 10.7679C21.2079 10.2471 21.3876 9.70176 21.3876 8.7842C21.3876 8.58581 21.3652 8.58581 21.41 8.33797C21.455 7.96611 21.3876 7.86681 21.41 7.47004C21.4325 7.07328 21.455 6.85016 21.5899 6.6765C21.8148 6.40374 22.0845 6.5774 22.3769 6.30464C22.5567 6.13099 22.6242 5.90788 22.6916 5.63512C22.7591 5.33763 22.9389 4.6681 22.6018 4.2217C22.332 3.87457 21.9048 3.84984 21.7249 3.84984C21.3203 3.82511 21.2527 3.99859 20.6683 4.1226C20.3311 4.19697 19.8365 4.29625 19.2969 4.1226C18.9597 3.99859 18.9147 3.89948 18.555 3.8002C18.2402 3.72583 17.9929 3.75056 17.7006 3.8002C16.8238 3.92422 16.3742 3.97386 16.0594 3.99859C15.3175 4.02332 14.7555 3.89948 14.5756 3.87458C14.0359 3.75056 14.0809 3.67619 13.6987 3.62655C13.2265 3.55218 13.0468 3.65129 12.0576 3.82494C11.5854 3.89931 11.1133 3.97368 10.5063 4.02332C9.98922 4.04806 9.67446 4.07296 9.2473 4.02332C8.70769 3.94895 8.5954 3.84967 8.07819 3.82494C7.87588 3.82494 7.53857 3.8002 7.08893 3.89931C6.52687 3.99842 6.45942 4.14734 6.00982 4.17207C5.76251 4.1968 5.58262 4.14734 5.17802 4.07296C4.61596 3.97386 4.54851 3.87458 4.16635 3.82494C3.8066 3.7753 3.53685 3.7753 3.04224 3.82494C2.21044 3.89897 1.80568 3.9486 1.60338 4.12225L1.60333 4.12214Z" fill="#191970"/>
</svg>
