<svg width="24" height="24" viewBox="0 0 24 24" fill="none" xmlns="http://www.w3.org/2000/svg">
<path d="M20.4213 12.1498H16.0958C15.446 12.1498 14.9171 12.702 14.9171 13.3807V17.9699C14.9171 18.6485 15.446 19.2007 16.0958 19.2007H18.0952V22.4562H11.2193C11.2988 22.3331 11.3453 22.1851 11.3453 22.0259V17.9647H11.4946C11.9173 17.9647 12.2612 17.6055 12.2612 17.1642V12.6675C12.2612 11.7989 11.5845 11.0921 10.7527 11.0921H8.62188C7.79009 11.0921 7.11343 11.7989 7.11343 12.6675V17.1642C7.11343 17.6056 7.45739 17.9647 7.87999 17.9647H8.03105V22.0259C8.03105 22.1826 8.07491 22.3311 8.15571 22.4562H2.72877V21.9145H3.59546C3.68621 21.9145 3.75965 21.8377 3.75965 21.7431C3.75965 21.6485 3.68621 21.5716 3.59546 21.5716L2.72877 21.5718V20.8484H5.07144C5.16219 20.8484 5.23563 20.7716 5.23563 20.6769C5.23563 20.5823 5.16219 20.5055 5.07144 20.5055H2.72877V19.8198H3.59546C3.68621 19.8198 3.75965 19.7429 3.75965 19.6483C3.75965 19.5537 3.68621 19.4769 3.59546 19.4769H2.72877V18.7517H5.07144C5.16219 18.7517 5.23563 18.6748 5.23563 18.5802C5.23563 18.4856 5.16219 18.4088 5.07144 18.4088L2.72877 18.4089V17.7232H3.59546C3.68621 17.7232 3.75965 17.6464 3.75965 17.5518C3.75965 17.4571 3.68621 17.3803 3.59546 17.3803H2.72877V16.6551H5.07144C5.16219 16.6551 5.23563 16.5783 5.23563 16.4837C5.23563 16.389 5.16219 16.3122 5.07144 16.3122H2.72877V15.6265H3.59546C3.68621 15.6265 3.75965 15.5497 3.75965 15.4551C3.75965 15.3604 3.68621 15.2836 3.59546 15.2836L2.72877 15.2837V14.5604H5.07144C5.16219 14.5604 5.23563 14.4835 5.23563 14.3889C5.23563 14.2943 5.16219 14.2175 5.07144 14.2175H2.72877V13.5318H3.59546C3.68621 13.5318 3.75965 13.4549 3.75965 13.3603C3.75965 13.2657 3.68621 13.1888 3.59546 13.1888H2.72877V12.4637H5.07144C5.16219 12.4637 5.23563 12.3868 5.23563 12.2922C5.23563 12.1976 5.16219 12.1207 5.07144 12.1207L2.72877 12.1209V11.4352H3.59546C3.68621 11.4352 3.75965 11.3584 3.75965 11.2638C3.75965 11.1691 3.68621 11.0923 3.59546 11.0923H2.72877V10.3671H5.07144C5.16219 10.3671 5.23563 10.2903 5.23563 10.1956C5.23563 10.101 5.16219 10.0242 5.07144 10.0242L2.72877 10.0243V9.33866H3.59546C3.68621 9.33866 3.75965 9.26181 3.75965 9.16719C3.75965 9.07257 3.68621 8.99573 3.59546 8.99573H2.72877V8.27237H5.07144C5.16219 8.27237 5.23563 8.19552 5.23563 8.1009C5.23563 8.00628 5.16219 7.92944 5.07144 7.92944H2.72877V7.24376H3.59546C3.68621 7.24376 3.75965 7.16692 3.75965 7.0723C3.75965 6.97768 3.68621 6.90084 3.59546 6.90084H2.72877V6.17566H5.07144C5.16219 6.17566 5.23563 6.09881 5.23563 6.00419C5.23563 5.90957 5.16219 5.83273 5.07144 5.83273L2.72877 5.83288V5.1472H3.59546C3.68621 5.1472 3.75965 5.07036 3.75965 4.97574C3.75965 4.88112 3.68621 4.80428 3.59546 4.80428H2.72877V4.07925H5.07144C5.16219 4.07925 5.23563 4.00241 5.23563 3.90779C5.23563 3.81317 5.16219 3.73633 5.07144 3.73633H2.72877V3.05064H3.59546C3.68621 3.05064 3.75965 2.9738 3.75965 2.87918C3.75965 2.78456 3.68621 2.70772 3.59546 2.70772H2.72877V1.98435H5.07144C5.16219 1.98435 5.23563 1.90751 5.23563 1.81289C5.23563 1.71827 5.16219 1.64143 5.07144 1.64143H2.72877V1.37068C2.72877 1.27606 2.65533 1.19922 2.56458 1.19922C2.47383 1.19922 2.40039 1.27606 2.40039 1.37068V22.6278C2.40039 22.7224 2.47383 22.7992 2.56458 22.7992H18.2596C18.3503 22.7992 18.4238 22.7224 18.4238 22.6278V19.2009H20.4216C21.0715 19.2009 21.6004 18.6487 21.6004 17.9701V13.3809C21.6004 12.7023 21.0715 12.1501 20.4215 12.1501L20.4213 12.1498ZM9.51316 22.026V18.8067C9.51316 18.7582 9.53149 18.7112 9.56366 18.6776C9.59569 18.6441 9.64085 18.625 9.68731 18.625C9.78412 18.625 9.8629 18.7066 9.8629 18.8067V22.026C9.8629 22.1827 9.9069 22.3313 9.98756 22.4563H9.38706C9.4667 22.3332 9.51316 22.1853 9.51316 22.026L9.51316 22.026ZM20.2426 13.3413V14.8258H16.275V13.3413H20.2426Z" fill="#191970"/>
<path d="M16.672 14.257H17.2926C17.3833 14.257 17.4567 14.1801 17.4567 14.0855C17.4567 13.9909 17.3833 13.9141 17.2926 13.9141H16.672C16.5813 13.9141 16.5078 13.9909 16.5078 14.0855C16.508 14.1801 16.5813 14.257 16.672 14.257Z" fill="#191970"/>
<path d="M19.2286 14.257H19.8492C19.9399 14.257 20.0134 14.1801 20.0134 14.0855C20.0134 13.9909 19.9399 13.9141 19.8492 13.9141H19.2286C19.1379 13.9141 19.0645 13.9909 19.0645 14.0855C19.0646 14.1801 19.1379 14.257 19.2286 14.257Z" fill="#191970"/>
<path d="M17.9513 14.257H18.5733C18.664 14.257 18.7375 14.1801 18.7375 14.0855C18.7375 13.9909 18.664 13.9141 18.5733 13.9141H17.9513C17.8605 13.9141 17.7871 13.9909 17.7871 14.0855C17.7871 14.1801 17.8605 14.257 17.9513 14.257Z" fill="#191970"/>
<path d="M9.68621 10.5821C10.7742 10.5821 11.6594 9.6577 11.6594 8.5215C11.6594 7.3853 10.7742 6.46094 9.68621 6.46094C8.5982 6.46079 7.71289 7.38515 7.71289 8.52134C7.71289 9.6577 8.5982 10.5821 9.68621 10.5821Z" fill="#191970"/>
</svg>
