<svg width="22" height="22" viewBox="0 0 22 22" fill="none" xmlns="http://www.w3.org/2000/svg">
<path d="M16.8279 13.3981C16.1907 12.769 15.3953 12.769 14.7622 13.3981C14.2793 13.877 13.7963 14.3558 13.3215 14.8428C13.1917 14.9768 13.0821 15.0052 12.9238 14.9159C12.6113 14.7454 12.2785 14.6074 11.9782 14.4208C10.5781 13.5401 9.40527 12.4078 8.36635 11.1335C7.85094 10.5004 7.39235 9.82271 7.07175 9.05975C7.00682 8.90554 7.01899 8.80408 7.1448 8.67827C7.62774 8.21157 8.0985 7.73269 8.57332 7.25381C9.23482 6.58825 9.23482 5.80906 8.56926 5.13944C8.19184 4.75796 7.81442 4.38459 7.437 4.00311C7.0474 3.61352 6.66186 3.21986 6.26821 2.83432C5.63105 2.2134 4.83563 2.2134 4.20253 2.83838C3.71554 3.31726 3.24883 3.80832 2.75372 4.27908C2.29513 4.71332 2.06381 5.24495 2.01511 5.86587C1.938 6.87639 2.18556 7.83009 2.53457 8.75944C3.24883 10.6831 4.33646 12.3916 5.6554 13.9581C7.437 16.0765 9.56354 17.7526 12.0513 18.962C13.1714 19.5058 14.332 19.9238 15.5942 19.9928C16.4627 20.0415 17.2175 19.8224 17.8222 19.1446C18.2361 18.682 18.7028 18.2599 19.1411 17.8176C19.7905 17.1601 19.7945 16.3647 19.1492 15.7154C18.3782 14.9402 17.603 14.1691 16.8279 13.3981Z" fill="#191970"/>
<path d="M17.4939 8.24543C17.1259 8.24543 16.8349 7.94589 16.8349 7.58644C16.8349 7.26978 16.5182 6.61079 15.9876 6.03738C15.4656 5.48109 14.8922 5.15587 14.4129 5.15587C14.0449 5.15587 13.7539 4.85633 13.7539 4.49688C13.7539 4.13743 14.0534 3.83789 14.4129 3.83789C15.2687 3.83789 16.1674 4.30004 16.9547 5.1302C17.6907 5.90901 18.1614 6.8761 18.1614 7.57788C18.1614 7.94589 17.8619 8.24543 17.4939 8.24543Z" fill="#191970"/>
<path d="M20.4526 8.2463C20.0912 8.2463 19.8055 7.95246 19.8055 7.59986C19.8055 4.61952 17.3764 2.20167 14.4011 2.20167C14.0397 2.20167 13.7539 1.90783 13.7539 1.55523C13.7539 1.20262 14.0397 0.900391 14.3927 0.900391C18.0908 0.900391 21.0998 3.90591 21.0998 7.59986C21.0998 7.95246 20.8056 8.2463 20.4526 8.2463Z" fill="#191970"/>
</svg>
