<svg width="24" height="24" viewBox="0 0 24 24" fill="none" xmlns="http://www.w3.org/2000/svg">
<path d="M8.44999 15.9588C8.44999 16.8378 7.703 17.5503 6.78164 17.5503C5.8601 17.5503 5.11328 16.8378 5.11328 15.9588C5.11328 15.0798 5.8601 14.3672 6.78164 14.3672C7.703 14.3672 8.44999 15.0798 8.44999 15.9588Z" fill="#191970"/>
<path d="M10.1199 12.2477C10.1199 13.1267 9.37292 13.8392 8.45156 13.8392C7.5302 13.8392 6.7832 13.1267 6.7832 12.2477C6.7832 11.3688 7.5302 10.6562 8.45156 10.6562C9.37292 10.6562 10.1199 11.3688 10.1199 12.2477Z" fill="#191970"/>
<path d="M19.9146 16.3883L12.5736 12.887C12.0255 12.6369 11.3581 12.8415 11.0959 13.3645L8.45034 18.5484H4.13634V13.5009C4.13634 13.0689 3.7789 12.7051 3.30206 12.7051C2.82541 12.7051 2.46777 13.0461 2.46777 13.5009L2.46794 22.0043C2.46794 22.4363 2.82539 22.8001 3.30222 22.8001C3.77887 22.8001 4.13651 22.4591 4.13651 22.0043V20.1172H19.1521L19.1519 22.0043C19.1519 22.4363 19.5094 22.8001 19.9862 22.8001C20.4391 22.8001 20.8205 22.4591 20.8205 22.0043L20.8203 17.7299C20.7964 17.1615 20.4389 16.6384 19.9146 16.3883L19.9146 16.3883Z" fill="#191970"/>
<path d="M11.7392 11.044C11.763 11.044 11.8107 11.044 11.8345 11.0213L14.3371 10.2937C15.0522 10.6346 15.8387 10.8394 16.649 10.8394C19.4376 10.8394 21.7019 8.67947 21.7019 6.01929C21.7019 3.35916 19.4377 1.19922 16.649 1.19922C13.8604 1.19922 11.5962 3.35912 11.5962 6.01929C11.5962 6.79228 11.7869 7.54261 12.1682 8.2247L11.4054 10.612C11.3577 10.7258 11.4054 10.8621 11.5007 10.953C11.5484 11.0212 11.6437 11.0439 11.7391 11.0439L11.7392 11.044ZM14.5278 5.51908C14.79 5.26897 15.2189 5.26897 15.4811 5.51908L16.1962 6.2012L18.0075 4.47329C18.2697 4.22319 18.6986 4.22319 18.9608 4.47329C19.223 4.7234 19.223 5.13256 18.9608 5.38266L16.6726 7.56542C16.5534 7.67913 16.3627 7.74733 16.196 7.74733C16.0291 7.74733 15.8623 7.67913 15.7193 7.56542L14.5276 6.42861C14.2656 6.1785 14.2656 5.76918 14.5278 5.51908H14.5278Z" fill="#191970"/>
</svg>
