<svg width="24" height="24" viewBox="0 0 24 24" fill="none" xmlns="http://www.w3.org/2000/svg">
<path d="M8.11018 7.43287L7.2892 7.08316L7.28905 7.08301C8.37052 5.7126 9.88005 4.72747 11.5868 4.27817C13.2935 3.82886 15.103 3.94031 16.739 4.59543C13.1525 1.16674 7.03722 1.84396 4.34951 6.00392L3.15319 5.87174C2.92381 5.8464 2.697 5.93738 2.55163 6.11328C2.40612 6.28917 2.36214 6.52552 2.43483 6.74038L3.83512 10.8806C3.90493 11.0866 4.07281 11.2462 4.28497 11.308C4.49727 11.3698 4.72681 11.3261 4.89984 11.1906L8.26273 8.56051C8.44844 8.41529 8.54288 8.18516 8.51175 7.95431C8.48047 7.72344 8.32815 7.52545 8.11041 7.4327L8.11018 7.43287Z" fill="#191970"/>
<path d="M20.1658 13.121C20.096 12.9149 19.9281 12.7553 19.716 12.6935C19.5037 12.6317 19.2741 12.6756 19.1011 12.811L15.7382 15.4411C15.5525 15.5863 15.4581 15.8163 15.4892 16.0473C15.5205 16.2782 15.6728 16.4762 15.8905 16.5689L16.7115 16.9186L16.7116 16.9188C15.6302 18.2892 14.1206 19.2743 12.4139 19.7236C10.7074 20.1728 8.89771 20.0615 7.26172 19.4064C10.8482 22.835 16.9635 22.1578 19.6512 17.9979L20.8475 18.1301C21.0769 18.1554 21.3037 18.0644 21.4491 17.8885C21.5946 17.7126 21.6386 17.4763 21.5659 17.2614L20.1658 13.121Z" fill="#191970"/>
<path d="M11.5031 7.23366C10.553 8.24959 8.56836 10.5405 8.56836 11.9535C8.74878 16.4155 15.2493 16.4155 15.4296 11.9535C15.4296 10.5403 13.445 8.24952 12.4948 7.23366H12.4945C12.3673 7.09718 12.1875 7.01953 11.9989 7.01953C11.8104 7.01953 11.6305 7.09718 11.5033 7.23366H11.5031Z" fill="#191970"/>
</svg>
