<svg width="20" height="14" viewBox="0 0 20 14" fill="none" xmlns="http://www.w3.org/2000/svg">
<path d="M18.1878 0.496013C17.6736 0.335535 17.1139 0.379016 16.6333 0.616588C16.6185 0.623882 15.147 1.32715 12.978 1.07714C12.5125 0.701096 11.9365 0.473275 11.3299 0.425052C11.2426 0.418187 11.1537 0.409605 11.0659 0.409605H8.95451C8.86678 0.409605 8.77786 0.418187 8.69058 0.425052C8.08574 0.472111 7.51088 0.698094 7.04587 1.07183C4.87418 1.32814 3.38266 0.6223 3.36849 0.61527C2.74039 0.306898 1.99052 0.331786 1.38629 0.681207C0.782061 1.03049 0.409209 1.65466 0.400539 2.33106C0.392035 3.0076 0.749061 3.64006 1.34436 4.00336C1.27259 4.41129 1.41776 4.82648 1.73122 5.11069C2.04468 5.39474 2.48541 5.51031 2.90615 5.41877C3.3269 5.32738 3.67229 5.04075 3.82713 4.65472C3.98199 4.26868 3.92604 3.83402 3.67778 3.49591C3.42952 3.15765 3.02161 2.96026 2.59028 2.96971C2.15895 2.97915 1.76105 3.19412 1.52905 3.54282C1.1101 3.24775 0.875285 2.76961 0.904656 2.272C0.934197 1.7744 1.22409 1.32487 1.67526 1.07713C2.12644 0.829393 2.67755 0.817105 3.1402 1.04438C3.1963 1.07184 4.32571 1.61265 6.08233 1.6125C6.22825 1.6125 6.37893 1.6085 6.53322 1.60049C6.48249 1.66728 6.4343 1.73651 6.38864 1.80817V1.80831C5.85793 2.64402 5.77471 3.6724 6.1647 4.57677C6.16753 4.58335 6.17067 4.58978 6.17425 4.59622L8.24315 8.36944V8.3693C8.08634 8.62003 8.04666 8.92237 8.13364 9.20245C8.22062 9.48264 8.42636 9.71491 8.70059 9.84263L9.02315 12.8972C9.04076 13.0541 9.11849 13.199 9.24128 13.3039C9.36406 13.4089 9.52326 13.4664 9.68781 13.4653H10.3328H10.3326C10.4977 13.4658 10.6571 13.4082 10.7807 13.3035C10.9043 13.1988 10.9836 13.0542 11.0033 12.8973V12.8994L11.3454 9.83131C11.6093 9.70058 11.8059 9.47202 11.8895 9.1987C11.973 8.92538 11.936 8.63131 11.7874 8.38474L13.8469 4.59541C13.8502 4.58926 13.853 4.58325 13.8559 4.57682H13.8557C14.2457 3.6726 14.1625 2.64422 13.6316 1.80836C13.5863 1.73699 13.5384 1.66819 13.4878 1.60169C15.4887 1.70181 16.8005 1.0742 16.8613 1.04443H16.8614C17.3241 0.817163 17.8754 0.829462 18.3264 1.07719C18.7775 1.32491 19.0674 1.7746 19.0968 2.27235C19.1262 2.76996 18.8912 3.24808 18.4722 3.54316C18.2457 3.20261 17.8604 2.98921 17.4397 2.97105C17.0188 2.95288 16.6153 3.13224 16.3578 3.45192C16.1004 3.77145 16.0215 4.19122 16.1462 4.577C16.2709 4.9626 16.5838 5.26596 16.9847 5.38983C17.4145 5.5227 17.8857 5.43088 18.2273 5.14768C18.5691 4.86448 18.7319 4.43082 18.6569 4.00374C19.0943 3.7367 19.4091 3.31991 19.5373 2.8382C19.6653 2.35648 19.5971 1.84599 19.3463 1.41093C19.0955 0.975862 18.6812 0.648594 18.1876 0.496127L18.1878 0.496013ZM12.65 2.13569C12.6387 2.16143 11.5048 4.7348 10.852 6.76937C10.5838 7.60867 10.42 8.47543 10.364 9.3516L10.2605 10.9561V10.9562C10.2524 11.0831 10.1429 11.1822 10.0101 11.1826H10.0073C9.87348 11.1812 9.76442 11.0791 9.75979 10.9509L9.69623 9.41383C9.65729 8.44923 9.48303 7.49408 9.17824 6.57397C8.50687 4.55613 7.384 2.16474 7.37269 2.14057C7.32629 2.04203 7.35449 1.92589 7.44132 1.85695C7.52815 1.78786 7.65228 1.783 7.74479 1.84493C7.7506 1.84894 8.25204 2.17833 9.06115 2.33909C10.1403 2.55335 11.2302 2.38229 12.3005 1.83047C12.3942 1.78213 12.5095 1.79571 12.5881 1.86451C12.6667 1.93316 12.6915 2.04201 12.65 2.13584L12.65 2.13569Z" fill="#191970"/>
</svg>
