<svg width="24" height="24" viewBox="0 0 24 24" fill="none" xmlns="http://www.w3.org/2000/svg">
<path fill-rule="evenodd" clip-rule="evenodd" d="M16.4828 17.6231C18.2122 16.6672 16.7836 14.3455 15.2044 14.9601C17.7611 13.3896 15.8059 11.4093 14.227 11.9556C16.8588 10.5216 15.1293 8.33668 13.7006 8.81458L19.3401 5.74185C21.0695 4.78597 19.1897 2.39597 17.4602 3.35198L8.5121 8.33661L9.41443 6.15154C10.3919 3.69342 8.13611 0.893831 7.08331 3.35198C6.25615 4.85422 0.390787 14.1408 1.29334 15.5062C2.72198 17.6913 3.69962 19.1251 5.12841 21.3101C6.1059 22.7441 14.9036 18.4423 16.4831 17.6227L16.4828 17.6231Z" fill="#191970"/>
<path fill-rule="evenodd" clip-rule="evenodd" d="M19.7905 14.5494C18.1362 14.4812 16.8578 13.2521 16.8578 11.7499C16.7827 9.56481 18.5122 8.47226 19.7905 6.35547C21.0688 8.47229 22.7983 9.56471 22.7983 11.7499C22.7231 13.2521 21.4448 14.4812 19.7905 14.5494ZM17.2338 11.7499C17.2338 10.9305 17.4595 10.3159 17.8353 9.76971C17.0833 11.5451 17.7602 13.6617 20.016 14.2082C18.512 14.3447 17.309 12.9791 17.2337 11.7501L17.2338 11.7499Z" fill="#191970"/>
</svg>
