<svg width="24" height="24" viewBox="0 0 24 24" fill="none" xmlns="http://www.w3.org/2000/svg">
<path fill-rule="evenodd" clip-rule="evenodd" d="M16.4837 17.6231C18.2132 16.6672 16.7846 14.3455 15.2054 14.9601C17.7621 13.3896 15.8069 11.4093 14.2279 11.9556C16.8597 10.5216 15.1303 8.33668 13.7016 8.81458L19.341 5.74185C21.0705 4.78597 19.1907 2.39597 17.4612 3.35198L8.51308 8.33661L9.4154 6.15154C10.3929 3.69342 8.13708 0.893831 7.08428 3.35198C6.25712 4.85422 0.391764 14.1408 1.29431 15.5062C2.72296 17.6913 3.70059 19.1251 5.12939 21.3101C6.10688 22.7441 14.9046 18.4423 16.4841 17.6227L16.4837 17.6231Z" fill="#191970"/>
<path fill-rule="evenodd" clip-rule="evenodd" d="M19.7915 14.5494C18.1371 14.4812 16.8588 13.2521 16.8588 11.7499C16.7836 9.56481 18.5131 8.47226 19.7915 6.35547C21.0698 8.47229 22.7993 9.56471 22.7993 11.7499C22.7241 13.2521 21.4458 14.4812 19.7915 14.5494ZM17.2348 11.7499C17.2348 10.9305 17.4605 10.3159 17.8363 9.7697C17.0843 11.5451 17.7611 13.6617 20.0169 14.2082C18.513 14.3447 17.31 12.9791 17.2347 11.7501L17.2348 11.7499Z" fill="#191970"/>
</svg>
