<svg width="22" height="22" viewBox="0 0 22 22" fill="none" xmlns="http://www.w3.org/2000/svg">
<path d="M10.9822 2.84375C9.18892 2.84423 7.44542 3.43574 6.02012 4.52717C4.59483 5.6188 3.56624 7.1498 3.09293 8.88502C2.61959 10.6202 2.72754 12.4633 3.40035 14.131C3.40308 14.1282 3.40581 14.1227 3.40838 14.1202C3.56241 13.4992 3.88317 12.9325 4.33595 12.4817C4.47167 12.3471 4.61719 12.2229 4.77122 12.1101C4.74086 12.0755 4.70842 12.0429 4.67389 12.0125C4.40277 11.7663 4.24812 11.4165 4.24812 11.0494C4.24812 10.6825 4.40279 10.3327 4.67389 10.0865C4.94725 9.84256 5.10369 9.49324 5.10385 9.12621C5.10385 8.84682 4.97134 8.59193 4.97134 8.31251C4.9715 8.01556 5.07382 7.72794 5.26109 7.49819C5.44837 7.26827 5.7089 7.11037 5.99878 7.05106C6.24388 6.99918 6.46859 6.87689 6.64572 6.69917C6.82288 6.52145 6.94479 6.29604 6.99667 6.05017C7.05577 5.75934 7.21317 5.49798 7.44222 5.31014C7.67125 5.12227 7.95812 5.01963 8.25396 5.01947C8.5731 5.01947 8.87586 5.16319 9.19501 5.1416V5.14144C9.51447 5.11373 9.81095 4.96307 10.0223 4.72108C10.2678 4.4491 10.6164 4.29379 10.9823 4.29379C11.3481 4.29379 11.6968 4.44912 11.9422 4.72108C12.1086 4.90944 12.3264 5.04446 12.5687 5.10955C12.8111 5.17465 13.0671 5.16691 13.305 5.08732C13.6532 4.97405 14.0329 5.01417 14.3499 5.19769C14.667 5.38137 14.8915 5.69106 14.968 6.05021C15.0202 6.29592 15.1422 6.52101 15.3192 6.69875C15.4962 6.87631 15.7208 6.99876 15.9657 7.05113C16.2556 7.11043 16.5162 7.26833 16.7034 7.49826C16.8907 7.72802 16.993 8.01564 16.9932 8.31258C16.9932 8.58923 16.8607 8.84703 16.8607 9.12628C16.8608 9.49332 17.0173 9.84264 17.2906 10.0866C17.5658 10.3305 17.7233 10.6811 17.7233 11.0495C17.7233 11.4178 17.5657 11.7686 17.2906 12.0125C17.0173 12.2563 16.8608 12.6058 16.8607 12.9727C16.866 13.1104 16.8878 13.2471 16.9255 13.3797C16.9655 13.5118 16.9883 13.6484 16.9932 13.7865C16.993 14.0833 16.8907 14.3709 16.7034 14.6008C16.5161 14.8306 16.2556 14.9885 15.9657 15.0478C15.7198 15.0981 15.4942 15.2197 15.3167 15.3978C15.1394 15.5758 15.0179 15.8022 14.968 16.0487C14.9089 16.3395 14.7515 16.601 14.5223 16.7889C14.2932 16.9766 14.0064 17.0794 13.7105 17.0796C13.4348 17.0796 13.1778 16.9466 12.8993 16.9466H12.8995C12.5336 16.9468 12.1854 17.1037 11.9422 17.378C11.699 17.6538 11.3495 17.8119 10.9824 17.8119C10.615 17.8119 10.2655 17.6538 10.0223 17.378C9.92485 17.2689 9.80969 17.1772 9.68168 17.1066C9.57551 17.2449 9.46083 17.3762 9.33828 17.4999C8.88792 17.9542 8.32207 18.2759 7.70243 18.4304C7.66725 18.4603 7.63208 18.4902 7.5969 18.52V18.5199C9.08404 19.198 10.7395 19.4141 12.3501 19.14C13.9606 18.866 15.4523 18.1143 16.6333 16.9821C17.8143 15.8499 18.6303 14.3888 18.9761 12.7872C19.3221 11.1856 19.1821 9.51683 18.574 7.9958C17.966 6.47478 16.918 5.17114 15.5648 4.25304C14.2118 3.33477 12.6156 2.844 10.9823 2.844L10.9822 2.84375Z" fill="#191970"/>
<path d="M9.64615 20.4492C8.99711 20.357 8.35962 20.1974 7.74352 19.9727C7.57503 19.911 7.38904 19.9191 7.22635 19.9951C7.0638 20.0712 6.93804 20.2089 6.87669 20.378C6.81533 20.5471 6.82352 20.7337 6.89949 20.8968C6.97547 21.0598 7.11279 21.186 7.28144 21.2474C7.98574 21.5042 8.71475 21.6868 9.4568 21.7923C9.48844 21.7967 9.5204 21.7989 9.5522 21.7989C9.78236 21.7986 9.99664 21.681 10.1208 21.4865C10.2449 21.292 10.262 21.0476 10.1659 20.8378C10.0699 20.628 9.87407 20.4815 9.64614 20.4492L9.64615 20.4492Z" fill="#191970"/>
<path d="M14.9225 19.6834C14.3268 19.957 13.7043 20.1676 13.065 20.3118C12.8468 20.3609 12.6669 20.5153 12.5844 20.724C12.5022 20.9328 12.5282 21.1688 12.6538 21.3546C12.7796 21.5402 12.9887 21.6516 13.2125 21.6519C13.2624 21.6517 13.3124 21.6462 13.361 21.6351C14.0923 21.4703 14.8043 21.2294 15.4856 20.9162C15.6491 20.8416 15.7762 20.7048 15.8388 20.5361C15.9016 20.3672 15.8949 20.1803 15.82 20.0166C15.7452 19.8529 15.6085 19.7258 15.4402 19.6633C15.2719 19.6007 15.0855 19.608 14.9225 19.6834L14.9225 19.6834Z" fill="#191970"/>
<path d="M19.8828 15.9769C19.732 15.8797 19.5487 15.8464 19.3736 15.8846C19.1984 15.9228 19.0453 16.0291 18.9483 16.1804C18.5932 16.7335 18.1823 17.2485 17.7219 17.7171C17.5524 17.8896 17.4875 18.1399 17.5516 18.3733C17.6159 18.6068 17.7993 18.7884 18.0331 18.8493C18.2668 18.9103 18.5152 18.8417 18.6848 18.6691C19.2106 18.134 19.6799 17.546 20.0855 16.9142C20.1823 16.7629 20.2156 16.5792 20.1775 16.4035C20.1394 16.2278 20.0334 16.0744 19.8828 15.9769L19.8828 15.9769Z" fill="#191970"/>
<path d="M1.25648 14.6117C1.46962 14.6114 1.67008 14.5104 1.79775 14.3391C1.92528 14.1678 1.96511 13.9464 1.90505 13.7412C1.71986 13.1109 1.60052 12.4628 1.54896 11.8075C1.52969 11.5661 1.38369 11.3536 1.16589 11.2495C0.9481 11.1455 0.691441 11.1656 0.492597 11.3027C0.293597 11.4397 0.182609 11.6727 0.201244 11.914C0.26019 12.6632 0.396551 13.4044 0.60824 14.1253C0.649678 14.2656 0.735124 14.3889 0.851893 14.4765C0.968663 14.5642 1.11065 14.6116 1.25648 14.6117L1.25648 14.6117Z" fill="#191970"/>
<path d="M21.1222 10.3281C20.9429 10.3281 20.7709 10.3995 20.6442 10.5268C20.5175 10.6539 20.4461 10.8265 20.4463 11.0063V11.0475C20.4465 11.7052 20.379 12.3612 20.2451 13.0049C20.208 13.181 20.2423 13.3647 20.3403 13.5155C20.4384 13.6662 20.5921 13.7717 20.7678 13.8086C20.9434 13.8455 21.1265 13.8108 21.2765 13.7122C21.4267 13.6136 21.5316 13.4593 21.5682 13.283C21.7212 12.5478 21.7983 11.7987 21.7982 11.0476V11.0063C21.7982 10.8265 21.727 10.6539 21.6001 10.5268C21.4734 10.3995 21.3016 10.3282 21.1222 10.3282L21.1222 10.3281Z" fill="#191970"/>
<path d="M1.05773 8.85622C1.22991 8.90666 1.4151 8.88651 1.57219 8.79967C1.72943 8.71298 1.84588 8.56716 1.89551 8.39412C2.07861 7.76298 2.32675 7.15263 2.63628 6.57322C2.74968 6.35973 2.74116 6.10175 2.6138 5.89634C2.48659 5.69074 2.2598 5.56893 2.0187 5.57651C1.77762 5.58392 1.55885 5.71975 1.4445 5.93275C1.0905 6.59561 0.806521 7.29377 0.59711 8.01595C0.54716 8.18851 0.567557 8.37413 0.653967 8.53171C0.740379 8.68929 0.885573 8.80595 1.05775 8.85622L1.05773 8.85622Z" fill="#191970"/>
<path d="M19.8185 7.63932C19.9054 7.86538 20.1057 8.02779 20.3444 8.06533C20.5829 8.10303 20.8233 8.01006 20.9751 7.82171C21.1268 7.63335 21.1669 7.37796 21.0802 7.15192C20.8108 6.4507 20.4694 5.77931 20.0614 5.14883C19.93 4.94565 19.7003 4.8282 19.4591 4.84076C19.218 4.85349 19.0019 4.99415 18.8922 5.21006C18.7825 5.42597 18.7958 5.68408 18.9273 5.88743C19.2842 6.4388 19.5829 7.02596 19.8186 7.63936L19.8185 7.63932Z" fill="#191970"/>
<path d="M4.32287 4.05834C4.48605 4.0585 4.64378 3.99921 4.76665 3.89142C5.26088 3.45926 5.79845 3.07949 6.37039 2.75821C6.58128 2.63994 6.71298 2.41775 6.71636 2.17558C6.71957 1.93325 6.59381 1.70766 6.3863 1.58375C6.17878 1.45984 5.92118 1.4563 5.71028 1.57457C5.05689 1.94161 4.44305 2.37536 3.87846 2.86889C3.73921 2.99054 3.65569 3.16423 3.64718 3.34922C3.63882 3.53436 3.70628 3.71482 3.83381 3.8487C3.9615 3.98259 4.13818 4.05832 4.3229 4.05832L4.32287 4.05834Z" fill="#191970"/>
<path d="M14.8872 2.39747C15.4842 2.66913 16.0513 3.00233 16.5795 3.39176C16.7742 3.53516 17.0302 3.56352 17.2514 3.4662C17.4726 3.36888 17.6253 3.16054 17.6518 2.91983C17.6783 2.67895 17.5747 2.44226 17.3802 2.29867C16.7763 1.85365 16.1279 1.4726 15.4454 1.16208C15.2254 1.06202 14.9689 1.08732 14.7726 1.22847C14.5762 1.36945 14.4699 1.60502 14.4935 1.84624C14.5171 2.08728 14.6671 2.29753 14.8871 2.39744L14.8872 2.39747Z" fill="#191970"/>
<path d="M9.50928 1.6615C9.54205 1.66166 9.57481 1.65924 9.60741 1.65441C10.2565 1.56079 10.9135 1.5334 11.5681 1.57287C11.8091 1.58754 12.0396 1.47217 12.1728 1.27012C12.3061 1.06823 12.3218 0.810289 12.2142 0.593572C12.1064 0.376858 11.8917 0.234103 11.6508 0.219118C10.9036 0.174165 10.1537 0.205422 9.41276 0.312408C9.18533 0.3456 8.99019 0.492386 8.89492 0.702169C8.79952 0.911953 8.81703 1.15606 8.94118 1.34989C9.0655 1.54388 9.27944 1.66134 9.50926 1.6615L9.50928 1.6615Z" fill="#191970"/>
<path d="M13.8614 10.8833C14.2837 10.4596 14.5209 9.88509 14.5208 9.28601C14.5208 8.68696 14.2835 8.11237 13.8613 7.68876C13.439 7.26514 12.8664 7.02734 12.2692 7.02734C11.6721 7.02734 11.0993 7.26532 10.6771 7.68892C10.2548 8.11254 10.0176 8.68692 10.0176 9.28601C10.0176 9.88505 10.2548 10.4596 10.6771 10.8833C11.0993 11.3069 11.6721 11.5448 12.2692 11.5448C12.8664 11.5448 13.4392 11.3069 13.8614 10.8833ZM12.515 8.77511C12.6501 8.6396 12.8332 8.56355 13.0243 8.56355C13.2153 8.56355 13.3986 8.6396 13.5337 8.77511C13.6687 8.91061 13.7447 9.09446 13.7447 9.28605C13.7447 9.47778 13.6687 9.66147 13.5337 9.79699C13.3986 9.93249 13.2153 10.0087 13.0243 10.0087C12.8332 10.0087 12.6501 9.93249 12.515 9.79699C12.3799 9.66148 12.304 9.4778 12.304 9.28605C12.304 9.09447 12.3799 8.91062 12.515 8.77511Z" fill="#191970"/>
<path d="M7.12669 17.3005C7.63905 17.2379 8.1156 17.0047 8.48052 16.6385C9.3872 15.7289 10.2693 13.3694 9.36261 12.46C8.45593 11.5505 6.10389 12.4354 5.19742 13.3449L5.19726 13.3448C4.8325 13.7104 4.60023 14.1879 4.53761 14.7013C4.31837 14.9121 3.98027 15.292 3.97899 15.6352H3.97883C3.99521 15.9948 4.11294 16.3425 4.31837 16.6379C4.27099 16.7069 4.22537 16.7771 4.18474 16.849H4.1849C3.94944 17.2484 3.82319 17.7031 3.81886 18.1671C3.83315 18.3758 3.75301 18.5798 3.6009 18.7229C3.43113 18.8788 3.20097 18.951 2.97292 18.9194C2.91349 18.9098 2.85535 18.8943 2.79897 18.8734C2.69216 18.8271 2.58086 18.7923 2.46698 18.7691C2.241 18.7248 2.00811 18.7309 1.78484 18.7872C1.34813 18.8961 0.983711 19.1967 0.792886 19.6057C0.703102 19.7977 0.656684 20.0074 0.657005 20.2196C0.655559 20.3274 0.645119 20.435 0.626006 20.541C0.609623 20.6338 0.662626 20.7247 0.751287 20.7558C0.800595 20.7732 0.854721 20.77 0.90162 20.7468C0.948358 20.7236 0.984015 20.6825 1.00024 20.6329C1.04071 20.5104 1.07107 20.3851 1.09098 20.2578C1.10849 20.1111 1.16069 19.9708 1.24292 19.8484C1.39197 19.6173 1.63788 19.4666 1.91092 19.4391C2.03748 19.4268 2.16517 19.4426 2.28483 19.4853C2.34362 19.5077 2.39983 19.5359 2.45283 19.5696C2.55611 19.627 2.66452 19.674 2.77695 19.7099C3.2519 19.8516 3.76504 19.7736 4.17688 19.4973C4.60557 19.2085 4.88183 18.7413 4.92887 18.2253C4.97256 17.9766 5.07921 17.7432 5.23838 17.5475C5.52315 17.7379 5.85481 17.846 6.19678 17.8602C6.53793 17.8602 6.91716 17.5204 7.12673 17.3006L7.12669 17.3005ZM7.38961 13.3797C7.52469 13.2442 7.70795 13.1682 7.89894 13.1682C8.09007 13.1682 8.27317 13.2442 8.40826 13.3797C8.54334 13.5152 8.6193 13.6991 8.6193 13.8907C8.6193 14.0824 8.54333 14.2661 8.40826 14.4016C8.27318 14.5371 8.09008 14.6133 7.89894 14.6133C7.70797 14.6133 7.5247 14.5371 7.38961 14.4016C7.25454 14.2661 7.17873 14.0824 7.17873 13.8907C7.17873 13.6991 7.25454 13.5152 7.38961 13.3797Z" fill="#191970"/>
</svg>
