<svg width="12" height="23" viewBox="0 0 12 23" fill="none" xmlns="http://www.w3.org/2000/svg">
<path fill-rule="evenodd" clip-rule="evenodd" d="M5.685 5.5034H0.748191C0.604923 5.5034 0.46774 5.55131 0.371782 5.63467C0.275818 5.71803 0.230544 5.82894 0.246535 5.93968C0.629028 8.62071 0.346553 11.3016 0.0154175 13.982V13.9883C-0.0924832 15.0427 0.369526 16.0835 1.28997 16.8602C2.21039 17.6363 3.50409 18.0782 4.86036 18.0789C5.07639 18.0796 5.29421 18.0805 5.51338 18.0812V22.0138H2.99045C2.71203 22.0138 2.48587 22.19 2.48587 22.4069C2.48587 22.6238 2.71203 22.8 2.99045 22.8H9.04548C9.3239 22.8 9.55007 22.6238 9.55007 22.4069C9.55007 22.19 9.3239 22.0138 9.04548 22.0138H6.52255V18.0827H7.131C8.4954 18.0827 9.79631 17.637 10.7185 16.8539C11.641 16.0708 12.0991 15.0228 11.982 13.9639C11.982 13.9639 11.982 13.9584 11.9811 13.956C11.6128 11.2876 11.313 8.61917 11.7874 5.95098C11.8076 5.83779 11.7642 5.7246 11.6682 5.63878C11.5722 5.55314 11.4342 5.50348 11.2877 5.50348H6.78274L9.50952 0.548093C9.61855 0.348382 9.50051 0.117258 9.24416 0.0316189C8.98781 -0.053319 8.69115 0.0386386 8.58122 0.238352L5.685 5.5034ZM10.5613 7.86204H1.42393C1.40478 7.33766 1.36739 6.81399 1.30589 6.28961H10.7154C10.6377 6.81399 10.5885 7.33766 10.5613 7.86204Z" fill="#191970"/>
</svg>
