<svg width="24" height="24" viewBox="0 0 24 24" fill="none" xmlns="http://www.w3.org/2000/svg">
<g clip-path="url(#clip0_3029_61421)">
<path d="M23.9986 8.59779C23.9744 7.16238 23.5672 6.07929 22.7883 5.3786C21.6904 4.39095 19.8851 4.21216 17.5679 4.86171C16.3678 5.19809 15.028 5.7604 13.7118 6.47027C14.9645 9.16882 15.8055 12.4507 15.8055 14.6434C15.8055 17.5436 14.3593 20.1121 12.1504 21.6665C12.8523 21.8884 13.587 22.0033 14.3293 22.0033C14.6105 22.0033 14.8928 21.9869 15.1747 21.9539C16.9182 21.7494 18.5256 20.9173 19.7008 19.6109C21.0292 18.1343 22.5205 15.262 23.3274 12.6261C23.7922 11.1079 24.018 9.75255 23.9986 8.59779Z" fill="#191970"/>
<path d="M12.4712 7.02553C11.8013 5.58605 11.0627 4.42739 10.276 3.58191C9.29803 2.53097 8.27095 1.99805 7.22325 1.99805C6.17555 1.99805 5.14842 2.53097 4.17047 3.58191C3.38372 4.42744 2.64516 5.58605 1.97527 7.02553C0.81225 9.52486 0 12.6576 0 14.6438C0 18.6267 3.24033 21.867 7.22325 21.867C11.2062 21.867 14.4465 18.6267 14.4465 14.6438C14.4465 12.6576 13.6342 9.52481 12.4712 7.02553Z" fill="#191970"/>
</g>
<defs>
<clipPath id="clip0_3029_61421">
<rect width="24" height="24" fill="white"/>
</clipPath>
</defs>
</svg>
