<svg width="15" height="17" viewBox="0 0 15 17" fill="none" xmlns="http://www.w3.org/2000/svg">
<path d="M0.94943 12.2392L1.26116 11.996C1.31676 11.9528 1.38791 11.9345 1.4575 11.9457C1.52708 11.9569 1.58897 11.9964 1.62831 12.0548C1.71101 11.995 1.93812 11.8374 2.14146 11.6967C2.76158 11.2706 3.51673 10.7876 4.09684 10.5299C4.19282 10.5346 4.28845 10.5367 4.38321 10.5367H4.45805C5.97265 10.5162 6.15235 10.5367 6.15956 10.5367V10.5365C6.18683 10.5404 6.21201 10.5213 6.21585 10.494C6.21952 10.4668 6.20047 10.4416 6.17319 10.4377C6.16707 10.4377 6.00378 10.4159 4.45664 10.4377H4.40839C3.39575 10.4377 1.4042 10.0314 0.607471 9.39362C0.451693 9.26932 0.327909 9.0714 0.258673 8.83903C0.180696 8.57555 0.119328 8.04194 0.263044 7.63267C0.459208 7.13631 0.848386 6.6702 1.42236 6.24518C1.77815 5.98188 2.11888 5.69864 2.44288 5.39689C2.58607 5.26296 2.72926 5.12187 2.87035 4.97798C3.26671 4.57009 3.58648 4.18528 3.84402 3.87618C4.07567 3.59802 4.27551 3.35762 4.45487 3.19152V3.1917C4.71433 2.9555 5.01555 2.76999 5.34322 2.64413H5.34672C5.58799 2.54867 5.84183 2.48905 6.10044 2.46737C6.2258 2.45671 6.35185 2.46038 6.47651 2.47839C6.78439 2.52244 7.09788 2.45443 7.35976 2.28642C7.31605 2.18658 7.33318 2.03763 7.41448 1.80984C7.58599 1.33079 8.1409 1.03463 8.16646 1.02201V1.02218C8.36874 0.90487 8.5934 0.831614 8.82592 0.807311C8.76717 0.752062 8.72574 0.680906 8.70633 0.60258C8.66227 0.418827 8.74462 0.219167 8.84952 0.132087C9.00092 0.00707826 9.26265 -0.0350569 9.47174 0.0310324H9.47191C9.64518 0.0820831 9.7791 0.220031 9.82491 0.394864C9.90725 0.695582 9.77735 0.888587 9.65479 0.982488C10.3917 1.40419 10.5064 2.08953 10.5636 2.81492C10.5655 2.83677 10.5577 2.85827 10.5423 2.87366L10.4183 2.99727C10.3804 3.05601 10.1265 3.43803 9.87334 3.59626C9.81757 3.63123 9.759 3.66147 9.69815 3.68682C9.61861 3.72266 9.59465 3.73263 9.56283 3.81708L9.55636 3.83002L9.3831 4.11639V4.11657C9.37121 4.13615 9.35093 4.14926 9.32803 4.15206C9.30512 4.15486 9.28222 4.14681 9.26596 4.13055L9.10057 3.96516L8.66156 4.19332V4.19315C8.59739 4.26815 8.50491 4.31326 8.4063 4.31781H8.37938C8.22971 4.30347 8.10016 4.17462 7.99369 3.93247H7.99386C7.94264 3.8475 7.88039 3.76953 7.80872 3.70081C7.65976 3.76498 7.50345 3.81026 7.34332 3.83544C7.72639 4.52654 7.77936 5.05893 7.81136 5.38289L7.81118 5.38307C7.81643 5.4537 7.82552 5.52415 7.83845 5.59391C7.87028 5.73168 8.025 6.16511 8.17431 6.584C8.3154 6.9779 8.46069 7.38789 8.51297 7.57337C8.55126 7.71202 8.62608 7.83912 8.71245 7.98651C8.8511 8.22253 9.02366 8.51608 9.12279 8.99163C9.1707 9.22329 9.26424 9.57384 9.39956 10.034L11.7611 10.0338C12.1294 10.0342 12.4751 10.2115 12.6903 10.5104L14.4999 13.0275C14.5728 13.1002 14.6333 13.1843 14.6789 13.2765L14.6817 13.2819V13.2817C14.7329 13.3868 14.7642 13.5002 14.7742 13.6165L14.9997 16.2268C15.0015 16.2478 14.9945 16.2684 14.9803 16.2838C14.9662 16.2993 14.9462 16.3081 14.9253 16.3081L8.82925 16.2523C8.82156 16.2521 8.81386 16.2506 8.80669 16.2479H8.80232C8.79551 16.2455 8.78904 16.2418 8.78344 16.2373L8.78029 16.2345L8.77348 16.2284L8.7733 16.2282C8.77103 16.2252 8.76876 16.2219 8.76701 16.2186C8.76613 16.2179 8.76561 16.217 8.76508 16.2161C8.76141 16.2093 8.75862 16.2021 8.75687 16.1946V16.1922L8.56577 15.1361C8.56455 15.1286 8.56455 15.1211 8.56577 15.1136L8.83502 12.9846H8.32326C8.31679 12.9845 8.31049 12.9836 8.30438 12.982L8.29686 12.9796C8.29074 12.9775 8.28497 12.9745 8.2799 12.9707L8.27413 12.9659H8.2743C8.26888 12.9614 8.26416 12.9561 8.26032 12.9502V12.9465C8.25612 12.9397 8.25315 12.932 8.25175 12.924L8.10017 12.1306V12.1094L8.28777 10.1698C7.91292 9.41539 7.37583 8.21337 7.17773 7.68187C7.10605 7.49253 7.01234 7.22329 6.91233 6.93814C6.84065 6.73445 6.76162 6.50839 6.68277 6.28861C6.59256 6.43827 6.42576 6.65314 6.16998 6.7472C5.97801 6.81888 5.77118 6.80874 5.55264 6.71922C5.55264 6.79877 5.55264 6.91189 5.54687 7.04442C5.52903 7.46192 5.46137 8.02296 5.24143 8.32561L5.24178 8.32578C5.23059 8.34134 5.2187 8.3562 5.20594 8.37054C4.38808 8.08154 3.58276 7.85672 3.00739 7.70983C2.96806 7.6551 2.62818 7.18849 2.41731 7.08286C2.39301 7.07254 2.36468 7.08286 2.35279 7.10664C2.34091 7.13041 2.34965 7.15926 2.37255 7.17238C2.51574 7.24406 2.73778 7.5189 2.85423 7.6712C2.44355 7.56875 2.18251 7.51333 2.17396 7.51123C2.14686 7.50564 2.12046 7.52294 2.11487 7.54987C2.10927 7.57679 2.12658 7.60337 2.15351 7.60896C2.18935 7.61648 5.56539 8.33296 7.35615 9.45799C7.46 9.54069 7.69918 9.78598 7.66264 10.2759C7.6219 10.8304 6.91397 11.3142 5.4982 11.7546C5.16776 11.8578 4.86653 11.9452 4.60129 12.0221C3.87868 12.2319 3.35211 12.3852 2.81098 12.6688C2.80417 12.8345 2.80381 13.4662 3.17412 13.6638C3.63132 13.9077 3.84651 14.0559 3.84651 14.3624C3.84651 14.4785 3.76102 14.603 3.618 14.6951V14.6949C3.45156 14.7972 3.25907 14.849 3.06377 14.8439C2.71637 14.8439 2.38927 14.7124 2.26283 14.6552C2.16562 14.6103 2.07593 14.551 1.99638 14.4794C1.82487 14.3276 1.50369 14.0271 1.2752 13.722C1.15019 13.5552 1.03847 13.4982 0.918885 13.4323L0.836539 13.3782C0.351724 12.9948 0.442636 12.7338 0.445259 12.7175C0.509423 12.3507 0.949499 12.239 0.949499 12.239L0.94943 12.2392ZM7.76201 3.55711C7.8003 3.53665 7.88981 3.48945 8.12287 3.85607L8.12864 3.86709C8.20924 4.05154 8.30295 4.15819 8.39246 4.16781C8.47271 4.17532 8.54142 4.10592 8.55139 4.09193H8.55156C8.55821 4.08179 8.56747 4.07357 8.57831 4.06798L9.07956 3.80695H9.07973C9.10858 3.79191 9.14407 3.79733 9.16697 3.82059L9.30334 3.95731L9.42485 3.75835C9.47888 3.6197 9.54916 3.58893 9.63763 3.54995H9.63745C9.69165 3.52722 9.7441 3.50029 9.79393 3.46935C10.0335 3.31934 10.2952 2.91372 10.2952 2.90934C10.2962 2.90829 10.2971 2.90724 10.2978 2.90619C10.1317 2.84395 9.82327 2.72716 9.73604 2.68782C9.60963 2.63083 9.52117 2.65565 9.39406 2.68782V2.68765C9.31189 2.71265 9.22727 2.72873 9.1416 2.73572C8.87375 2.75146 8.65173 2.61037 8.57076 2.46246C8.56831 2.45809 8.56639 2.45354 8.56517 2.44882C8.56499 2.44672 8.56499 2.44462 8.56517 2.44235C8.56482 2.43973 8.56482 2.4371 8.56517 2.43448C8.56464 2.42959 8.56464 2.42452 8.56517 2.41945C8.56919 2.38151 8.56167 2.29986 8.52758 2.27626C8.50537 2.26017 8.46202 2.26367 8.40519 2.28657H8.40502C8.38334 2.30336 8.36323 2.32224 8.34523 2.34287C8.2613 2.43116 8.22546 2.5546 8.24924 2.67401C8.25221 2.67942 8.25554 2.6845 8.25938 2.68904C8.27599 2.67523 8.29033 2.65845 8.30117 2.63974C8.31376 2.62033 8.33439 2.60792 8.35746 2.60582C8.38037 2.60389 8.40292 2.61246 8.41866 2.62925C8.44261 2.6567 8.44453 2.69691 8.42338 2.72628C8.37215 2.80321 8.31603 2.84202 8.25764 2.84202H8.25746C8.25292 2.84237 8.2482 2.84237 8.24347 2.84202C8.15291 2.83275 8.11235 2.73642 8.10815 2.72523C8.10815 2.72173 8.10571 2.71771 8.10466 2.71422C8.07441 2.57855 8.10011 2.43658 8.17617 2.32031C8.11287 2.29706 8.01567 2.27625 7.93087 2.32206H7.93105C7.87737 2.35265 7.82055 2.37661 7.76128 2.39374C7.70638 2.40913 7.64991 2.41752 7.59292 2.41874C7.57491 2.41874 7.55673 2.41752 7.53889 2.4149C7.51407 2.4114 7.48994 2.40441 7.46721 2.39409C7.46459 2.39689 7.46179 2.39969 7.45864 2.40196C7.22821 2.55582 6.95776 2.63921 6.68062 2.64183C6.9614 2.7894 7.1401 2.98626 7.18799 3.07543C7.30758 3.29887 7.31265 3.55621 7.30478 3.68982V3.68999C7.46231 3.66604 7.61599 3.62128 7.76198 3.55711L7.76201 3.55711ZM9.94395 12.7669C9.99727 12.7578 10.0511 12.7531 10.1051 12.7531H13.8573C13.922 12.7529 13.9865 12.7594 14.05 12.7727L12.6625 10.7234C12.4355 10.3876 12.0563 10.1862 11.6508 10.1864H9.4745C9.60912 10.636 9.74847 11.074 9.82259 11.3043C9.85144 11.3943 9.91858 11.4669 10.006 11.5027C10.1513 11.5628 10.3842 11.6534 10.6674 11.7401L11.7218 11.8679C11.7963 11.8769 11.8589 11.9284 11.8818 12.0001C11.9047 12.0106 11.9253 12.0255 11.9426 12.0436C11.9923 12.0977 12.0052 12.176 11.9757 12.2431C11.9461 12.3103 11.8797 12.3536 11.8063 12.3534H11.6307H11.6309C11.6155 12.4624 11.5223 12.5433 11.4124 12.5435H10.6002C10.4707 12.5435 10.3424 12.5178 10.2229 12.4676L9.65475 12.2298L9.94395 12.7669ZM8.80106 12.8349L8.47482 11.6459L8.40313 12.8349H8.80106ZM6.22941 5.12808C6.19829 5.06182 6.17137 5.01094 6.14881 4.97335L6.14899 4.97353C6.12748 4.93804 6.13902 4.89206 6.17434 4.87072C6.20983 4.84939 6.25581 4.86076 6.27714 4.89608C6.32243 4.97493 6.36334 5.05622 6.39953 5.13962C6.49306 5.34837 6.60898 5.64628 6.76441 6.07676C6.86249 6.34705 6.96354 6.63502 7.05271 6.8892C7.15219 7.17348 7.24643 7.44169 7.31689 7.62963C7.51637 8.16166 8.05767 9.37344 8.43113 10.1224C8.546 10.3534 8.63744 10.5256 8.70282 10.6342C8.9072 10.9748 9.09375 11.4159 9.21458 11.7259H9.21476C9.26389 11.8528 9.36249 11.9542 9.48785 12.0073L10.2515 12.3264L10.2517 12.3262C10.3526 12.3689 10.4611 12.3908 10.5706 12.3904H11.3827C11.4137 12.3902 11.4409 12.3703 11.4504 12.3409L10.9395 12.2761V12.2762C10.8984 12.271 10.8694 12.2336 10.8745 12.1925C10.8797 12.1516 10.9171 12.1224 10.958 12.1276L11.5338 12.1993H11.7766V12.1991C11.7964 12.1991 11.8124 12.1832 11.8124 12.1633C11.8123 12.1549 11.8091 12.1469 11.8035 12.1404C11.7972 12.1338 11.7887 12.1296 11.7794 12.1287C11.3797 12.0846 10.9851 12.0014 10.6016 11.8806C10.3064 11.7904 10.0689 11.6984 9.92129 11.6374H9.92111C9.79365 11.5841 9.69575 11.4778 9.65326 11.3463C9.50745 10.8952 9.38034 10.4852 9.27475 10.1289C9.12946 9.63834 9.0298 9.26559 8.97858 9.02099C8.88469 8.56939 8.72786 8.29945 8.58467 8.06098C8.49306 7.90451 8.41351 7.76954 8.3698 7.61238C8.31962 7.43335 8.17468 7.02614 8.03464 6.63348C7.87676 6.19097 7.72745 5.77418 7.69371 5.62625H7.69406C7.67937 5.55037 7.66906 5.4738 7.66364 5.39669C7.62343 4.83409 7.44964 4.28894 7.15698 3.80658V3.80484C7.12656 3.75291 7.09439 3.70099 7.06204 3.65046C7.03984 3.61794 7.04526 3.57406 7.07463 3.54765C7.09736 3.52895 7.12918 3.52563 7.15558 3.53909C7.15138 3.40219 7.11729 3.26774 7.05592 3.14536C6.99438 3.03014 6.64087 2.67733 6.10746 2.61614C5.86794 2.63695 5.63263 2.69219 5.40884 2.78049C4.97455 3.10883 4.74428 3.4536 4.72525 3.80553C4.70235 4.22583 4.98873 4.58758 5.23334 4.81714C5.67603 5.23343 6.0743 5.17521 6.22956 5.12818L6.22941 5.12808ZM2.94813 5.73074C3.1894 5.92376 4.81364 7.75482 5.16995 8.15728C5.29024 7.93664 5.36839 7.56827 5.39374 7.1006C5.09198 7.02892 3.81831 6.63521 2.94272 5.11694C2.83135 5.23076 2.71823 5.34177 2.60476 5.44877C2.67068 5.50455 2.78746 5.60228 2.94831 5.73078L2.94813 5.73074ZM1.79195 12.6633L1.80262 12.6755L1.9458 12.8788C2.0278 12.732 2.1946 12.5738 2.47941 12.5426H2.47958C2.27642 12.386 2.14617 12.1533 2.11855 11.8982L1.73426 12.1678H1.73444C1.7187 12.1788 1.70244 12.189 1.68566 12.1982C1.63915 12.2217 1.60471 12.2638 1.59125 12.3143C1.57254 12.4024 1.64247 12.5224 1.79213 12.6635L1.79195 12.6633Z" fill="#191970"/>
</svg>
