<svg width="24" height="24" viewBox="0 0 24 24" fill="none" xmlns="http://www.w3.org/2000/svg">
<path d="M8.65383 21.4752C10.763 23.4651 13.8674 24.6399 16.569 23.6328C18.5123 22.9135 19.9577 21.1635 20.7161 19.2215C21.4746 17.2796 21.6404 15.1459 21.5929 13.0601C21.5457 10.8546 21.2375 9.27227 19.0337 6.97059C16.9009 4.78888 15.3842 3.30251 12.8485 2.67917C10.3127 2.05583 7.5401 2.48735 5.31248 3.87789C4.29355 4.50118 3.36916 5.36426 2.87158 6.44324C2.30279 7.66589 2.30279 9.08051 2.58726 10.375C2.87158 11.6937 3.46404 12.9163 4.03284 14.115C5.26501 16.7762 6.54462 19.4613 8.65396 21.4752L8.65383 21.4752ZM4.29338 7.52209C4.71986 6.61102 5.50194 5.89191 6.35507 5.36448C8.2273 4.18969 10.5733 3.80605 12.7062 4.33349C14.5782 4.78905 16.0713 5.86785 17.6117 7.4982C17.6827 7.57011 17.6827 7.69002 17.6117 7.76193C17.1613 8.24137 16.9007 8.91266 16.8771 9.75181C16.8534 10.2792 16.9007 10.8067 16.9718 11.3101C17.0192 11.6457 17.0429 11.9574 17.0665 12.2689C17.1139 13.18 16.9243 13.8752 16.5215 14.3308C16.1897 14.7144 15.6684 14.9301 15.147 15.1699C14.9338 15.2658 14.7205 15.3618 14.5071 15.4576C14.2701 15.5775 14.0094 15.7452 13.7725 15.937C13.6778 16.0089 13.7014 16.1768 13.7961 16.2487C13.9147 16.3207 14.0332 16.3926 14.1754 16.4406L14.2464 16.4645C14.3175 16.4884 14.3886 16.4884 14.436 16.4406C14.5782 16.3447 14.7204 16.2487 14.8625 16.1768C15.0521 16.081 15.2654 15.985 15.4786 15.9131C16.0711 15.6494 16.6872 15.3857 17.1375 14.8823C17.6825 14.259 17.9195 13.3959 17.872 12.2691C17.8484 11.9335 17.8246 11.5978 17.7773 11.2622C17.7299 10.7586 17.6588 10.3033 17.6826 9.82365C17.7062 9.22429 17.8722 8.74484 18.1565 8.4092C18.2276 8.31337 18.3698 8.33729 18.4409 8.4092C19.8153 9.99155 20.0761 11.3341 20.0997 13.1322C20.1233 14.8823 20.005 16.6803 19.3651 18.3346C18.7252 19.9648 17.493 21.4272 15.8815 22.0507C13.6064 22.9138 10.976 21.9069 9.19861 20.2287C7.39776 18.4782 6.30778 16.2246 5.26502 13.9949C4.7911 12.9641 4.29336 11.9331 4.05646 10.8302C3.79561 9.72745 3.81942 8.55266 4.29335 7.52185L4.29338 7.52209Z" fill="#191970"/>
<path d="M7.60905 11.6473C7.60905 11.6473 9.12572 12.6062 8.95992 13.5173C8.91248 13.781 8.88884 14.0448 8.88884 14.3085C8.95992 15.3873 9.33915 17.7608 11.3772 19.2232C11.4008 19.2471 11.4246 19.2471 11.4483 19.2712C11.7089 19.535 13.7944 21.4529 16.1405 18.7438C16.1641 18.7199 16.1641 18.7199 16.1879 18.6958L17.2069 17.7606L17.2305 17.7367C17.3727 17.6168 18.6525 16.538 18.7708 15.4831C18.8655 14.5242 18.6286 14.0926 18.0598 14.4043C17.8938 14.5001 17.8466 14.6919 17.7755 14.8598C16.7565 18.0245 13.7468 17.1853 12.8463 15.9627C12.5856 15.6032 12.7988 15.0757 13.2491 15.0277C13.723 14.9797 14.1497 14.8598 14.5762 14.6682C14.5998 14.6443 14.6236 14.6443 14.6473 14.6202C14.9316 14.4284 16.5431 13.2777 15.7136 12.2947C15.7136 12.2947 15.4293 11.7911 15.1923 12.4865C15.1923 12.4865 14.4577 15.1476 12.4907 13.5414C12.4196 13.4934 12.3485 13.4456 12.2774 13.3976C12.1353 13.3018 11.9457 13.1338 12.1589 12.8701C12.23 12.7982 12.3249 12.7502 12.4196 12.7022C12.8699 12.5584 14.4813 11.935 13.2727 10.3287C13.1542 10.1608 13.1306 9.9451 13.2017 9.7533C13.4387 9.13 13.7467 7.66756 11.9693 6.39696C11.9457 6.39696 11.9457 6.37305 11.9219 6.37305C11.6612 6.20514 8.98326 4.69488 6.85048 7.28412C6.87445 7.33195 4.59954 9.58558 7.60907 11.6475L7.60905 11.6473Z" fill="#191970"/>
</svg>
