<svg width="24" height="24" viewBox="0 0 24 24" fill="none" xmlns="http://www.w3.org/2000/svg">
<path d="M10.668 6.68754C10.3169 6.61421 9.97315 6.51037 9.64062 6.37713C10.1193 7.47507 10.9808 9.52412 11.5695 11.3432C11.775 11.9791 11.9351 12.6282 12.0484 13.286C12.154 12.7165 12.2933 12.1535 12.4658 11.5999C13.0562 9.70842 13.9557 7.46326 14.4253 6.32617C12.8918 6.9404 11.5618 6.87514 10.668 6.68768L10.668 6.68754Z" fill="#191970"/>
<path d="M22.2342 3.72248C21.5916 3.51627 20.8918 3.57214 20.2911 3.87741C20.2727 3.88679 18.4333 4.79046 15.722 4.4692C15.1401 3.986 14.4201 3.69326 13.6618 3.6313C13.5527 3.62248 13.4416 3.61145 13.3319 3.61145H10.6927C10.583 3.61145 10.4718 3.62248 10.3627 3.6313C9.60669 3.69177 8.88811 3.98215 8.30684 4.46238C5.59224 4.79173 3.72784 3.88475 3.71013 3.87572C2.925 3.47947 1.98767 3.51145 1.23238 3.96045C0.477088 4.40926 0.0110233 5.2113 0.000185744 6.08045C-0.0104446 6.94978 0.435838 7.76247 1.17996 8.22929C1.09025 8.75347 1.27171 9.28696 1.66354 9.65216C2.05537 10.0172 2.60627 10.1657 3.1322 10.048C3.65814 9.9306 4.08987 9.5623 4.28342 9.06626C4.477 8.57022 4.40707 8.01169 4.09674 7.57724C3.78641 7.14258 3.27652 6.88895 2.73736 6.90109C2.1982 6.91322 1.70082 7.18945 1.41083 7.63751C0.88714 7.25836 0.593618 6.64396 0.630332 6.00456C0.667258 5.36516 1.02962 4.78753 1.59359 4.4692C2.15756 4.15086 2.84645 4.13507 3.42476 4.42711C3.49488 4.4624 4.90665 5.15732 7.10243 5.15713C7.28482 5.15713 7.47318 5.15198 7.66603 5.14169C7.60262 5.22752 7.54239 5.31647 7.48531 5.40855V5.40874C6.82193 6.48259 6.7179 7.80402 7.20539 8.9661C7.20893 8.97455 7.21285 8.98282 7.21732 8.99109L9.80345 13.8395V13.8394C9.60744 14.1615 9.55784 14.55 9.66656 14.9099C9.77528 15.27 10.0325 15.5684 10.3753 15.7325L10.7785 19.6575C10.8005 19.8591 10.8976 20.0453 11.0511 20.1802C11.2046 20.3151 11.4036 20.3889 11.6093 20.3875H12.4155H12.4153C12.6216 20.3882 12.8209 20.3141 12.9753 20.1796C13.1299 20.0451 13.229 19.8593 13.2536 19.6576V19.6604L13.6812 15.718C14.0111 15.55 14.2569 15.2563 14.3614 14.9051C14.4658 14.5539 14.4195 14.176 14.2338 13.8592L16.8082 8.99005C16.8123 8.98215 16.8158 8.97443 16.8194 8.96616H16.8192C17.3067 7.80427 17.2026 6.48284 16.5391 5.4088C16.4824 5.31709 16.4225 5.22869 16.3593 5.14323C18.8604 5.27188 20.5002 4.46543 20.5761 4.42718H20.5763C21.1546 4.13515 21.8437 4.15095 22.4075 4.46927C22.9714 4.78759 23.3338 5.36542 23.3705 6.00501C23.4073 6.64441 23.1135 7.25878 22.5897 7.63796C22.3066 7.20036 21.8251 6.92614 21.2992 6.90281C20.773 6.87947 20.2686 7.10993 19.9467 7.52071C19.625 7.93129 19.5264 8.47068 19.6823 8.9664C19.8382 9.46188 20.2292 9.85168 20.7304 10.0108C21.2677 10.1816 21.8566 10.0636 22.2837 9.6997C22.7109 9.3358 22.9144 8.77856 22.8206 8.22978C23.3674 7.88665 23.7609 7.35108 23.9211 6.7321C24.0811 6.11312 23.9959 5.45715 23.6824 4.89811C23.3689 4.33907 22.851 3.91854 22.2341 3.72263L22.2342 3.72248ZM15.312 5.8294C15.2978 5.86248 13.8805 9.16916 13.0646 11.7835C12.7292 12.862 12.5245 13.9757 12.4546 15.1016L12.3251 17.1633V17.1635C12.3151 17.3265 12.1782 17.4539 12.0122 17.4544H12.0086C11.8414 17.4526 11.705 17.3213 11.6993 17.1567L11.6198 15.1815C11.5711 13.9421 11.3533 12.7147 10.9723 11.5324C10.1331 8.93958 8.72951 5.86673 8.71538 5.83568C8.65738 5.70905 8.69262 5.55981 8.80117 5.47123C8.9097 5.38246 9.06487 5.37621 9.1805 5.45579C9.18777 5.46094 9.81457 5.8842 10.8259 6.09077C12.1749 6.36609 13.5372 6.14628 14.8751 5.43721C14.9922 5.37509 15.1364 5.39255 15.2347 5.48095C15.3329 5.56917 15.3639 5.70903 15.3121 5.82959L15.312 5.8294Z" fill="#191970"/>
<path d="M20.8967 18.2113L19.8946 16.5256H19.8948C19.8385 16.4311 19.7356 16.373 19.6244 16.373C19.5133 16.373 19.4103 16.4311 19.354 16.5256L18.352 18.2113H18.3522C18.2544 18.3752 18.1906 18.5564 18.1642 18.7444C18.1013 19.196 18.2557 19.6503 18.5819 19.9734C18.7442 20.1342 18.9428 20.255 19.1616 20.3259C19.3117 20.3748 19.4689 20.3998 19.6271 20.4C19.9745 20.3989 20.3105 20.2772 20.5757 20.0561C20.8411 19.835 21.0187 19.5288 21.0774 19.1914C21.1362 18.854 21.0722 18.5068 20.8967 18.2113L20.8967 18.2113Z" fill="#191970"/>
<path d="M17.6754 13.4943C17.6191 13.3999 17.5161 13.3418 17.405 13.3418C17.2938 13.3418 17.1909 13.3999 17.1345 13.4943L16.3457 14.8213L16.3459 14.8215C16.2646 14.9578 16.2112 15.1087 16.1892 15.2653C16.1368 15.6412 16.2655 16.0194 16.5369 16.2883C16.8209 16.5674 17.2252 16.6924 17.62 16.6227C18.015 16.5531 18.3504 16.2978 18.5186 15.9389C18.6866 15.5801 18.6661 15.1629 18.4637 14.8216L17.6754 13.4943Z" fill="#191970"/>
<path d="M22.1129 13.4943C22.0565 13.3999 21.9536 13.3418 21.8424 13.3418C21.7313 13.3418 21.6284 13.3999 21.572 13.4943L20.7833 14.8215C20.702 14.9578 20.6487 15.1087 20.6267 15.2653C20.5744 15.6412 20.7029 16.0194 20.9745 16.2883C21.2583 16.5674 21.6628 16.6924 22.0577 16.6228C22.4525 16.5531 22.7878 16.2978 22.956 15.9389C23.124 15.5801 23.1037 15.1629 22.9014 14.8217L22.1129 13.4943Z" fill="#191970"/>
</svg>
