<svg width="24" height="24" viewBox="0 0 24 24" fill="none" xmlns="http://www.w3.org/2000/svg">
<path fill-rule="evenodd" clip-rule="evenodd" d="M6.27467 1.42071L6.08933 1.64221L6.10633 3.2458L6.12334 4.84939L9.60185 4.86633C11.515 4.87566 13.1233 4.86354 13.1759 4.83946C13.2571 4.8022 13.2714 4.55881 13.2714 3.21743V1.6392L13.0873 1.41921L12.9033 1.19922H9.68164H6.46002L6.27467 1.42071ZM6.05872 5.80897C6.04266 5.86075 6.02232 6.66289 6.01344 7.59154L5.99738 9.2801L5.7136 9.3665C5.31796 9.48707 5.17884 9.5889 4.97656 9.9059L4.80078 10.1813V15.192V20.2027L5.03475 20.7882C5.42068 21.7541 6.09071 22.4246 6.94206 22.6968C7.16016 22.7665 7.69138 22.7977 8.67058 22.7983L10.0842 22.7992L9.8042 22.583C9.65021 22.4641 9.4148 22.2302 9.2811 22.0633L9.038 21.7599L8.11599 21.7495C7.27591 21.7401 7.16318 21.7224 6.84759 21.5503C6.42116 21.3178 6.07113 20.924 5.85026 20.4285C5.68601 20.0601 5.68204 20.0185 5.66227 18.4529L5.64205 16.8536H10.118H14.594V13.6099C14.594 10.7365 14.582 10.336 14.4889 10.1015C14.3554 9.76531 13.9782 9.43664 13.655 9.37493C13.5173 9.34859 13.3844 9.28793 13.3597 9.24014C13.335 9.19242 13.321 8.47021 13.3286 7.63542C13.3361 6.80054 13.3233 6.02693 13.3001 5.91622L13.2578 5.7149H9.67282C6.86246 5.7149 6.08158 5.73522 6.05872 5.80897ZM12.4527 8.17444C12.4812 9.48143 12.4965 9.63767 12.6141 9.8256C12.8096 10.1382 13.0264 10.3047 13.3044 10.3559C13.6808 10.4252 13.7123 10.483 13.7123 11.1053V11.6605H9.68164H5.651V11.1053C5.651 10.4854 5.6833 10.425 6.05047 10.3575C6.18361 10.3331 6.38911 10.225 6.50713 10.1174C6.88204 9.7757 6.91057 9.63579 6.91057 8.13952C6.91057 7.39932 6.92978 6.77074 6.95321 6.74267C6.9767 6.71467 8.21656 6.70052 9.70853 6.71136L12.4212 6.73093L12.4527 8.17444ZM10.5535 17.484C9.93374 17.752 9.5623 18.1393 9.25307 18.8399C9.10161 19.1831 9.08347 19.305 9.08347 19.9769C9.08347 20.6547 9.10085 20.769 9.25874 21.1272C9.47406 21.6157 9.85779 22.0708 10.2778 22.3358L10.5948 22.5358L13.9794 22.5577C16.1267 22.5716 17.4505 22.5517 17.6007 22.5034C18.2457 22.2956 18.8934 21.5702 19.1023 20.8218C19.2457 20.3078 19.2311 19.5424 19.0677 19.022C18.9008 18.4901 18.4644 17.9251 17.9948 17.6333L17.6485 17.418L14.2161 17.4013C11.4993 17.3879 10.7358 17.4052 10.5535 17.484ZM14.0272 19.9769V21.5198L12.4685 21.5181C10.7044 21.5162 10.5647 21.4814 10.1995 20.9519C9.68454 20.2053 9.8889 19.0454 10.6164 18.5862C10.826 18.4538 10.9899 18.4404 12.437 18.4374L14.0272 18.4341V19.9769Z" fill="#191970"/>
</svg>
