<svg width="22" height="26" viewBox="0 0 22 26" fill="none" xmlns="http://www.w3.org/2000/svg">
<path d="M3.96117 3.81787C5.61854 3.23514 7.88091 3.12896 9.29457 4.37449C10.1978 5.17134 10.3729 6.44604 10.038 7.57146C9.7398 8.57981 8.89024 9.1991 8.31463 10.0268C7.54773 11.1318 8.30185 12.2028 8.61884 13.3252C9.31758 15.8032 8.23539 18.2978 5.41616 18.0523C2.08098 17.7625 0.752953 13.7639 0.41381 10.9151C0.0644425 7.97576 1.27743 4.76182 3.96117 3.81787ZM9.70955 3.64641C10.5485 3.9802 11.5309 3.45666 11.9046 2.47746C12.2783 1.49827 11.9003 0.432034 11.0614 0.0999779C10.2225 -0.232078 9.24003 0.289725 8.86681 1.26936C8.49358 2.24899 8.87107 3.31261 9.70955 3.64641ZM8.45225 1.6445C8.48889 1.02521 8.0884 0.496879 7.55753 0.464239C7.02666 0.431599 6.56822 0.9064 6.53371 1.52569C6.4992 2.14497 6.89757 2.6733 7.42843 2.70594C7.9593 2.73858 8.41561 2.26291 8.45097 1.64363L8.45225 1.6445ZM6.01733 1.53787C5.9662 0.922067 5.49754 0.459887 4.97008 0.505583C4.44262 0.551279 4.05618 1.08657 4.10731 1.70238C4.15844 2.31818 4.62753 2.78036 5.15499 2.73467C5.68245 2.68897 6.06846 2.15281 6.01733 1.537V1.53787ZM3.61095 2.01659C3.42391 1.46911 2.89262 1.16099 2.42395 1.32811C1.95529 1.49522 1.7265 2.07404 1.91268 2.62108C2.09887 3.16812 2.63102 3.47668 3.09968 3.30956C3.56835 3.14245 3.79757 2.56059 3.61095 2.01354V2.01659ZM0.0627387 3.84442C0.242535 4.37058 0.753379 4.66738 1.20415 4.50636C1.65492 4.34533 1.87476 3.78915 1.69497 3.26256C1.51517 2.73597 1.00433 2.44004 0.553559 2.60063C0.102789 2.76121 -0.117058 3.31261 0.0627387 3.83963V3.84442ZM18.0215 11.9261C16.4144 11.2115 14.1665 10.9251 12.6621 12.051C11.6988 12.7725 11.4266 14.0302 11.6737 15.1783C11.8952 16.2075 12.692 16.893 13.2019 17.7651C13.8836 18.928 13.0469 19.9337 12.6442 21.0291C11.7563 23.4436 12.6408 26.0169 15.4716 25.9999C18.8191 25.9795 20.4518 22.1001 21.0103 19.287C21.5851 16.3799 20.6239 13.0785 18.0215 11.9213V11.9261ZM13.3281 8.98498C13.0298 7.9788 12.0925 7.3778 11.2306 7.64283C10.3687 7.90787 9.9098 8.93842 10.208 9.94459C10.5063 10.9508 11.4436 11.5522 12.3055 11.2872C13.1674 11.0221 13.6246 9.99159 13.3281 8.98498ZM14.6535 10.5334C15.1848 10.5434 15.6245 10.049 15.636 9.42888C15.6475 8.80873 15.2262 8.29737 14.6949 8.28736C14.1636 8.27735 13.7239 8.77173 13.7124 9.39189C13.7009 10.012 14.1222 10.5234 14.6535 10.5334V10.5334ZM16.915 10.7454C17.4374 10.8324 17.9406 10.4103 18.039 9.80054C18.1374 9.19083 17.794 8.62551 17.2721 8.53847C16.7502 8.45143 16.2466 8.87314 16.1481 9.48328C16.0497 10.0934 16.3931 10.6574 16.915 10.7454V10.7454ZM18.9175 11.4808C19.3721 11.6849 19.9256 11.4208 20.1531 10.8903C20.3806 10.3598 20.1983 9.76399 19.7441 9.55988C19.2899 9.35577 18.736 9.61994 18.5085 10.1504C18.281 10.6809 18.4633 11.2767 18.9188 11.4808H18.9175ZM21.5118 10.9773C21.0747 10.781 20.5425 11.0352 20.3227 11.5457C20.1028 12.0562 20.2801 12.6285 20.7159 12.8252C21.1518 13.0219 21.6852 12.7673 21.905 12.2568C22.1249 11.7463 21.9502 11.174 21.5131 10.9773H21.5118Z" fill="#191919" fill-opacity="0.08"/>
</svg>
