<svg width="13" height="11" viewBox="0 0 13 11" fill="none" xmlns="http://www.w3.org/2000/svg">
<path d="M12.5642 1.46106C10.8637 -1.16816 7.46289 0.0811528 6.65398 2.60195C6.39674 2.11184 6.0387 1.68351 5.60409 1.34595C5.16948 1.0084 4.66845 0.769503 4.13492 0.645437C2.60939 0.327565 1.02557 1.24176 0.362404 2.64138C-1.36717 6.29814 3.48876 10.3492 6.59325 10.9948C6.87503 11.0514 7.09609 10.6325 6.80215 10.4896C4.458 9.35119 1.72032 7.68298 1.00614 4.93301C0.908675 4.57381 0.883907 4.19831 0.933343 3.82915C0.982779 3.45998 1.10539 3.10478 1.29378 2.78497C1.48218 2.46516 1.73246 2.18735 2.02953 1.96829C2.32661 1.74923 2.66434 1.59345 3.02236 1.51034C4.76893 1.11855 5.65801 2.58717 6.19243 3.97447C6.21797 4.05635 6.27117 4.12647 6.34267 4.17246C6.41417 4.21845 6.49938 4.23737 6.58329 4.22589C6.66719 4.2144 6.74441 4.17325 6.80133 4.10967C6.85826 4.0461 6.89124 3.96419 6.89446 3.87837C6.93544 3.86411 6.97191 3.83901 7.0001 3.80565C7.02829 3.77229 7.04717 3.73189 7.05479 3.68863C7.31714 2.31612 8.23537 0.862278 9.77547 0.812995C11.6945 0.751392 12.5714 2.67588 11.8476 4.29234C11.3399 5.43077 10.5407 6.49034 9.76089 7.44889C8.94712 8.44686 7.89771 9.23045 7.1058 10.2284C7.04951 10.2914 7.01687 10.3725 7.01359 10.4575C7.01031 10.5425 7.0366 10.6259 7.08787 10.6932C7.13913 10.7605 7.2121 10.8073 7.29399 10.8255C7.37587 10.8437 7.46146 10.8321 7.53576 10.7927C9.21432 9.88098 10.6062 7.92939 11.6435 6.35728C12.5642 4.92316 13.6087 3.09724 12.5642 1.46106Z" fill="#F5A5C7"/>
</svg>
