<svg width="24" height="24" viewBox="0 0 24 24" fill="none" xmlns="http://www.w3.org/2000/svg">
<path fill-rule="evenodd" clip-rule="evenodd" d="M3.28928 20.4375C3.42261 19.7344 3.60039 19.4531 3.9115 19.0781C4.04483 18.8906 4.17817 18.6562 4.35595 18.3281C5.95595 15.2344 4.84483 12.4219 3.73372 9.70312C3.02261 7.96875 2.40039 6.32812 2.40039 4.6875V0.328125C2.40039 0.140625 2.53372 0 2.7115 0H8.88928C8.97817 0 9.06706 0.046875 9.15595 0.140625C9.15595 0.1875 10.4004 2.0625 11.6893 2.4375C12.4004 2.625 13.0226 3.1875 13.4226 3.9375C13.8226 4.78125 13.8671 5.76562 13.5559 6.5625C13.0671 7.82812 14.0004 8.0625 15.2004 8.4375V8.625C15.2004 10.6875 16.8004 12.3281 18.7115 12.3281C18.9337 12.3281 19.1115 12.3281 19.3337 12.2812C19.4226 12.7969 19.5115 13.4062 19.5115 14.1094C19.5115 17.7188 17.3782 19.0781 15.0226 20.0156C14.8448 20.1094 14.7115 20.25 14.6226 20.4375H14.2671H14.0004H3.64483H3.55595H3.28928ZM15.5115 14.7656C15.2893 14.7656 15.0671 14.7188 14.8448 14.5781C14.5337 14.3906 14.2671 14.0625 14.1782 13.6875C14.0893 13.3125 14.1337 12.9375 14.3115 12.5625C14.5782 12.1406 15.0226 11.8594 15.5115 11.8594C15.7782 11.8594 16.0004 11.9062 16.2226 12.0469H16.2671C16.5782 12.2344 16.8004 12.5625 16.8893 12.9375C16.9782 13.3125 16.9337 13.6875 16.7559 14.0625C16.4893 14.4844 16.0448 14.7656 15.5115 14.7656ZM15.5115 12.5156C15.2448 12.5156 15.0226 12.6562 14.8448 12.8906C14.7559 13.0781 14.7559 13.3125 14.8004 13.5469C14.8448 13.7344 14.9782 13.9219 15.1559 14.0156C15.2448 14.1094 15.3782 14.1094 15.5115 14.1094C15.8226 14.1094 16.0448 13.9688 16.1782 13.7344C16.3115 13.5469 16.3115 13.3125 16.2671 13.125C16.2226 12.8906 16.0893 12.7031 15.9115 12.6094C15.7782 12.5625 15.6893 12.5156 15.5115 12.5156ZM13.5559 19.3594C12.7115 19.3594 11.9115 18.2812 11.4671 17.6719C11.4226 17.5781 11.3782 17.4844 11.3337 17.4844C11.3337 17.4375 11.2893 17.4844 11.2448 17.4844L10.9337 18.0938C10.7559 18.4219 10.4448 18.6094 10.1337 18.6094C10.0004 18.6094 9.82261 18.5625 9.73372 18.4688C9.28928 18.2344 9.15595 17.625 9.42261 17.2031L10.1337 15.8906C10.2671 15.6562 10.5337 15.4688 10.8448 15.4688C11.0226 15.4688 11.2004 15.5156 11.3337 15.6094L12.7115 16.5L12.9337 16.0781L11.5115 14.5312C11.1115 14.1094 11.1115 13.4531 11.5115 13.0312C11.6893 12.8438 11.9559 12.7031 12.2226 12.7031C12.4893 12.7031 12.7115 12.8438 12.9337 13.0312L13.2448 13.3594C14.0004 14.2031 14.4004 14.5781 15.4671 15.2344C15.6893 15.375 15.8226 15.5625 15.8671 15.7969C15.9115 16.0312 15.9115 16.2656 15.7782 16.4531L14.5782 18.6562C14.2671 19.2656 13.8671 19.3594 13.5559 19.3594ZM11.3337 16.8281C11.4671 16.8281 11.5559 16.8281 11.6893 16.9219C11.7782 16.9688 11.8226 17.0625 12.0004 17.25C12.2671 17.6719 13.0226 18.7031 13.5559 18.7031C13.6448 18.7031 13.8226 18.7031 14.0448 18.3281L15.2448 16.125C15.2893 16.0781 15.2893 16.0312 15.2448 15.9375C15.2448 15.8906 15.2004 15.8438 15.1559 15.7969C14.0448 15.1406 13.6004 14.6719 12.8004 13.8281C12.7115 13.7344 12.5782 13.5938 12.4893 13.5C12.4004 13.4062 12.3115 13.3594 12.2226 13.3594C12.0893 13.3594 12.0004 13.4062 11.9115 13.5C11.7782 13.6406 11.7782 13.9219 11.9115 14.0625L13.4671 15.6562C13.6004 15.7969 13.6893 16.0781 13.5559 16.2656L13.1559 16.9688C13.1115 17.1094 12.9337 17.2031 12.8004 17.2031C12.7115 17.2031 12.6671 17.2031 12.5782 17.1562L11.0226 16.2188C10.9782 16.1719 10.8893 16.125 10.8448 16.125C10.7559 16.125 10.6671 16.1719 10.6671 16.2188L9.95595 17.5312C9.86706 17.6719 9.9115 17.8594 10.0004 17.9062H10.0448C10.0448 17.9531 10.0893 17.9531 10.1337 17.9531C10.2226 17.9531 10.3559 17.9062 10.4004 17.7656L10.7115 17.1562C10.8448 16.9688 11.0671 16.8281 11.3337 16.8281ZM6.26706 7.125L6.22261 7.07812L4.62261 3.5625C4.53372 3.42188 4.57817 3.1875 4.75595 3.14062C4.88928 3.04688 5.06706 3.14062 5.15595 3.28125L6.7115 6.60938L9.5115 6.1875L8.62261 3.84375C8.57817 3.70312 8.62261 3.51562 8.80039 3.42188C8.97817 3.375 9.15595 3.46875 9.20039 3.60938L10.2226 6.375L10.8448 8.01562L10.9337 7.82812C11.1115 7.54688 11.3782 7.3125 11.7337 7.21875C12.0893 7.17188 12.4448 7.21875 12.8004 7.40625C13.4671 7.82812 13.7337 8.67188 13.3782 9.32812L11.6893 12.4219C11.6893 12.4219 11.6893 12.4219 11.6448 12.4219V12.4688C11.2448 12.8906 10.7115 13.125 10.1782 13.125C9.68928 13.125 9.15595 12.8906 8.75595 12.4688C8.7115 12.4688 8.7115 12.4219 8.66706 12.375L6.26706 7.125ZM11.0226 8.95312L10.0448 10.7344C9.95595 10.875 9.77817 10.9688 9.64483 10.875C9.46706 10.7812 9.42261 10.5469 9.5115 10.4062L10.4448 8.76562L9.73372 6.84375L6.97817 7.21875L9.20039 12.0469C9.77817 12.5625 10.6226 12.5625 11.1559 12.0469L12.8448 9C13.0226 8.67188 12.8448 8.20312 12.4893 7.96875C12.2671 7.875 12.0893 7.82812 11.8671 7.875C11.6893 7.92188 11.5559 8.01562 11.4671 8.15625L11.0226 8.95312Z" fill="#191970"/>
<path d="M18.7121 6.41406C17.3856 6.41406 16.3047 7.5541 16.3047 8.95312C16.3047 10.3521 17.3856 11.4922 18.7121 11.4922C20.0386 11.4922 21.1195 10.3521 21.1195 8.95312C21.1195 7.5541 20.0386 6.41406 18.7121 6.41406ZM19.7593 9.85957C19.7256 9.92051 19.6654 9.95352 19.6028 9.95352C19.5715 9.95352 19.5402 9.9459 19.5114 9.92559L18.7651 9.45586C18.5797 9.33906 18.4425 9.08262 18.4425 8.85664V7.81562C18.4425 7.71152 18.5243 7.6252 18.623 7.6252C18.7217 7.6252 18.8036 7.71152 18.8036 7.81562V8.85664C18.8036 8.94805 18.8758 9.08262 18.9504 9.12832L19.6967 9.59805C19.7834 9.65137 19.8123 9.76816 19.7593 9.85957Z" fill="#191970"/>
<path fill-rule="evenodd" clip-rule="evenodd" d="M14.2683 24H3.5572C3.37943 24 3.24609 23.8594 3.24609 23.6719V21.4219C3.24609 21.2344 3.37943 21.0938 3.5572 21.0938H14.2683C14.4016 21.0938 14.5794 21.2344 14.5794 21.4219V23.6719C14.5794 23.8594 14.4016 24 14.2683 24Z" fill="#191970"/>
</svg>
