<svg width="20" height="20" viewBox="0 0 20 20" fill="none" xmlns="http://www.w3.org/2000/svg">
<path d="M10.0004 0.400391C4.70523 0.400391 0.400391 4.70523 0.400391 10.0004C0.400391 15.2955 4.70523 19.6004 10.0004 19.6004C15.2955 19.6004 19.6004 15.2955 19.6004 10.0004C19.6004 4.70523 15.2955 0.400391 10.0004 0.400391ZM16.3869 15.6593L13.4564 12.7288L12.8904 13.6383L15.6593 16.3869C14.1435 17.7208 12.1831 18.5495 10.0004 18.5495C5.29134 18.5495 1.45134 14.7095 1.45134 10.0005C1.45134 7.83786 2.25969 5.8573 3.59362 4.34152L7.31235 8.04004C7.25173 7.83788 7.23157 7.63587 7.23157 7.41355C7.23157 7.15077 7.29219 6.88811 7.41343 6.64551L4.3414 3.61379C5.85719 2.27986 7.81761 1.45119 10.0003 1.45119C14.7094 1.45119 18.5494 5.29119 18.5494 10.0002C18.5494 12.163 17.7209 14.1434 16.3869 15.6592L16.3869 15.6593Z" fill="#191970"/>
<path d="M13.0116 9.43532L9.71726 6.80792C9.3737 6.54514 8.88859 6.54514 8.56518 6.82808C8.18115 7.17164 8.16101 7.75783 8.52472 8.12155L9.91929 9.51611L8.46427 11.8201L7.75683 10.9511C7.57497 10.7086 7.27174 10.5874 6.96862 10.6076C6.66552 10.6277 6.38259 10.7894 6.22087 11.0321L4.58385 13.5988C4.30091 14.0435 4.42215 14.6295 4.86679 14.8923C5.31142 15.1753 5.89749 15.054 6.16027 14.6094L7.11016 13.1542L8.40363 14.8115C8.44409 14.852 8.46425 14.8923 8.50471 14.9328C8.86843 15.2562 9.35356 15.3976 9.83865 15.337C10.3237 15.2763 10.7481 14.9934 11.0109 14.5892L13.2542 11.0928C13.6178 10.5266 13.4966 9.83952 13.0116 9.43535L13.0116 9.43532Z" fill="#191970"/>
<path d="M14.6302 4.84776C13.7005 4.24141 12.4676 4.52436 11.8614 5.45411C11.2551 6.38387 11.538 7.61671 12.4678 8.22292C13.3975 8.82927 14.6304 8.54632 15.2366 7.61657C15.8429 6.68696 15.56 5.45411 14.6302 4.84776Z" fill="#191970"/>
</svg>
