<svg width="24" height="24" viewBox="0 0 24 24" fill="none" xmlns="http://www.w3.org/2000/svg">
<path d="M20.4215 13.3871C20.2164 13.484 19.9927 13.5349 19.766 13.5364C19.5383 13.5346 19.3139 13.4821 19.1086 13.3828V17.1759C19.1086 17.4741 18.9908 17.7601 18.7811 17.971C18.5716 18.1818 18.2873 18.3003 17.9908 18.3003H15.2525C14.9561 18.3003 14.6718 18.1818 14.4621 17.971C14.2525 17.7601 14.1347 17.4741 14.1347 17.1759V14.0228C13.7296 14.4286 13.2927 14.8011 12.8281 15.1364V17.1801C12.8281 17.8273 13.0835 18.4478 13.538 18.9059C13.9925 19.3639 14.6092 19.6217 15.2525 19.6229H17.9908C18.6351 19.6229 19.2531 19.3656 19.7088 18.9075C20.1647 18.4495 20.4209 17.8282 20.4215 17.1801V13.3871Z" fill="#191970"/>
<path d="M19.7607 7.59766C18.7467 7.59766 17.9238 9.07178 17.9238 10.5054C17.9238 11.9391 18.7468 13.2169 19.7607 13.2169C20.7746 13.2169 21.5996 11.9368 21.5996 10.5054C21.5997 9.07387 20.7766 7.59766 19.7607 7.59766Z" fill="#191970"/>
<path d="M9.6296 5.83968C9.6296 5.83968 8.23395 3.59961 5.98775 3.59961C5.34121 3.61137 4.70766 3.78518 4.14456 4.10526C1.71384 5.40021 1.96196 9.14 4.03433 12.2121C4.93256 11.5483 6.03657 11.2284 7.1483 11.3095C8.26003 11.3905 9.30647 11.8674 10.1003 12.6545C10.8939 13.4414 11.3829 14.4872 11.4792 15.6041C16.5508 12.9139 18.6207 5.96129 15.1126 4.10526C14.5492 3.78918 13.9166 3.61908 13.2715 3.61031C11.0253 3.5996 9.62966 5.83968 9.62966 5.83968H9.6296Z" fill="#191970"/>
<path d="M6.80733 11.5977C5.64677 11.5977 4.53375 12.0614 3.71321 12.8867C2.89267 13.7121 2.43164 14.8315 2.43164 15.9988C2.43164 17.166 2.89267 18.2854 3.71321 19.1108C4.53375 19.9361 5.64681 20.3999 6.80733 20.3999C7.96785 20.3999 9.08076 19.9361 9.90145 19.1108C10.722 18.2854 11.183 17.166 11.183 15.9988C11.183 14.8315 10.722 13.7121 9.90145 12.8867C9.08076 12.0614 7.96785 11.5977 6.80733 11.5977ZM6.80733 19.301C5.93664 19.3004 5.10189 18.9521 4.48656 18.3325C3.87123 17.7129 3.52576 16.8729 3.52606 15.9971C3.52651 15.1215 3.87257 14.2817 4.48849 13.6627C5.10441 13.0436 5.93948 12.696 6.81017 12.6961C7.68086 12.6963 8.51576 13.0444 9.13139 13.6636C9.74703 14.283 10.0928 15.1229 10.0928 15.9986C10.0918 16.8745 9.74511 17.7141 9.1292 18.3333C8.51326 18.9524 7.67821 19.3004 6.80737 19.301H6.80733Z" fill="#191970"/>
<path d="M9.773 15.9984C9.773 15.2063 9.46008 14.4466 8.90318 13.8864C8.34629 13.3263 7.59097 13.0117 6.80342 13.0117C6.01586 13.0117 5.26073 13.3263 4.7038 13.8864C4.14688 14.4466 3.83398 15.2063 3.83398 15.9984C3.83398 16.7905 4.1469 17.5502 4.7038 18.1104C5.2607 18.6705 6.01586 18.9851 6.80342 18.9851C7.59097 18.9851 8.34625 18.6705 8.90318 18.1104C9.46007 17.5502 9.773 16.7905 9.773 15.9984ZM6.80361 16.8517H6.80346C6.50045 16.8799 6.20544 16.7433 6.0295 16.4935C5.85374 16.2435 5.8237 15.9182 5.95109 15.6401C6.07833 15.3619 6.34344 15.1732 6.6466 15.1451V13.9781C6.64601 13.9359 6.66229 13.8951 6.69173 13.865C6.72132 13.835 6.76156 13.8181 6.80343 13.8181C6.84604 13.8176 6.88702 13.8341 6.91735 13.8641C6.94768 13.8942 6.9647 13.9353 6.9647 13.9781V15.1536C7.17375 15.194 7.3599 15.3121 7.48652 15.4842L8.01469 15.226H8.01455C8.09311 15.1876 8.1878 15.2199 8.22671 15.2987C8.2634 15.3783 8.23056 15.4728 8.15244 15.5119L7.62854 15.7722C7.6497 15.8458 7.66109 15.9219 7.66257 15.9984C7.6642 16.2272 7.57439 16.4473 7.41327 16.6089C7.25215 16.7707 7.03319 16.8604 6.80563 16.858L6.80361 16.8517Z" fill="#191970"/>
<path d="M7.34278 15.9968C7.34278 16.2948 7.10251 16.5365 6.80616 16.5365C6.50981 16.5365 6.26953 16.2948 6.26953 15.9968C6.26953 15.6987 6.50981 15.457 6.80616 15.457C7.10251 15.457 7.34278 15.6987 7.34278 15.9968Z" fill="#191970"/>
</svg>
