<svg width="26" height="26" viewBox="0 0 26 26" fill="none" xmlns="http://www.w3.org/2000/svg">
<circle cx="13" cy="13" r="13" fill="#191970"/>
<path d="M12.5526 8.56928C11.7082 8.56928 10.8827 8.83214 10.1806 9.32461C9.47853 9.81707 8.93129 10.517 8.60815 11.336C8.28501 12.1549 8.20043 13.056 8.36516 13.9254C8.52989 14.7948 8.93652 15.5934 9.5336 16.2202C10.1307 16.847 10.8914 17.2738 11.7196 17.4468C12.5478 17.6197 13.4061 17.5309 14.1863 17.1917C14.9664 16.8525 15.6332 16.2781 16.1023 15.541C16.5714 14.804 16.8219 13.9375 16.8219 13.0511C16.8219 11.8624 16.372 10.7225 15.5714 9.88196C14.7707 9.04146 13.6849 8.56928 12.5526 8.56928ZM12.5526 15.9194C12.0054 15.9194 11.4704 15.7489 11.0155 15.4296C10.5607 15.1102 10.2065 14.6563 9.99757 14.1254C9.78865 13.5945 9.73447 13.0104 9.842 12.4472C9.94953 11.884 10.2139 11.3669 10.6016 10.9615C10.9893 10.5561 11.4829 10.2806 12.0198 10.1699C12.5567 10.0592 13.1129 10.1183 13.6178 10.3396C14.1227 10.561 14.5537 10.9347 14.8562 11.4134C15.1587 11.8921 15.319 12.4542 15.3169 13.0287C15.3169 13.4092 15.2453 13.7861 15.1062 14.1375C14.9672 14.489 14.7635 14.8081 14.5066 15.0767C14.2498 15.3453 13.9449 15.558 13.6096 15.7026C13.2743 15.8472 12.9151 15.9209 12.5526 15.9194ZM20.7817 9.44322C20.771 8.72299 20.641 8.01024 20.3975 7.33681C20.1923 6.75472 19.868 6.22693 19.4475 5.79059C19.0308 5.35059 18.5283 5.01039 17.9746 4.79337C17.3319 4.54197 16.6536 4.40563 15.968 4.39003C15.0928 4.39003 14.8046 4.33398 12.5526 4.33398C10.3005 4.33398 10.0229 4.334 9.14768 4.39003C8.46203 4.40563 7.78373 4.54197 7.14108 4.79337C6.58808 5.01192 6.08598 5.35187 5.66816 5.79048C5.25033 6.2291 4.9264 6.75629 4.71821 7.33681C4.47467 8.01024 4.34467 8.72299 4.33398 9.44322C4.33398 10.3732 4.33398 10.6645 4.33398 13.0287C4.33398 15.3928 4.33398 15.6841 4.33398 16.6141C4.34574 17.3342 4.47571 18.0468 4.71821 18.7205C4.92129 19.3005 5.24595 19.8251 5.66816 20.2556C6.08275 20.701 6.58561 21.0453 7.14108 21.264C7.78373 21.5154 8.46203 21.6517 9.14768 21.6673C10.0229 21.6673 10.3111 21.6673 12.5526 21.6673C14.794 21.6673 15.0928 21.6673 15.968 21.6673C16.6536 21.6517 17.3319 21.5154 17.9746 21.264C18.5288 21.0427 19.0312 20.6988 19.4475 20.2556C19.8697 19.8251 20.1944 19.3005 20.3975 18.7205C20.6399 18.0468 20.7699 17.3342 20.7817 16.6141C20.7817 15.6841 20.7817 15.3816 20.7817 13.0287C20.7817 10.6757 20.8244 10.3732 20.7817 9.44322ZM19.2981 16.5357C19.2913 17.0869 19.1938 17.6328 19.0099 18.1491C18.8767 18.5257 18.6653 18.8664 18.3909 19.1463C18.1271 19.4381 17.8017 19.6607 17.4409 19.7962C16.9502 19.9936 16.4295 20.096 15.904 20.0987C15.0288 20.0987 14.7726 20.1547 12.5526 20.1547C10.3325 20.1547 10.087 20.1547 9.21179 20.0987C8.68609 20.0981 8.16496 19.9955 7.67475 19.7962C7.31396 19.6607 6.98855 19.4381 6.72481 19.1463C6.45037 18.8664 6.23893 18.5257 6.1058 18.1491C5.92191 17.6328 5.82439 17.0869 5.8176 16.5357C5.8176 15.6169 5.8176 15.348 5.8176 13.0287C5.8176 10.7093 5.8176 10.4293 5.8176 9.51048C5.82689 8.95952 5.92432 8.41411 6.1058 7.89704C6.24362 7.52292 6.45436 7.18314 6.72455 6.89951C6.99473 6.61588 7.31837 6.39466 7.67475 6.24998C8.16768 6.06225 8.68745 5.96373 9.21179 5.95865C10.087 5.95865 10.3432 5.90264 12.5526 5.90264C14.7619 5.90264 15.0288 5.90263 15.904 5.95865C16.4282 5.96502 16.9477 6.06349 17.4409 6.24998C17.7973 6.39466 18.1209 6.61588 18.3911 6.89951C18.6613 7.18314 18.872 7.52292 19.0099 7.89704C19.1913 8.41411 19.2888 8.95952 19.2981 9.51048C19.2981 10.4293 19.2981 10.7093 19.2981 13.0287C19.2981 15.348 19.3087 15.6169 19.3087 16.5357H19.2981ZM17.9746 8.39004C17.9767 8.59881 17.9196 8.80353 17.8107 8.9782C17.7017 9.15286 17.5459 9.28957 17.3627 9.37101C17.1796 9.45245 16.9775 9.47493 16.7822 9.43557C16.5868 9.3962 16.4071 9.29679 16.2657 9.14995C16.1243 9.00311 16.0278 8.81546 15.9882 8.61086C15.9486 8.40625 15.9678 8.19392 16.0434 8.00081C16.119 7.80771 16.2476 7.64254 16.4128 7.52631C16.578 7.41008 16.7725 7.348 16.9713 7.34799C17.2356 7.34798 17.4891 7.45742 17.677 7.65252C17.8648 7.84762 17.9718 8.11265 17.9746 8.39004Z" fill="white"/>
</svg>
