<svg width="22" height="22" viewBox="0 0 22 22" fill="none" xmlns="http://www.w3.org/2000/svg">
<path d="M15.583 3.20898H6.41634C3.66634 3.20898 1.83301 4.58398 1.83301 7.79232V14.209C1.83301 17.4173 3.66634 18.7923 6.41634 18.7923H15.583C18.333 18.7923 20.1663 17.4173 20.1663 14.209V7.79232C20.1663 4.58398 18.333 3.20898 15.583 3.20898ZM16.0138 8.79148L13.1447 11.0832C12.5397 11.569 11.7697 11.8073 10.9997 11.8073C10.2297 11.8073 9.45051 11.569 8.85467 11.0832L5.98551 8.79148C5.69217 8.55315 5.64634 8.11315 5.87551 7.81982C6.11384 7.52648 6.54467 7.47148 6.83801 7.70982L9.70717 10.0015C10.4038 10.5607 11.5863 10.5607 12.283 10.0015L15.1522 7.70982C15.4455 7.47148 15.8855 7.51732 16.1147 7.81982C16.353 8.11315 16.3072 8.55315 16.0138 8.79148Z" fill="#191970"/>
</svg>
