<svg width="20" height="20" viewBox="0 0 20 20" fill="none" xmlns="http://www.w3.org/2000/svg">
<path d="M3.17862 9.10035H0.8347C0.559263 8.22686 0.399609 7.3237 0.399609 6.40044C0.399609 3.08654 2.66161 0.400391 5.45224 0.400391C7.45642 0.400391 9.18284 1.78972 9.99961 3.79824C10.8164 1.78972 12.5428 0.400391 14.547 0.400391C17.3376 0.400391 19.5996 3.08654 19.5996 6.40044C19.5996 7.32391 19.44 8.22692 19.1645 9.10035H13.2836C13.1826 9.10035 13.0912 9.17171 13.0515 9.2822L12.529 10.7297L11.4959 7.78492C11.4566 7.67338 11.3644 7.60035 11.2625 7.60035C11.1607 7.60035 11.0685 7.67318 11.0294 7.78492L9.99939 10.7205L8.96937 7.78492C8.93025 7.67338 8.83809 7.60035 8.73623 7.60035C8.63437 7.60035 8.54221 7.67318 8.50309 7.78492L7.46991 10.7297L6.94742 9.2822C6.90777 9.17171 6.81631 9.10035 6.71516 9.10035H5.19928C5.05953 9.10035 4.94658 9.2347 4.94658 9.40044C4.94658 9.56597 5.05953 9.70053 5.19928 9.70053H6.5486L7.24081 11.6187C7.28064 11.729 7.37228 11.8005 7.47307 11.8005H7.47431C7.57581 11.7999 7.66727 11.7271 7.70621 11.6159L8.73623 8.68037L9.76624 11.6159C9.80536 11.7275 9.89753 11.8005 9.99938 11.8005C10.1012 11.8005 10.1934 11.7277 10.2325 11.6159L11.2625 8.68037L12.2926 11.6159C12.3315 11.7273 12.423 11.7999 12.5245 11.8005H12.5257C12.6265 11.8005 12.7181 11.7292 12.7578 11.6187L13.4502 9.70031H18.9566C16.8074 15.3446 9.9995 19.6004 9.9995 19.6004C9.9995 19.6004 3.19152 15.3446 1.04235 9.70031H3.17867C3.31841 9.70031 3.43137 9.56597 3.43137 9.40023C3.4312 9.2347 3.31841 9.10035 3.17867 9.10035L3.17862 9.10035ZM4.18906 9.7003C4.32845 9.7003 4.44176 9.56596 4.44176 9.40021C4.44176 9.23469 4.32863 9.10013 4.18906 9.10013C4.04967 9.10013 3.93636 9.23447 3.93636 9.40021C3.93653 9.56596 4.04967 9.7003 4.18906 9.7003Z" fill="#191970"/>
</svg>
