<svg width="12" height="24" viewBox="0 0 12 24" fill="none" xmlns="http://www.w3.org/2000/svg">
<path d="M0.111278 13.9198C0.600959 12.2592 0.777554 9.99046 0.947929 7.79512C1.13356 5.40098 1.30903 3.13904 1.88739 1.91626H1.8872C1.89944 1.89022 1.91356 1.86502 1.92937 1.84051C2.52484 0.861029 3.60253 0.193499 4.83343 0.0415277C6.06057 -0.119438 7.36642 0.196741 8.08128 0.830297C8.11329 0.85904 8.15169 0.881359 8.19405 0.895561C9.0375 1.16964 9.67008 1.8737 9.84403 2.73194C10.0063 3.52594 9.7497 4.27056 9.13914 4.80417C9.26679 4.92117 9.36958 5.04089 9.38747 5.19339C9.42588 5.51481 9.24514 5.6729 9.11279 5.78855V5.78838C8.96349 5.90674 8.85749 6.0628 8.80873 6.23629C8.75677 6.40858 8.71686 6.58357 8.68899 6.76042C8.5877 7.32567 8.46175 8.02817 7.24405 7.97186C7.04523 7.96476 6.81648 7.91268 6.57454 7.85722C6.44595 7.8278 6.24507 7.78198 6.06789 7.75679C6.08371 8.26993 6.12061 8.7912 6.1818 9.30537C6.48811 9.55493 6.82643 9.82089 7.16024 10.0823C7.49405 10.3437 7.79717 10.5799 8.069 10.8029C8.32128 11.0076 8.49957 11.2755 8.58109 11.5719C8.66242 11.8683 8.64341 12.1799 8.52612 12.4665C8.33615 12.9191 7.97826 13.299 7.51287 13.5425C7.46072 13.5717 7.42909 13.6231 7.42966 13.6784C7.42834 13.6951 7.42834 13.7119 7.42966 13.7286C7.50779 13.8592 7.5959 13.9848 7.69324 14.1045C7.74369 14.1652 7.77702 14.2357 7.79076 14.3104C8.28102 14.7242 8.78559 15.1352 9.29373 15.5329C9.68684 15.8394 10.0355 16.1894 10.3311 16.5744C10.3443 16.5744 10.3574 16.5744 10.3712 16.5772C10.5621 16.5854 10.6696 16.5664 10.9716 16.6246C11.2735 16.6827 11.5936 16.9589 11.7128 17.2126V17.2125C11.7693 17.3386 11.7954 17.4739 11.7898 17.6096C11.8199 17.6528 11.847 17.6976 11.8709 17.7437C12.0074 18.0041 12.1044 18.4184 11.793 18.9126C11.6785 19.0952 11.5176 19.2511 11.3233 19.3671C11.3229 20.2681 11.0164 21.1476 10.4444 21.888C9.70644 22.852 9.71228 23.7026 9.71281 23.7102C9.71695 23.8587 9.59307 23.985 9.42871 24H1.66321C1.52032 23.9998 1.39512 23.9138 1.35803 23.7897C0.342134 20.3942 0.644858 18.0571 1.1082 16.6577C0.0885401 16.1219 -0.181846 14.9142 0.111288 13.92L0.111278 13.9198ZM6.73065 7.30558C6.9304 7.35292 7.13712 7.40026 7.27306 7.40314C7.92729 7.43391 7.96213 7.24116 8.06378 6.66882C8.06754 6.64988 8.07112 6.62909 8.07489 6.60913C7.94875 6.59662 7.82468 6.56974 7.70588 6.52916C7.6253 6.50363 7.55959 6.44986 7.52383 6.3802C7.48824 6.31037 7.48542 6.23073 7.51611 6.15904C7.54698 6.08736 7.60874 6.03003 7.68725 5.99994C7.76594 5.96984 7.85481 5.96967 7.93369 5.99943C8.02218 6.02885 8.11518 6.04576 8.20932 6.04965C8.29065 5.79231 8.45049 5.56032 8.67058 5.38026C8.74551 5.31499 8.75963 5.30265 8.75963 5.27509C8.70391 5.2149 8.64347 5.15826 8.57889 5.10567C8.33697 4.89737 8.00578 4.61197 8.09239 4.22038L8.10444 4.17016C8.16356 3.90792 8.25581 3.49419 8.12817 2.96431C7.82185 3.12763 7.60894 3.46091 7.43909 4.01819C7.30524 4.48315 6.92869 4.86106 6.42922 5.03234C6.36446 5.055 6.29857 5.07461 6.23154 5.09101C6.11519 5.78304 6.05795 6.48221 6.06021 7.18203C6.2867 7.20891 6.51074 7.25034 6.73063 7.30563L6.73065 7.30558ZM10.7962 18.9594C10.9575 18.9287 11.1309 18.7995 11.2375 18.6309C11.3824 18.4008 11.4009 18.1893 11.2934 17.9837H11.2932C11.2776 17.9576 11.2599 17.9325 11.2405 17.9084C11.1665 17.8114 11.1458 17.6895 11.1842 17.577C11.2158 17.4824 11.171 17.3588 11.1019 17.2783C10.9701 17.1254 10.5911 17.1278 10.2975 17.1429C10.1135 17.1523 9.93259 17.0955 9.75977 17.0335V17.0336C9.74847 17.0296 9.73736 17.025 9.72663 17.0198C9.70442 17.0089 7.49564 15.948 6.33853 15.5091V15.5092C5.95954 15.3659 5.67336 15.076 5.56039 14.721C5.43274 14.3228 5.2473 13.7794 5.06223 13.2458C5.04415 13.1952 5.01779 13.1474 4.98428 13.1037C4.35811 12.2813 3.91735 11.2963 3.69598 10.224C3.67376 10.1165 3.64326 9.92202 3.62161 9.79792V9.79775C3.61973 9.78642 3.60918 9.77763 3.59638 9.77712C3.58339 9.77661 3.57191 9.78422 3.56889 9.79538C3.35125 10.5529 3.18294 11.3056 3.0581 12.0205C3.04549 12.0916 3.04944 12.1643 3.06958 12.234C3.47022 13.6254 4.20935 15.5006 4.54562 15.9054C4.83179 16.2533 5.8266 16.9545 9.2642 17.7375C9.44757 17.7791 9.60949 17.9392 10.0239 18.3847C10.2148 18.5902 10.452 18.8453 10.5642 18.9192C10.631 18.963 10.716 18.9777 10.7962 18.9594L10.7962 18.9594Z" fill="#191970"/>
</svg>
