<svg width="12" height="22" viewBox="0 0 12 22" fill="none" xmlns="http://www.w3.org/2000/svg">
<path d="M6 0.199219C7.59124 0.199219 9.11734 0.806077 10.2427 1.88624C11.3679 2.96657 12 4.43163 12 5.95923V16.0392C12 18.0971 10.8564 19.9986 9 21.0274C7.1436 22.0565 4.8564 22.0565 3 21.0274C1.1436 19.9985 0 18.0969 0 16.0392V5.95923C0 4.43163 0.632142 2.96657 1.75731 1.88624C2.88266 0.806077 4.40876 0.199219 6 0.199219ZM1.5 6.34803L5.19741 9.39355V9.39371C5.97656 9.24714 6.73273 9.00511 7.44741 8.67371C8.61879 8.1305 9.65859 7.35796 10.5 6.40571V5.95923C10.5 4.41587 9.64234 2.98969 8.25 2.21793C6.85766 1.44634 5.14234 1.44634 3.75 2.21793C2.35766 2.98969 1.5 4.41587 1.5 5.95923V6.34803Z" fill="#191970"/>
<path d="M6.75 5.23953C6.75 5.0486 6.82902 4.86539 6.96964 4.73039C7.11027 4.59539 7.30112 4.51953 7.5 4.51953C7.69888 4.51953 7.88973 4.59539 8.03036 4.73039C8.17098 4.86539 8.25 5.0486 8.25 5.23953C8.25 5.43046 8.17098 5.61368 8.03036 5.74868C7.88973 5.88368 7.69888 5.95953 7.5 5.95953C7.30112 5.95953 7.11027 5.88368 6.96964 5.74868C6.82902 5.61368 6.75 5.43046 6.75 5.23953Z" fill="#191970"/>
<path d="M4.5 4.51953C4.69888 4.51953 4.88973 4.59539 5.03036 4.73039C5.17098 4.86539 5.25 5.0486 5.25 5.23953C5.25 5.43046 5.17098 5.61368 5.03036 5.74868C4.88973 5.88368 4.69888 5.95953 4.5 5.95953C4.30112 5.95953 4.11027 5.88368 3.96964 5.74868C3.82902 5.61368 3.75 5.43046 3.75 5.23953C3.75 5.0486 3.82902 4.86539 3.96964 4.73039C4.11027 4.59539 4.30112 4.51953 4.5 4.51953Z" fill="#191970"/>
<path d="M5.25196 6.68164H6.75196C7.01999 6.68164 7.26758 6.81889 7.40151 7.04164C7.53544 7.26439 7.53544 7.5389 7.40151 7.76164C7.26758 7.98439 7.01998 8.12164 6.75196 8.12164H5.25196C4.98394 8.12164 4.73635 7.9844 4.60242 7.76164C4.46849 7.53889 4.46849 7.26439 4.60242 7.04164C4.73635 6.81889 4.98395 6.68164 5.25196 6.68164Z" fill="#191970"/>
</svg>
