<svg width="24" height="24" viewBox="0 0 24 24" fill="none" xmlns="http://www.w3.org/2000/svg">
<path d="M16.1742 11.4184C16.7668 12.0128 16.7668 12.9767 16.1742 13.5712C15.5817 14.1656 14.6209 14.1656 14.0284 13.5712C13.4358 12.9767 13.4358 12.0128 14.0284 11.4184C14.6208 10.8241 15.5816 10.8241 16.1742 11.4184Z" fill="#191970"/>
<path d="M8.57116 17.1152L9.48154 16.2019L10.2504 17.7241C10.2706 17.7648 10.2909 17.785 10.3111 17.8257C10.5336 18.1098 10.8574 18.3128 11.2215 18.3331C11.5856 18.3533 11.9296 18.2315 12.1925 17.9678L14.4584 15.6947C14.7417 15.4105 14.7417 14.9842 14.4584 14.7001L11.8081 12.0412C11.5249 11.7571 11.1 11.7571 10.8167 12.0412C10.5335 12.3254 10.5335 12.7517 10.8167 13.0358L11.9497 14.1723L10.6751 15.451L10.2906 14.7001C10.1894 14.4971 10.0074 14.3551 9.78483 14.3144C9.56227 14.2738 9.33973 14.3551 9.17784 14.5174L7.57961 16.1208C7.29638 16.4049 7.29638 16.8312 7.57961 17.1153C7.86299 17.3993 8.3081 17.3993 8.57114 17.1152L8.57116 17.1152Z" fill="#191970"/>
<path d="M19.5164 4.61277H17.3111V3.25283C17.3111 2.78605 16.9266 2.40039 16.4613 2.40039H15.4296C14.9643 2.40039 14.5798 2.78605 14.5798 3.25283V4.59241H9.441V3.25283C9.441 2.78605 9.05656 2.40039 8.59127 2.40039H7.55949C7.0942 2.40039 6.70976 2.78605 6.70976 3.25283V4.59241H4.50441C3.33097 4.59241 2.40039 5.54632 2.40039 6.70313V19.4897C2.40039 20.6668 3.35128 21.6004 4.50441 21.6004H19.496C20.6695 21.6004 21.6001 20.6465 21.6001 19.4897V6.70313C21.6204 5.56673 20.6695 4.61277 19.5164 4.61277H19.5164ZM19.7592 18.8403C19.7592 19.3477 19.3546 19.7536 18.8488 19.7536H5.17219C4.6664 19.7536 4.2618 19.3477 4.2618 18.8403V9.54473H19.739L19.7391 18.8403H19.7592Z" fill="#191970"/>
</svg>
