<svg width="24" height="24" viewBox="0 0 24 24" fill="none" xmlns="http://www.w3.org/2000/svg">
<path d="M16.5218 17.5554C16.5218 16.9138 16.6094 16.2753 16.7813 15.6575L16.9303 15.1228C16.569 15.244 16.1883 15.3099 15.7975 15.3099H15.588C14.4443 15.3099 13.3617 14.7998 12.6176 13.91C12.3595 13.6014 12.1536 13.2549 11.9989 12.8867C11.8441 13.2548 11.6383 13.6014 11.3798 13.9103C10.6356 14.7998 9.55327 15.3099 8.40968 15.3099H8.20026C7.80939 15.3099 7.42875 15.244 7.06761 15.1228L7.2166 15.6575C7.38809 16.2753 7.47564 16.9141 7.47564 17.5554C7.47564 18.5282 7.2802 19.4727 6.89439 20.3615L6.35742 21.5997H17.64L17.103 20.3615C16.7174 19.4727 16.5219 18.5287 16.5219 17.5554H16.5218ZM12.3218 20.2755H11.6757V19.6134H12.3218V20.2755Z" fill="#191970"/>
<path d="M19.2162 5.62563L15.2938 4.50911C14.8759 4.39059 14.5841 3.99704 14.5841 3.55236V2.40039H9.41484V3.55236C9.41484 3.99689 9.12306 4.39058 8.70506 4.50941L4.78273 5.62563C4.08611 5.82395 3.59961 6.47981 3.59961 7.22065V13.6556H5.17906C4.78244 13.0491 4.56884 12.3357 4.56884 11.589C4.56884 10.9232 4.79788 10.2748 5.21399 9.76297L5.33385 9.61563C5.93182 8.88039 6.4466 8.07365 6.86427 7.21753L7.44219 7.51384C7.00214 8.41562 6.45971 9.26508 5.83043 10.039L5.71057 10.1864C5.3911 10.5799 5.21499 11.0778 5.21499 11.589C5.21499 12.4063 5.52552 13.1747 6.08962 13.7527C6.6537 14.3305 7.40327 14.6487 8.20088 14.6487H8.4103C9.36495 14.6487 10.269 14.2226 10.8899 13.4801C11.3975 12.874 11.6766 12.1003 11.6766 11.302V11.0073H12.3227V11.302C12.3227 12.1004 12.6018 12.8741 13.1091 13.4798C13.73 14.2226 14.634 14.6487 15.5887 14.6487H15.7981C16.5958 14.6487 17.3452 14.3305 17.9093 13.7525C18.4734 13.1745 18.7842 12.4065 18.7842 11.5889C18.7842 11.0777 18.6081 10.5799 18.2886 10.187L18.1688 10.0391C17.5394 9.26547 16.9971 8.41571 16.557 7.51438L17.1349 7.21807C17.5526 8.07374 18.0677 8.88048 18.6654 9.61572L18.7852 9.76365C19.2013 10.2747 19.4304 10.9232 19.4304 11.5889C19.4304 12.3357 19.2168 13.0487 18.8202 13.6555H20.3996V7.22058C20.3996 6.47974 19.9131 5.82387 19.2165 5.62555L19.2162 5.62563ZM6.50689 12.0004H5.86074V11.3384H6.50689V12.0004ZM12.3223 10.3453H11.6761V9.02111H12.3223V10.3453ZM17.4915 11.3384H18.1376V12.0004H17.4915V11.3384Z" fill="#191970"/>
</svg>
