<svg width="24" height="24" viewBox="0 0 24 24" fill="none" xmlns="http://www.w3.org/2000/svg">
<path d="M11.536 4.75673C11.815 4.73789 12.1136 4.72825 12.4349 4.72825C12.639 4.72825 12.8564 4.73217 13.0803 4.73985C13.1427 4.74196 13.2938 4.74648 13.2938 4.74648C14.0697 4.76968 15.2322 4.80494 16.2286 5.14094C16.2907 4.93091 16.3177 4.70899 16.3026 4.48042C16.2254 3.3129 15.095 2.42173 13.7783 2.49C12.4613 2.5584 11.4562 3.56002 11.5335 4.72785C11.534 4.73764 11.5353 4.74714 11.536 4.75678V4.75673Z" fill="#191970"/>
<path d="M15.6551 11.672C15.4469 11.8884 15.1434 12.0122 14.8226 12.0124C14.5631 12.0124 14.3112 11.93 14.1134 11.7805C13.8912 11.6125 13.7561 11.3778 13.733 11.1197C13.7099 10.8615 13.8016 10.6109 13.9911 10.4138C16.2384 8.07778 15.9621 7.32442 15.9232 7.24624C15.8551 7.10944 15.653 6.99659 15.3191 6.9083C15.3191 6.9083 15.3843 6.82709 15.4397 6.71681C15.7796 6.81625 16.0464 6.95727 16.1466 7.15886C16.2503 7.36723 16.4146 8.22799 14.1768 10.5542C13.8725 10.8706 13.915 11.346 14.272 11.6158C14.6287 11.8855 15.1648 11.8478 15.4693 11.5314C17.5871 9.32992 18.296 7.74735 17.7008 6.55086C16.9655 5.07316 14.5705 5.00173 13.2836 4.96331C13.208 4.96105 13.1361 4.95894 13.069 4.95668C10.9775 4.88526 9.72631 5.14802 9.01296 5.81066C8.54719 6.24338 8.34529 6.81603 8.41277 7.51273C8.57845 9.2264 9.6089 10.6402 11.5633 11.8353C11.7104 11.9252 11.8785 11.9685 12.0447 11.9685C12.3143 11.9685 12.5798 11.8547 12.7446 11.6429C13.0109 11.3006 12.9137 10.8316 12.5276 10.5955C10.5377 9.37901 10.1875 8.2403 10.1049 7.3842C10.0689 7.011 10.1945 6.8944 10.2417 6.85054C10.349 6.7508 10.594 6.61596 11.1514 6.53144C11.1636 6.65664 11.1617 6.74915 11.1242 6.75548C10.6399 6.83668 10.4703 6.95194 10.4184 7.00016C10.3542 7.05982 10.3306 7.18291 10.3484 7.36597C10.4264 8.17475 10.7607 9.25244 12.6662 10.4177C13.1626 10.7213 13.2878 11.3262 12.9456 11.7661C12.7412 12.0286 12.4045 12.1853 12.0448 12.1853C11.8225 12.1853 11.6083 12.1259 11.4247 12.0138C10.8545 11.665 10.363 11.2971 9.94363 10.9093C9.64982 13.7379 9.12914 17.6552 8.25214 21.3649C8.10176 22.0008 8.56125 22.6244 9.27853 22.7578C9.37029 22.775 9.46206 22.7831 9.55229 22.7831C10.1669 22.7831 10.7185 22.4022 10.8497 21.8476C11.4805 19.1801 11.9298 16.4443 12.2457 14.0568C12.9988 14.1861 13.9064 14.292 14.6565 14.3461C14.8447 16.5612 14.8366 19.049 14.3497 21.4129C14.218 22.0522 14.6959 22.665 15.4169 22.7817C15.4974 22.7948 15.5776 22.801 15.6567 22.801C16.2854 22.801 16.8438 22.4034 16.9605 21.8355C17.8114 17.7031 17.3485 13.3451 16.7972 10.374C16.4745 10.7832 16.0949 11.2152 15.655 11.6724L15.6551 11.672Z" fill="#191970"/>
<path d="M19.285 2.37414C19.1448 1.65277 17.6064 1.97957 17.2217 2.75201C18.5344 2.58146 19.4171 3.05304 19.285 2.37414Z" fill="#191970"/>
<path d="M17.037 1.26344C16.4929 0.941468 15.8658 1.90348 16.1568 2.52091C16.7621 1.75899 17.5491 1.56645 17.037 1.26344Z" fill="#191970"/>
<path d="M18.5453 3.95785C18.5541 3.45072 17.4596 3.49817 17.0859 3.98045C18.0042 4.0136 18.537 4.435 18.5453 3.95785Z" fill="#191970"/>
<path d="M8.46866 5.29946C8.52185 5.29946 8.56773 5.26391 8.57402 5.21584C8.57436 5.21373 8.60325 5.00521 8.7793 4.88603C8.89196 4.80964 9.0449 4.78388 9.2335 4.80919C9.29196 4.81703 9.34566 4.78177 9.35449 4.73024C9.36333 4.67872 9.3234 4.6308 9.26545 4.62297C9.01633 4.58952 8.80868 4.62824 8.64824 4.73793C8.40031 4.90743 8.36429 5.18377 8.36293 5.19549C8.35664 5.24702 8.39861 5.29312 8.45673 5.29885C8.46081 5.2993 8.46488 5.29945 8.46862 5.29945L8.46866 5.29946Z" fill="#191970"/>
<path d="M8.00027 5.0879C8.00605 5.08881 8.01183 5.08911 8.01761 5.08911C8.06859 5.08911 8.11362 5.05641 8.12228 5.01046C8.12296 5.00715 8.18804 4.67749 8.48695 4.49292C8.68254 4.37209 8.93863 4.33729 9.24772 4.38987C9.30498 4.39951 9.36089 4.36606 9.37194 4.31499C9.38298 4.26391 9.34526 4.21464 9.28748 4.20485C8.91907 4.14248 8.60811 4.18783 8.36324 4.3397C7.99075 4.57097 7.91564 4.9633 7.91242 4.98004C7.90342 5.03142 7.9425 5.07963 8.00028 5.08792L8.00027 5.0879Z" fill="#191970"/>
<path d="M17.3944 10.3456C17.3771 10.3952 17.4084 10.448 17.4643 10.4634C17.4665 10.464 17.6904 10.5299 17.7883 10.7043C17.8519 10.8175 17.851 10.9558 17.7861 11.1158C17.7662 11.1648 17.795 11.2186 17.8502 11.2362C17.8621 11.2399 17.8743 11.2418 17.8862 11.2418C17.9297 11.2418 17.9705 11.2178 17.9861 11.1794C18.0714 10.9694 18.0687 10.7812 17.9785 10.6204C17.839 10.372 17.5401 10.287 17.5275 10.2835C17.4712 10.2682 17.4119 10.296 17.3944 10.3456L17.3944 10.3456Z" fill="#191970"/>
<path d="M17.7166 9.99119C17.6962 10.04 17.7243 10.0941 17.7793 10.1122C17.7829 10.1132 18.1323 10.2312 18.2801 10.5278C18.3767 10.7219 18.366 10.9517 18.2475 11.2113C18.2256 11.2595 18.2519 11.3143 18.3063 11.3338C18.3192 11.3384 18.3328 11.3407 18.3461 11.3407C18.388 11.3407 18.4278 11.3184 18.4446 11.2818C18.5852 10.9734 18.5952 10.6941 18.4744 10.4518C18.2907 10.0829 17.8709 9.94147 17.8531 9.93557C17.7982 9.91749 17.737 9.9425 17.7166 9.99117L17.7166 9.99119Z" fill="#191970"/>
<path d="M6.81727 11.4878L8.61583 12.1262L8.64522 12.052L6.59179 11.0801L6.59774 11.8731L4.98325 11.3264L4.87109 11.6549L6.87863 12.1999L6.81727 11.4878Z" fill="#191970"/>
<path d="M8.01887 10.4835L9.03643 11.6222L9.09302 11.5788L8.04657 10.0999L7.67493 10.6846L6.74882 9.68164L6.51074 9.88082L7.72641 11.0292L8.01887 10.4835Z" fill="#191970"/>
<path d="M8.72717 12.8042L6.79015 12.7266L7.11523 13.3208L5.68066 13.4237L5.72909 13.7063L7.45865 13.477L7.12457 12.9611L8.73467 12.8688L8.72717 12.8042Z" fill="#191970"/>
</svg>
