<svg width="24" height="24" viewBox="0 0 24 24" fill="none" xmlns="http://www.w3.org/2000/svg">
<path d="M11.0327 7.73625C11.0327 8.20228 10.6725 8.58004 10.2282 8.58004C9.78399 8.58004 9.42383 8.20228 9.42383 7.73625C9.42383 7.27034 9.78399 6.89258 10.2282 6.89258C10.6725 6.89258 11.0327 7.27034 11.0327 7.73625Z" fill="#191970"/>
<path d="M14.0931 9.30859H12.6772C12.4271 9.30859 12.2241 9.49968 12.2241 9.76193L11.9678 12.7367C11.9678 12.999 12.1707 13.2216 12.4207 13.2216H12.5619L12.9106 15.719C12.9106 15.8788 13.0345 15.9891 13.187 15.9891H13.5837C13.7362 15.9891 13.8597 15.8788 13.8597 15.719L14.2086 13.2216H14.3499C14.6003 13.2216 14.8031 12.9991 14.8031 12.7367L14.5463 9.76193C14.5461 9.4997 14.3433 9.30859 14.0931 9.30859H14.0931Z" fill="#191970"/>
<path d="M14.144 8.19308C14.144 8.63297 13.804 8.98957 13.3845 8.98957C12.9651 8.98957 12.625 8.63297 12.625 8.19308C12.625 7.75309 12.9651 7.39648 13.3845 7.39648C13.804 7.39648 14.144 7.75309 14.144 8.19308Z" fill="#191970"/>
<path d="M11.128 8.94183C11.0806 8.9269 11.031 8.91701 10.9785 8.91701H9.47966C9.21448 8.91701 8.99991 9.11928 8.99991 9.39698L8.72817 11.334C8.72817 11.6115 8.94294 11.8474 9.20792 11.8474H9.35763L9.7266 15.7042C9.7266 15.8734 9.85766 15.9899 10.019 15.9899H10.4392C10.6008 15.9899 10.7316 15.8731 10.7316 15.7042L11.1009 11.8474H11.2506C11.5158 11.8474 11.7306 11.6115 11.7306 11.334L11.7004 11.1197V5.82828C12.2424 5.91351 12.6839 6.2053 12.8781 6.59038H13.0912C13.323 6.12986 13.9104 5.80259 14.5984 5.80259C15.2858 5.80259 15.8729 6.12994 16.1054 6.59038H16.1499C16.1499 3.95918 14.2171 1.80303 11.7592 1.59613C11.7532 1.37591 11.5827 1.19922 11.3713 1.19922C11.1602 1.19922 10.9892 1.37591 10.9834 1.59613C8.52584 1.80323 6.59277 3.9594 6.59277 6.59038H6.63776C6.86985 6.12986 7.45668 5.80259 8.14464 5.80259C8.83262 5.80259 9.41945 6.12994 9.65134 6.59038H9.86467C10.0689 6.1853 10.5479 5.88353 11.1283 5.81678V8.94177" fill="#191970"/>
<path d="M3.06955 19.0625C2.7455 19.0625 2.46777 19.3296 2.46777 19.6937C2.46777 20.0336 2.7224 20.3249 3.06955 20.3249H7.90728C7.88419 20.1306 7.86094 19.9122 7.86094 19.6937C7.86094 19.4752 7.88403 19.281 7.90728 19.0625H3.06955Z" fill="#191970"/>
<path d="M21.5404 19.2584L19.2257 16.8306C18.9942 16.5877 18.624 16.5877 18.3924 16.8306C18.1609 17.0734 18.1609 17.4618 18.3924 17.7046L19.6886 19.0641L15.499 19.0643C15.5221 19.2585 15.5454 19.477 15.5454 19.6955C15.5454 19.9139 15.5223 20.1082 15.499 20.3267H19.6886L18.3924 21.6862C18.1609 21.929 18.1609 22.3174 18.3924 22.5602C18.5082 22.6816 18.6702 22.7302 18.809 22.7302C18.9479 22.7302 19.11 22.6816 19.2256 22.5602L21.5403 20.1324C21.656 20.011 21.7024 19.8653 21.7024 19.6955C21.7024 19.5254 21.633 19.3798 21.5404 19.2584L21.5404 19.2584Z" fill="#191970"/>
<path d="M11.7021 16.584C10.0586 16.584 8.73926 17.9679 8.73926 19.6916C8.73926 21.4154 10.0587 22.7992 11.7021 22.7992C13.3456 22.7992 14.6649 21.4152 14.6649 19.6916C14.6649 17.9677 13.3454 16.584 11.7021 16.584ZM12.9519 20.4684C12.8594 20.614 12.7204 20.6868 12.5815 20.6868C12.5121 20.6868 12.4194 20.6626 12.35 20.614L11.4704 20.0557C11.3315 19.9829 11.2621 19.8372 11.2621 19.6672V18.0892C11.2621 17.8464 11.4473 17.6279 11.7019 17.6279C11.9335 17.6279 12.1418 17.8221 12.1418 18.0892V19.4001L12.8129 19.8128C12.9983 19.9829 13.0677 20.2499 12.952 20.4684H12.9519Z" fill="#191970"/>
</svg>
