<svg width="24" height="24" viewBox="0 0 24 24" fill="none" xmlns="http://www.w3.org/2000/svg">
<path d="M16.3833 13.4902L15.4512 14.3361V16.7689L16.6032 19.0323V13.4902H16.3833Z" fill="#191970"/>
<path d="M7.8091 14.8093C7.73004 14.3521 7.81184 13.885 8.03153 13.4902H7.58594V19.8701C7.58594 20.2032 7.84379 20.4731 8.16197 20.4731C8.42317 20.4731 8.64343 20.291 8.71407 20.0416L7.8091 14.8093Z" fill="#191970"/>
<path d="M11.7985 20.5583L11.2378 17.3161L10.1701 15.2184C9.8888 14.6658 9.87022 14.0359 10.0731 13.4902H8.98286C8.80032 13.7104 8.44277 14.0579 8.54847 14.6692L9.63779 20.9676C9.74587 21.5925 10.3174 22.0068 10.9137 21.8937C11.5104 21.7807 11.9065 21.1827 11.7985 20.5583Z" fill="#191970"/>
<path d="M16.2088 20.2227L13.3663 14.6381L15.0753 13.4902H11.0916C10.8008 13.8411 10.7339 14.3544 10.9523 14.7835L14.2708 21.3033C14.556 21.8634 15.2209 22.0755 15.756 21.7772C16.2912 21.4787 16.4939 20.7828 16.2088 20.2227Z" fill="#191970"/>
<path d="M14.6987 5.39573C14.2086 4.67041 13.3922 4.29659 12.5548 4.40592C12.48 4.56412 12.3904 4.71609 12.286 4.85957C12.1691 5.02035 12.0371 5.16485 11.8935 5.29274C12.3432 6.04269 12.6628 6.57581 13.0872 7.2835L13.0956 7.29759L12.7272 8.00313L10.7974 4.78467C10.5288 4.33662 9.96404 4.20144 9.53613 4.48259C9.1081 4.76375 8.97891 5.35482 9.24753 5.80274L12.0067 10.4045C12.3839 11.0333 13.2562 10.9865 13.5845 10.3548C13.5845 10.3548 14.8778 8.10714 15.0495 7.35259C15.21 6.68682 15.0905 5.97571 14.6987 5.39573Z" fill="#191970"/>
<path d="M21.1475 11.4528C20.8483 11.4528 14.64 11.4528 14.3417 11.4528L14.2276 10.5705C13.7092 11.7815 12.1084 11.8898 11.4387 10.7727L9.29683 7.20062L8.67941 6.17094C8.51125 5.89051 8.43352 5.57772 8.43723 5.26953C8.38113 5.31702 8.32955 5.37084 8.28511 5.43183L6.24712 8.22426L3.76886 9.94007C3.3474 10.2319 3.23175 10.826 3.51052 11.2671C3.55485 11.3373 3.60651 11.3992 3.66373 11.4528H3.02257C2.71616 11.4528 2.46777 11.7129 2.46777 12.0335C2.46777 12.3543 2.71616 12.6142 3.02257 12.6142H3.56972V21.9017C3.56972 22.394 3.95096 22.793 4.42126 22.793C4.89156 22.793 5.2728 22.394 5.2728 21.9017V12.6143C5.87595 12.6143 18.226 12.6143 18.8472 12.6143V21.9018C18.8472 22.3941 19.2285 22.7931 19.6988 22.7931C20.1691 22.7931 20.5503 22.3941 20.5503 21.9018V12.6143H21.1476C21.454 12.6143 21.7024 12.3543 21.7024 12.0336C21.7024 11.7129 21.4539 11.4528 21.1475 11.4528ZM4.90062 11.4528L7.38525 9.7326C7.4704 9.6736 7.54559 9.60017 7.60757 9.51518L8.96084 7.66094L9.45132 11.4528H4.90062V11.4528Z" fill="#191970"/>
<path d="M12.0666 2.9179C11.9377 1.92197 11.1241 1.19922 10.1899 1.19922C9.03515 1.19922 8.15488 2.26331 8.30845 3.45039C8.35467 3.80759 8.48926 4.12928 8.68562 4.39546C8.80788 4.19511 8.97322 4.01919 9.17837 3.88439C9.91994 3.39725 10.8985 3.63163 11.3638 4.40781L11.4929 4.62313C11.919 4.19899 12.1515 3.57439 12.0666 2.9179Z" fill="#191970"/>
</svg>
