<svg width="24" height="24" viewBox="0 0 24 24" fill="none" xmlns="http://www.w3.org/2000/svg">
<path d="M6.01143 20.0288H6.55558V17.9277H8.80074V15.5364H11.0459V13.1459H13.2927V10.7539H15.5374V8.36282H17.7821V5.97118H20.0276V3.58062H22V3H19.482V5.3911H17.2374V7.78256H14.9918V10.1738H12.7467V12.5649H10.501V14.9559H8.25646V17.3471H6.01143V20.0288Z" fill="#191970"/>
<path d="M7.33918 13.1037C7.30511 13.1207 7.28808 13.1718 7.30511 13.2059C7.32215 13.24 7.35622 13.257 7.42436 13.2059C7.74803 12.9844 7.96949 12.5415 7.90135 12.1497C7.90135 12.1156 7.86728 12.0645 7.86728 12.0475L7.88432 11.9793C7.88432 11.9793 8.07171 11.9623 7.96949 11.7919C7.96949 11.7919 7.91839 11.7068 7.86728 11.6727C7.85024 11.6557 7.81617 11.6727 7.81617 11.7068C7.79914 11.9112 7.81617 12.7459 7.33918 13.1037Z" fill="#191970"/>
<path d="M1.12081 10.2919C1.12081 10.309 1.13785 10.326 1.13785 10.343C1.18895 10.4282 1.34227 10.6326 1.97258 10.9222H1.98962C2.00665 10.9222 2.02369 10.9393 2.04073 10.9393C2.05776 10.9393 2.0748 10.8882 2.10887 10.8711L2.55179 10.0534C2.55179 10.0364 2.55179 10.0194 2.51772 9.98529L2.50068 9.96825C2.46661 9.95122 2.44958 9.90011 2.46661 9.84901C2.51772 9.72976 2.67104 9.47423 3.14803 9.03131C3.25024 8.94613 3.40356 8.99724 3.43763 9.11648L3.65909 10.1045C3.67612 10.1727 3.7102 10.2067 3.77834 10.2238C4.17015 10.343 4.61307 10.4282 5.1071 10.4112C5.43077 10.3941 5.80555 10.5475 5.95887 10.6326C6.09515 10.6837 6.36772 10.82 6.36772 11.0926C6.36772 11.1437 6.36772 11.2459 6.29958 11.3311C6.24847 11.3992 6.24847 11.5014 6.31661 11.5525C6.58918 11.8081 6.64029 11.8933 6.67436 11.9784C6.72546 12.0636 6.7936 12.251 6.72546 12.4554C6.67436 12.6087 6.55511 12.745 6.38475 12.8132C6.31661 12.8472 6.16329 12.8643 6.00998 12.8643H5.85666C5.75444 12.8472 5.66927 12.745 5.70334 12.6428C5.72037 12.5576 5.80555 12.5065 5.89073 12.5236C6.02701 12.5406 6.18033 12.5236 6.24847 12.5065C6.504 12.3873 6.33365 12.1318 6.33365 12.1318C6.31661 12.0466 5.6352 11.4503 5.48188 11.3141C5.43077 11.28 5.34559 11.2118 5.34559 11.1437C5.36263 11.0585 5.43077 11.1267 5.48188 11.1437C5.70334 11.2118 5.83962 11.2289 5.94183 11.1948C6.12922 11.1096 5.89073 11.0074 5.80555 10.9733C5.70334 10.9222 5.36263 10.786 5.12413 10.803C4.2894 10.8541 3.52281 10.5815 3.06275 10.3601L2.96054 10.309C2.87536 10.2749 2.77315 10.2919 2.73908 10.3771L2.50058 10.82C2.44948 10.9222 2.50058 11.0415 2.6028 11.0756C2.63687 11.0926 2.6539 11.0926 2.68797 11.1096C2.96054 11.1948 3.35235 11.3141 3.89749 11.4333C3.96563 11.4503 4.01674 11.5014 4.03377 11.5866C4.05081 11.6718 4.05081 11.757 4.03377 11.8421C4.01674 12.0125 3.98266 12.1488 3.89749 12.2851C3.52271 12.8472 3.48864 13.6309 3.48864 13.6309V14.176C3.48864 14.2782 3.57381 14.3464 3.65899 14.3464H6.79351C6.89572 14.3464 6.96386 14.2612 6.96386 14.176V13.8694V13.7501C6.96386 13.682 6.99793 13.6649 7.032 13.6138C7.10014 13.5457 7.16829 13.4605 7.23643 13.3753C7.20236 13.3583 7.16829 13.3242 7.15125 13.2902C7.13422 13.2561 7.13422 13.2391 7.13422 13.205C7.13422 13.1368 7.16829 13.0687 7.21939 13.0176C7.64528 12.6939 7.62824 11.8933 7.62824 11.7229C7.62824 11.6548 7.66231 11.6037 7.71342 11.5696C7.71342 11.5696 7.73045 11.5696 7.73045 11.5525C7.66231 11.2629 7.52603 10.9904 7.33864 10.7689C7.23643 10.6326 7.10014 10.5134 6.96386 10.4112C6.89572 10.3601 6.86165 10.343 6.86165 10.2579C6.86165 10.1897 6.87868 10.1216 6.91275 10.0705C6.94683 10.0023 7.032 9.95122 7.08311 9.90011C7.2705 9.66162 7.23643 9.37201 7.04904 9.15055C6.96386 9.06538 6.89572 8.96317 6.81054 8.87799C6.7424 8.80985 6.65722 8.72467 6.58908 8.67356C6.48687 8.58839 6.41873 8.57135 6.38466 8.41803C6.36762 8.29878 6.33355 8.17954 6.31652 8.06029C6.29948 7.99215 6.28244 7.8729 6.23134 7.73662C6.23134 7.71958 6.2143 7.70255 6.2143 7.68551C6.1632 7.5833 6.09505 7.48108 6.00988 7.44701C6.00988 7.44701 5.83952 7.39591 5.72028 7.20852C5.70324 7.19148 5.6862 7.15741 5.66917 7.14038C5.66917 7.14038 5.72028 6.90188 5.87359 7.03816C5.87359 7.03816 6.14616 7.42998 6.26541 7.27666C6.26541 7.27666 6.33355 7.02113 6.5039 7.08927C6.5039 7.08927 6.65722 7.02113 6.62315 6.97002C6.64019 7.00409 6.72537 6.95299 6.7424 6.93595C6.75944 6.91892 6.75944 6.88485 6.75944 6.86781C6.75944 6.85077 6.77647 6.85077 6.77647 6.85077C6.84461 6.85077 6.89572 6.91892 6.96386 6.95299C7.032 6.97002 7.11718 6.90188 7.08311 6.83374C7.08311 6.83374 6.99793 6.62931 7.33864 6.42489C7.44085 6.35675 7.52603 6.25454 7.59417 6.15232C8.00302 5.57312 7.62824 4.95984 7.62824 4.95984C7.57714 4.72135 7.44085 4.51692 7.2705 4.36361C7.06607 4.15918 6.79351 4.0229 6.52094 3.93772C6.52094 3.93772 6.11209 3.32445 5.6351 3.98883C5.6351 3.98883 4.78333 4.72135 4.93665 5.36869C4.98775 5.60719 5.17514 5.89679 5.00479 6.10122C4.90258 6.22046 4.78333 6.33971 4.64705 6.42489C4.61297 6.44193 4.39151 6.5271 4.22116 6.56117C3.98266 6.49303 3.72713 6.57821 3.62492 6.61228C3.25014 6.71449 2.99461 7.07224 2.75611 7.36184C2.29616 7.90697 1.87027 8.50321 1.47846 9.09945C1.27403 9.42312 1.05257 9.86604 1.12072 10.2919H1.12081Z" fill="#191970"/>
<path d="M3.86867 19.1816H4.97254L5.1999 18.1032C5.39868 17.1603 5.44474 16.1916 5.33635 15.2341L5.21719 14.1816H3.61719L4 16.6797L3.86867 19.1816Z" fill="#191970"/>
<path d="M5.60109 16.8483H6.70496L6.94961 14.1816H5.34961L5.60109 16.8483Z" fill="#191970"/>
<path d="M22 19V4C22 3.44772 21.5523 3 21 3H19.5V5.5H17V8H15V10.5H13V12V13H11V15.5H9V18H6.5V20H21C21.5523 20 22 19.5523 22 19Z" fill="#191970"/>
<path d="M6 20H6.5M6.5 20H21C21.5523 20 22 19.5523 22 19V4C22 3.44772 21.5523 3 21 3H19.5V5.5H17V8H15V10.5H13V12V13H11V15.5H9V18H6.5V20Z" stroke="#191970"/>
</svg>
