<svg width="24" height="24" viewBox="0 0 24 24" fill="none" xmlns="http://www.w3.org/2000/svg">
<path d="M3.54043 13.0965C3.86304 12.6497 3.92755 12.1393 4.03515 11.7563C4.12112 11.3521 4.27177 11.0543 4.50838 10.8629C4.74501 10.6501 5.08921 10.5013 5.47633 10.4161C5.62698 10.3735 5.92814 10.2885 6.16476 10.2247C6.40138 10.1183 6.63799 10.0119 6.83155 9.88427C7.2403 9.60769 7.62742 9.28865 7.95015 8.94826C8.20824 8.65045 8.61695 8.50147 9.00422 8.60787C9.77861 8.79928 10.6606 8.56528 11.5641 7.67186C12.9838 6.26786 13.9087 3.77905 12.9193 2.82181C11.9512 1.82232 9.4344 2.73693 8.0148 4.14095C7.00379 5.14074 6.83167 6.09798 7.15445 6.92756C7.28349 7.26795 7.26203 7.62954 7.06847 7.92735C7.0254 7.99115 6.98249 8.05496 6.93943 8.11876C6.46619 8.75697 5.94985 9.24619 5.17546 9.45895C4.72366 9.60792 4.25057 9.82056 3.8633 10.2247C3.47603 10.6076 3.30394 11.1608 3.23941 11.5862C3.17489 12.033 3.13182 12.4158 2.93827 12.671C2.76616 12.9476 2.44355 13.139 2.07791 13.2666C1.92726 13.3304 1.81983 13.5006 1.88435 13.6494C1.92741 13.8196 2.12097 13.926 2.29309 13.8622C2.72311 13.756 3.21798 13.5432 3.5406 13.0964L3.54043 13.0965Z" fill="#191970"/>
<path d="M13.6292 10.5193C12.6396 9.54066 10.1445 10.4554 8.72475 11.8594C7.71374 12.8592 7.54162 13.8165 7.8644 14.646C7.99344 14.9864 7.97198 15.348 7.77842 15.6458C7.73535 15.7096 7.69244 15.7735 7.64938 15.816C7.17614 16.4542 6.6598 16.9435 5.88541 17.1562C5.43361 17.3052 4.96052 17.5178 4.57325 17.922C4.18613 18.3048 3.99242 18.858 3.92789 19.3046C3.86337 19.7514 3.8203 20.1342 3.62674 20.3895C3.45464 20.6661 3.13203 20.8575 2.76639 20.9851C2.61574 21.0489 2.5083 21.2191 2.57282 21.3679C2.61589 21.5381 2.80945 21.6445 2.98157 21.5807C3.43337 21.4531 3.92808 21.2403 4.25067 20.7937C4.57327 20.3469 4.63779 19.8365 4.74538 19.4535C4.83136 19.0493 4.98201 18.7515 5.21862 18.5601C5.45524 18.3473 5.79945 18.1984 6.18657 18.1133C6.33721 18.0707 6.63837 17.9857 6.87499 17.9218C7.11162 17.8155 7.34823 17.7091 7.54179 17.5815C7.95053 17.3049 8.33765 16.9858 8.66039 16.6454C8.91847 16.3476 9.32719 16.1987 9.71446 16.3051C10.4888 16.4965 11.3708 16.2625 12.2743 15.369C13.6937 13.9652 14.6186 11.4975 13.6292 10.519L13.6292 10.5193Z" fill="#191970"/>
<path d="M21.89 10.5193C20.9004 9.54066 18.4052 10.4554 16.9855 11.8594C15.9745 12.8592 15.8024 13.8165 16.1251 14.646C16.2542 14.9864 16.2327 15.348 16.0392 15.6458C15.9961 15.7096 15.9532 15.7735 15.9101 15.816C15.4369 16.4542 14.9205 16.9435 14.1462 17.1562C13.6943 17.3052 13.2213 17.5178 12.834 17.922C12.4469 18.3048 12.2532 18.858 12.1886 19.3046C12.1241 19.7514 12.081 20.1342 11.8875 20.3895C11.7154 20.6661 11.3928 20.8575 11.0271 20.9851C10.8765 21.0489 10.769 21.2191 10.8336 21.3679C10.8766 21.5381 11.0702 21.6445 11.2423 21.5807C11.6941 21.4531 12.1888 21.2403 12.5114 20.7937C12.834 20.3469 12.8985 19.8365 13.0061 19.4535C13.0921 19.0493 13.2427 18.7515 13.4794 18.5601C13.716 18.3473 14.0602 18.1984 14.4473 18.1133C14.598 18.0707 14.8991 17.9857 15.1357 17.9218C15.3724 17.8155 15.609 17.7091 15.8025 17.5815C16.2113 17.3049 16.5984 16.9858 16.9211 16.6454C17.1792 16.3476 17.5879 16.1987 17.9752 16.3051C18.7496 16.4965 19.6316 16.2625 20.535 15.369C21.9545 13.9652 22.8795 11.4975 21.8899 10.519L21.89 10.5193Z" fill="#191970"/>
</svg>
