<svg width="24" height="24" viewBox="0 0 24 24" fill="none" xmlns="http://www.w3.org/2000/svg">
<path d="M14.9859 17.2024C15.0264 17.3986 15.022 17.6052 14.9646 17.8028C14.9148 17.988 14.8137 18.1625 14.6781 18.3071C14.2151 18.7755 13.4577 18.7859 12.9828 18.3307L10.635 16.046L10.2615 16.4664L12.6125 18.7526C13.2528 19.3733 14.4153 19.4368 15.047 18.7996C15.264 18.5766 15.452 18.1066 15.5167 17.8142H20.3044C20.9713 17.8142 21.6317 18.4345 21.6317 19.0968C21.6317 19.7642 21.2224 20.399 20.3044 20.399L12.0629 20.3988C11.6326 20.3869 11.1482 20.2191 10.7754 19.9027L5.50848 15.9385L0 15.922V11.6074L8.53545 11.6236C8.53545 11.6236 9.16466 11.6372 9.59882 11.8883C9.9996 12.1214 10.3546 12.4619 10.3546 12.4619L14.6507 16.6229C14.8141 16.7804 14.9285 16.9793 14.9854 17.2024L14.9859 17.2024Z" fill="#191970"/>
<path d="M12.6323 6.80759C12.6323 8.24177 11.4668 9.40441 10.0291 9.40441C8.59131 9.40441 7.42578 8.24177 7.42578 6.80759C7.42578 5.3734 8.59131 4.21094 10.0291 4.21094C11.4668 4.21094 12.6323 5.37345 12.6323 6.80759Z" fill="#191970"/>
<path d="M23.2313 10.5129C21.9286 10.1665 20.6314 9.81903 19.3325 9.47358C19.0634 9.39848 18.7497 9.36926 18.5435 9.43417C18.1387 9.56159 17.842 9.88117 17.7302 10.4385C17.6555 10.7987 17.5814 11.1594 17.5107 11.5214C16.7396 10.7528 15.9692 9.98056 15.1988 9.21225C15.1988 9.21225 15.1983 9.21174 15.1951 9.21004C15.6234 8.78426 16.7515 7.69226 17.1783 7.26583C17.6941 6.75358 17.5168 6.09466 17.0928 5.72442C16.8528 5.48741 15.65 4.29602 15.2634 3.91409C14.2823 2.939 12.7725 4.45457 13.7524 5.42861C14.1242 5.79866 14.4976 6.16856 14.8713 6.53862C13.9399 7.45695 12.7987 8.57561 12.0607 9.31012C11.9391 9.43092 11.8544 9.56328 11.8028 9.69564C11.3663 10.5067 11.4828 11.5571 12.1614 12.2374C13.3903 13.4643 14.618 14.6919 15.85 15.9205C16.6751 16.7445 18.0532 16.7478 18.8818 15.922C19.4446 15.362 19.5306 14.4593 19.5434 14.3974C19.713 13.5578 19.8833 12.7178 20.0576 11.879C20.9312 12.1136 21.8089 12.3486 22.6854 12.5815C24.0182 12.9373 24.5684 10.8707 23.2313 10.5129L23.2313 10.5129Z" fill="#191970"/>
</svg>
