<svg width="24" height="24" viewBox="0 0 24 24" fill="none" xmlns="http://www.w3.org/2000/svg">
<path d="M8.7215 10.5404C8.68687 10.1031 8.45993 9.70644 8.10571 9.46427C7.75149 9.2221 7.30932 9.16116 6.90598 9.299C6.50273 9.43684 6.18298 9.75826 6.03867 10.1709L5.429 11.8703C5.40471 11.937 5.40388 12.0104 5.42644 12.0777C5.44907 12.145 5.49373 12.2021 5.55281 12.239L5.30082 12.8863H5.30074C5.264 12.9793 5.19286 13.0533 5.10308 13.092C5.0133 13.1306 4.91228 13.1306 4.82251 13.092C4.73273 13.0533 4.66151 12.9793 4.62477 12.8863L4.37278 12.239C4.43178 12.2022 4.47652 12.1452 4.49923 12.078C4.52186 12.0107 4.52111 11.9374 4.49697 11.8707L3.88691 10.1708C3.7653 9.82486 3.51919 9.5406 3.19984 9.3772C2.88048 9.2138 2.51245 9.18388 2.1722 9.29359C1.83202 9.40339 1.54592 9.64432 1.37339 9.96638C1.20077 10.2885 1.15512 10.6668 1.24574 11.0228C1.33642 11.3788 1.5565 11.685 1.8601 11.8777C2.16377 12.0704 2.5277 12.1348 2.87611 12.0574C3.09264 12.0443 3.21576 12.3522 3.21576 12.3522C3.24187 12.4241 3.29226 12.4839 3.35775 12.5203C3.42324 12.5567 3.49921 12.5674 3.57171 12.5503L4.12201 13.8926L2.75124 19.6341C2.71442 19.7882 2.73328 19.9509 2.80427 20.0917C2.87519 20.2325 2.99342 20.3417 3.13676 20.399L4.96427 15.9446L6.78968 20.399C6.93295 20.3417 7.05109 20.2324 7.12209 20.0916C7.19301 19.9508 7.21187 19.7882 7.17521 19.634L5.80459 13.8928L6.35384 12.5505C6.42634 12.5675 6.50239 12.5568 6.5678 12.5204C6.63321 12.484 6.68368 12.4243 6.70979 12.3524C6.70979 12.3524 6.83292 12.0446 7.04929 12.0577C7.47804 12.1529 7.92514 12.0327 8.2546 11.7336C8.584 11.4346 8.75684 10.9921 8.72047 10.5407L8.7215 10.5404ZM3.31647 10.7215C3.30033 10.9221 3.20768 11.1078 3.05898 11.2378C2.9102 11.3677 2.71759 11.4314 2.5234 11.4147C2.32928 11.3979 2.1495 11.3022 2.02365 11.1485C1.89789 10.9949 1.83632 10.7959 1.85254 10.5954C1.86884 10.3948 1.96156 10.2092 2.11035 10.0793C2.25913 9.94941 2.45182 9.88583 2.646 9.90274C2.83989 9.91973 3.01938 10.0155 3.14507 10.169C3.27077 10.3225 3.33241 10.5212 3.31649 10.7215L3.31647 10.7215ZM5.01808 14.147C4.91932 14.1552 4.82554 14.101 4.7805 14.0099C4.73538 13.9188 4.74798 13.8086 4.81233 13.7308C4.87669 13.6529 4.98005 13.6228 5.07427 13.6545C5.1685 13.6862 5.23497 13.7734 5.24259 13.8754C5.25345 14.0143 5.15341 14.1361 5.01889 14.1476L5.01808 14.147ZM7.40104 11.4143C7.20691 11.4307 7.01437 11.3668 6.86591 11.2366C6.71735 11.1065 6.625 10.9206 6.60916 10.7201C6.59325 10.5196 6.65511 10.3208 6.7811 10.1674C6.90717 10.014 7.08704 9.9186 7.28116 9.90217C7.47529 9.88572 7.66783 9.94962 7.81637 10.0797C7.96492 10.2099 8.05728 10.3956 8.07327 10.5961C8.08911 10.7966 8.0274 10.9954 7.90156 11.1489C7.77564 11.3025 7.59601 11.3981 7.40188 11.415L7.40104 11.4143Z" fill="#191970"/>
<path d="M10.7109 6.48413C10.3978 6.41561 10.0914 6.31859 9.79492 6.19409C10.2217 7.21994 10.9897 9.13444 11.5145 10.8341C11.6978 11.4282 11.8404 12.0347 11.9415 12.6493C12.0356 12.1172 12.1598 11.5912 12.3136 11.074C12.8399 9.30663 13.6418 7.20891 14.0605 6.14648C12.6933 6.72038 11.5077 6.65941 10.7108 6.48425L10.7109 6.48413Z" fill="#191970"/>
<path d="M21.022 3.71441C20.4491 3.52174 19.8253 3.57395 19.2898 3.85917C19.2733 3.86793 17.6335 4.71226 15.2164 4.4121C14.6976 3.96063 14.0557 3.68711 13.3797 3.62922C13.2825 3.62098 13.1834 3.61067 13.0856 3.61067H10.7327C10.6349 3.61067 10.5359 3.62098 10.4386 3.62922C9.76456 3.68572 9.12396 3.95703 8.60575 4.40573C6.18568 4.71345 4.52357 3.86603 4.50778 3.85759C3.80784 3.48736 2.9722 3.51724 2.29886 3.93675C1.62552 4.35609 1.21002 5.10547 1.20036 5.91754C1.19088 6.72979 1.58875 7.48911 2.25213 7.92528C2.17216 8.41504 2.33393 8.9135 2.68324 9.25472C3.03256 9.59575 3.52369 9.73449 3.99256 9.6246C4.46143 9.51487 4.84632 9.17076 5.01887 8.70729C5.19145 8.24382 5.1291 7.72197 4.85244 7.31604C4.57578 6.90993 4.12122 6.67295 3.64056 6.6843C3.1599 6.69563 2.71648 6.95372 2.45795 7.37236C1.99108 7.0181 1.72941 6.44405 1.76214 5.84664C1.79506 5.24922 2.1181 4.70953 2.62088 4.4121C3.12366 4.11466 3.73781 4.09991 4.25337 4.37277C4.31589 4.40574 5.57448 5.05503 7.53202 5.05485C7.69462 5.05485 7.86254 5.05005 8.03447 5.04043C7.97794 5.12062 7.92424 5.20373 7.87336 5.28977V5.28994C7.28195 6.29328 7.18921 7.52794 7.6238 8.6137C7.62696 8.6216 7.63045 8.62933 7.63444 8.63706L9.93998 13.1671V13.167C9.76524 13.468 9.72102 13.831 9.81794 14.1672C9.91487 14.5036 10.1441 14.7825 10.4497 14.9358L10.8092 18.603C10.8288 18.7914 10.9154 18.9654 11.0523 19.0914C11.1891 19.2174 11.3665 19.2865 11.5499 19.2851H12.2686H12.2685C12.4523 19.2858 12.6301 19.2166 12.7677 19.0909C12.9055 18.9652 12.9938 18.7916 13.0158 18.6032V18.6058L13.397 14.9222C13.6911 14.7653 13.9103 14.4909 14.0034 14.1627C14.0965 13.8346 14.0552 13.4815 13.8896 13.1855L16.1847 8.63609C16.1884 8.6287 16.1915 8.62149 16.1947 8.61376H16.1945C16.6291 7.52817 16.5363 6.29351 15.9448 5.29C15.8942 5.20431 15.8409 5.12171 15.7845 5.04186C18.0142 5.16207 19.4761 4.40858 19.5438 4.37284H19.544C20.0595 4.09998 20.6739 4.11475 21.1765 4.41216C21.6792 4.70958 22.0023 5.24947 22.035 5.84706C22.0678 6.44447 21.8059 7.0185 21.3389 7.37277C21.0866 6.96391 20.6573 6.70771 20.1884 6.6859C19.7194 6.66409 19.2697 6.87943 18.9827 7.26323C18.6959 7.64685 18.608 8.15082 18.747 8.61398C18.8859 9.07692 19.2346 9.44113 19.6813 9.58985C20.1603 9.74938 20.6854 9.63913 21.0661 9.29913C21.447 8.95913 21.6284 8.43848 21.5448 7.92573C22.0322 7.60513 22.383 7.10474 22.5259 6.5264C22.6685 5.94807 22.5925 5.33518 22.3131 4.81284C22.0336 4.29051 21.5719 3.8976 21.0219 3.71455L21.022 3.71441ZM14.8509 5.68298C14.8382 5.71389 13.5747 8.80343 12.8473 11.2461C12.5483 12.2538 12.3658 13.2944 12.3034 14.3463L12.1881 16.2726V16.2728C12.1791 16.4251 12.057 16.5441 11.9091 16.5446H11.9059C11.7568 16.5429 11.6352 16.4203 11.6301 16.2664L11.5593 14.421C11.5159 13.2629 11.3217 12.1162 10.982 11.0115C10.2339 8.58893 8.98256 5.71786 8.96996 5.68885C8.91826 5.57053 8.94968 5.4311 9.04644 5.34833C9.14321 5.26539 9.28153 5.25955 9.38462 5.3339C9.3911 5.33871 9.94989 5.73418 10.8515 5.92719C12.0541 6.18442 13.2686 5.97905 14.4614 5.31654C14.5658 5.2585 14.6943 5.27481 14.7819 5.35741C14.8695 5.43983 14.8971 5.57051 14.8509 5.68316L14.8509 5.68298Z" fill="#191970"/>
<path d="M19.3265 16.0464C19.327 15.9695 19.3235 15.8977 19.32 15.8258L19.3131 15.8099C19.2477 13.8455 18.4188 12.8586 18.4078 12.8477C18.359 12.7916 18.3352 12.7169 18.3426 12.6418L18.8315 7.86604C18.8457 7.69472 18.7918 7.52473 18.6823 7.39512C18.5727 7.2655 18.4169 7.18747 18.2506 7.17887C17.9285 7.16548 17.6514 7.41146 17.6157 7.74225L16.3438 19.7029C17.197 19.4623 19.3258 18.5967 19.3263 16.0463L19.3265 16.0464Z" fill="#191970"/>
</svg>
