<svg width="211" height="176" viewBox="0 0 211 176" fill="none" xmlns="http://www.w3.org/2000/svg">
<path d="M17.8019 141.044C17.3844 139.706 16.9718 138.32 16.5759 136.924L17.5533 136.619C17.9463 138.006 18.3569 139.384 18.7714 140.712L17.8019 141.044ZM192.69 139.316L191.679 139.185C191.847 137.761 192.007 136.326 192.153 134.923L193.167 135.039C193.022 136.448 192.859 137.886 192.69 139.316ZM15.4491 132.773C15.0925 131.398 14.7467 129.989 14.4206 128.597L15.4108 128.343C15.735 129.726 16.0788 131.123 16.4344 132.494L15.4491 132.773ZM193.584 130.751L192.57 130.652C192.698 129.223 192.818 127.785 192.924 126.378L193.941 126.463C193.834 127.875 193.71 129.319 193.584 130.751ZM13.4884 124.396C13.1937 122.99 12.9137 121.569 12.6553 120.172L13.6573 119.968C13.9137 121.357 14.1917 122.77 14.4845 124.167L13.4884 124.396ZM194.234 122.167L193.216 122.1C193.302 120.671 193.378 119.23 193.441 117.816L194.46 117.866C194.398 119.286 194.32 120.731 194.234 122.167ZM11.9245 115.926C11.6975 114.504 11.4883 113.068 11.3007 111.662L12.3105 111.514C12.4972 112.912 12.7035 114.338 12.9304 115.75L11.9245 115.926ZM194.615 113.56L193.596 113.528C193.635 112.093 193.663 110.651 193.678 109.24L194.697 109.252C194.683 110.67 194.655 112.119 194.615 113.56ZM10.7889 107.381C10.6366 105.943 10.504 104.498 10.3959 103.085L11.4127 102.998C11.5207 104.402 11.6523 105.836 11.8056 107.263L10.7889 107.381ZM193.682 104.954C193.67 103.518 193.643 102.076 193.604 100.667L194.624 100.636C194.663 102.051 194.689 103.501 194.701 104.944L193.682 104.954ZM10.1277 98.7771C10.06 97.3321 10.0158 95.8812 9.99414 94.4636L11.0148 94.4469C11.0354 95.8527 11.0796 97.2958 11.1464 98.7251L10.1277 98.7771ZM193.44 96.3841C193.37 94.9499 193.284 93.5108 193.185 92.107L194.201 92.0274C194.299 93.44 194.388 94.887 194.459 96.3291L193.44 96.3841ZM11.0236 90.1678L10.004 90.1462C10.0325 88.6963 10.0875 87.2444 10.167 85.8308L11.1857 85.8936C11.1062 87.2945 11.0521 88.7316 11.0236 90.1678ZM192.831 87.8377C192.694 86.4045 192.536 84.9722 192.372 83.5812L193.384 83.4476C193.553 84.8474 193.708 86.2895 193.846 87.7326L192.831 87.8377ZM11.5089 81.6332L10.4942 81.5271C10.6327 80.083 10.8016 78.64 10.9961 77.2372L12.005 77.3904C11.8125 78.7755 11.6455 80.2029 11.5089 81.6332ZM191.801 79.3424C191.589 77.9179 191.355 76.4935 191.109 75.1232L192.111 74.9267C192.36 76.3128 192.595 77.7431 192.808 79.1793L191.801 79.3424ZM71.1788 79.1921C69.7612 78.9583 68.7366 78.2824 67.3162 77.1163L67.9616 76.2892C69.2052 77.3079 70.1031 77.9189 71.2878 78.1301L71.1788 79.1921ZM74.7152 76.6517L73.8065 76.1654C74.2741 75.2086 74.6907 73.8805 75.0335 72.2184L76.0306 72.4463C75.6612 74.2204 75.2309 75.5957 74.7172 76.6497L74.7152 76.6517ZM64.323 74.0514C63.5106 73.1044 62.6422 72.014 61.6706 70.7193L62.4722 70.0592C63.432 71.3362 64.2866 72.4089 65.0843 73.3382L64.323 74.0514ZM12.6868 73.1761L11.6808 72.9728C11.9451 71.5474 12.2447 70.124 12.5649 68.7487L13.5552 69.0051C13.2428 70.3656 12.9471 71.7684 12.6868 73.1761ZM190.285 70.9256C189.982 69.5159 189.656 68.118 189.316 66.7702L190.298 66.4972C190.642 67.8577 190.97 69.2693 191.281 70.6928L190.285 70.9256ZM76.7182 68.1465L75.7064 68.011C75.8636 66.7339 76.0011 65.34 76.1357 63.7436L77.1524 63.836C77.0188 65.447 76.8764 66.8577 76.7182 68.1465ZM59.1705 67.2791C58.3424 66.1121 57.4819 64.8674 56.7412 63.7986L57.5663 63.1719C58.3061 64.2387 59.1637 65.4755 59.9908 66.6435L59.1705 67.2791ZM133.841 67.1907C133.013 67.1805 132.206 66.9237 131.524 66.4529L132.068 65.5492C133.184 66.2869 134.281 66.2879 135.467 65.7005L135.905 66.6642C135.267 66.9986 134.561 67.1796 133.841 67.1927V67.1907ZM14.6485 64.89L13.673 64.5786C14.0787 63.1906 14.5228 61.8114 14.9953 60.4773L15.9511 60.8477C15.4865 62.163 15.0483 63.5226 14.6485 64.89ZM139.24 63.8723L138.49 63.1483C139.399 62.0966 140.245 60.9925 141.025 59.8417L141.851 60.4675C141.048 61.6526 140.176 62.7895 139.24 63.8723ZM128.625 63.1385C127.876 61.9036 127.208 60.6216 126.624 59.3005L127.547 58.8437C128.11 60.1223 128.756 61.363 129.48 62.5579L128.625 63.1385ZM188.189 62.666C187.779 61.2819 187.34 59.9203 186.886 58.6177L187.844 58.2523C188.303 59.5706 188.747 60.9489 189.163 62.3487L188.189 62.666ZM54.3236 60.3162C53.3904 58.9812 52.6133 57.8849 51.8766 56.8672L52.69 56.2228C53.4297 57.2454 54.2107 58.3456 55.1458 59.6856L54.3236 60.3162ZM77.4589 59.5225L76.4412 59.4537C76.5188 58.2032 76.5974 56.7965 76.6819 55.155L77.6996 55.2129C77.6151 56.8593 77.5365 58.269 77.4589 59.5235V59.5225ZM17.4767 56.8957L16.5435 56.4644C17.1034 55.1363 17.7 53.8344 18.3333 52.5586L19.238 53.0498C18.6172 54.3059 18.0301 55.5878 17.4767 56.8957ZM144.184 56.8957L143.331 56.3063C144.056 55.153 144.805 53.931 145.563 52.6961L146.421 53.2728C145.665 54.5125 144.916 55.7365 144.188 56.8947L144.184 56.8957ZM124.979 55.317C124.517 54.1038 124.04 52.7806 123.519 51.2707L124.479 50.9083C124.995 52.4063 125.468 53.7197 125.926 54.9212L124.979 55.317ZM185.382 54.651C184.834 53.314 184.253 52.0154 183.658 50.7904L184.566 50.3061C185.172 51.5507 185.762 52.871 186.319 54.2296L185.382 54.651ZM49.3588 53.485C48.4325 52.2816 47.5719 51.2118 46.7252 50.2128L47.4875 49.5035C48.345 50.5163 49.2174 51.5989 50.1526 52.815L49.3588 53.485ZM77.9118 50.9063L76.8931 50.8533C76.9619 49.4259 77.0306 48.0044 77.1033 46.5466L78.122 46.6026C78.0493 48.0545 77.9805 49.4809 77.9118 50.9063ZM148.661 49.6685L147.81 49.0791C148.663 47.7294 149.424 46.5614 150.14 45.5093L150.971 46.1291C150.262 47.1714 149.504 48.3316 148.661 49.6685ZM21.2646 49.367L20.4051 48.7933C21.1463 47.5654 21.9667 46.387 22.8609 45.2657L23.6399 45.9533C22.775 47.0385 21.9816 48.1788 21.2646 49.367ZM122.162 47.195C121.694 45.7598 121.235 44.3246 120.848 43.1094L121.815 42.7715C122.202 43.9847 122.66 45.4238 123.127 46.8502L122.162 47.195ZM43.9205 47.1203C42.9603 46.1322 41.9435 45.2007 40.8753 44.3305L41.4971 43.4846C42.5969 44.3801 43.6438 45.3385 44.6327 46.3551L43.9205 47.1203ZM181.681 47.0751C180.95 45.8266 180.184 44.6458 179.404 43.5652L180.218 42.9208C181.018 44.0289 181.803 45.2391 182.551 46.5172L181.681 47.0751ZM26.5005 43.0475L25.8827 42.1988C27.1008 41.2262 28.368 40.5239 29.65 40.1132L29.9447 41.1349C28.7825 41.5101 27.6224 42.1536 26.5005 43.0495V43.0475ZM153.434 42.7224L152.641 42.0504C153.507 40.921 154.431 39.837 155.409 38.8028L156.13 39.5582C155.178 40.5658 154.278 41.6219 153.434 42.7224ZM78.3529 42.3029L77.3322 42.241C77.4206 40.6899 77.508 39.2802 77.6004 37.9324L78.6181 38.009C78.5258 39.3499 78.4383 40.7557 78.3499 42.3029H78.3529ZM37.5048 42.0799C36.2278 41.4168 34.9802 40.9934 33.7847 40.8215L33.9232 39.7635C35.2297 39.9511 36.5873 40.4089 37.9597 41.1231L37.5048 42.0799ZM176.783 40.3539C175.856 39.3492 174.845 38.4248 173.762 37.5906L174.362 36.7271C175.491 37.5971 176.545 38.5606 177.513 39.6073L176.783 40.3539ZM119.543 39.0238C119.036 37.4344 118.617 36.1396 118.227 34.9471L119.192 34.6003C119.585 35.7958 120.002 37.0935 120.51 38.6849L119.543 39.0238ZM159.18 36.8292L158.59 35.954C159.844 35.0355 161.111 34.3557 162.355 33.9323L162.67 34.948C161.531 35.338 160.354 35.9716 159.183 36.8292H159.18ZM170.308 35.5217C169.103 34.9793 167.82 34.6328 166.507 34.4952L166.605 33.4323C168.022 33.5798 169.407 33.9528 170.706 34.5374L170.308 35.5217ZM78.9442 33.7201L77.9285 33.6219C78.0552 32.1238 78.1937 30.6748 78.3391 29.3211L79.3529 29.441C79.2075 30.7917 79.07 32.2299 78.9442 33.7201ZM116.874 30.886C116.383 29.4459 115.917 28.1296 115.454 26.8584L116.407 26.4772C116.872 27.7543 117.339 29.0756 117.834 30.5226L116.874 30.886ZM79.8716 25.1884L78.8627 25.0352C79.069 23.54 79.2949 22.1028 79.5366 20.7619L80.5386 20.9584C80.3008 22.2846 80.0759 23.707 79.8716 25.1874V25.1884ZM113.943 22.875C113.395 21.4948 112.842 20.1745 112.301 18.9505L113.226 18.5016C113.773 19.7383 114.331 21.0714 114.884 22.4644L113.943 22.875ZM81.4089 16.7844L80.4187 16.5251C80.7753 15.0348 81.1673 13.6301 81.5848 12.3511L82.5494 12.6969C82.1378 13.9435 81.7538 15.3187 81.405 16.7805L81.4089 16.7844ZM110.486 15.1223C109.816 13.7991 109.131 12.5574 108.45 11.4316L109.312 10.8608C110.006 12.0092 110.705 13.2745 111.387 14.6213L110.486 15.1223ZM84.08 8.78023L83.1654 8.30772C83.7725 6.99167 84.5121 5.7409 85.3727 4.5748L86.1733 5.23592C85.3574 6.34345 84.656 7.53098 84.08 8.78023ZM106.113 7.96488C105.286 6.86648 104.372 5.83659 103.379 4.88522L104.067 4.09345C105.101 5.0838 106.054 6.15572 106.916 7.29885L106.113 7.96488ZM89.0202 2.46373L88.4701 1.56488C89.6591 0.763016 91.0082 0.229073 92.424 0L92.5792 1.05504C91.3035 1.26203 90.0881 1.74405 89.0172 2.46766L89.0202 2.46373ZM100.163 2.46373C99.0203 1.80957 97.7772 1.34917 96.4841 1.10121L96.6629 0.0501C98.0629 0.317993 99.4089 0.815904 100.646 1.52362L100.163 2.46373Z" fill="#DCE6FF"/>
<path d="M37.2378 146.819C37.2378 146.819 12.3971 82.9547 30.2729 68.7332C42.2212 59.228 54.8857 80.1815 70.002 69.0967C83.4602 59.228 79.1811 29.2025 100.643 25.0521C124.775 20.3859 130.088 76.3877 149.892 68.7332C173.922 59.4451 197.825 78.3003 177.168 146.941L37.2378 146.819Z" fill="#D4E8FF"/>
<path d="M199.155 124.802C190.692 123.489 192.072 135.354 180.008 135.354C168.978 135.354 165.449 90.1655 157.423 103.084C116.28 169.303 140.172 74.9233 107.45 73.7239C92.6552 73.1816 82.7934 89.6979 79.1587 118.94C73.8894 145.377 61.667 98.7767 49.089 103.11C41.0956 105.86 42.0111 135.354 30.9813 135.354C18.9171 135.354 20.2973 123.489 11.8344 124.802C2.72209 126.216 0 147.217 0 147.217H210.989C210.989 147.217 208.267 126.216 199.155 124.802Z" fill="#EEF7FF"/>
<path d="M191.659 137.645C183.873 137.085 185.144 142.151 174.045 142.151C163.898 142.151 164.176 130.796 157.386 128.383C144.881 123.938 134.571 146.431 129.722 135.143C120.515 105.189 93.6582 90.1672 81.2688 135.143C76.4199 146.431 65.0826 126.288 53.6049 128.383C46.5408 129.672 47.0929 142.151 36.9462 142.151C25.8457 142.151 27.1178 137.085 19.3317 137.645C10.9483 138.249 8.44434 147.217 8.44434 147.217H202.552C202.552 147.217 200.043 138.249 191.659 137.645Z" fill="#DCE6FF"/>
<path d="M0.158924 147.217C0.158924 147.217 -1.32148 153.767 4.81035 155.407C13.1986 157.649 62.4339 163.542 50.4729 168.021C43.7212 170.549 53.9199 173.982 86.808 175.245C119.696 176.508 176.127 171.556 157.15 164.229C138.173 156.902 215.491 162.461 210.786 147.217H0.158924Z" fill="#CFDDF9"/>
<path d="M107.304 83.6076C108.153 90.8595 97.3904 92.3049 96.2946 85.0863C95.4463 77.8336 106.21 76.389 107.304 83.6076Z" fill="#7689D6"/>
<path d="M79.8565 38.5342C75.8647 25.3441 86.3721 12.8396 100.042 14.086C118.018 16.0626 121.257 39.3613 110.75 51.349C105.722 56.5062 101.102 65.4555 101.366 71.8939C101.389 75.7071 98.2636 75.4052 97.1232 72.0074C93.1162 56.2671 101.835 52.0785 105.545 39.7072C108.44 19.7041 86.3547 22.8234 82.63 38.4646C82.2213 39.8071 80.2394 39.9486 79.8565 38.5342Z" fill="#7689D6"/>
<path d="M147.079 87.3453C146.272 92.0998 139.181 91.0193 139.826 86.2411C140.635 81.4865 147.725 82.5671 147.079 87.3453Z" fill="#FCB4B4"/>
<path d="M138.042 53.6846C137.959 44.5832 146.939 38.6066 155.372 41.9328C166.4 46.5204 164.132 61.8882 155.247 67.5397C151.103 69.8757 146.514 74.6912 145.488 78.822C144.795 81.2425 142.872 80.4723 142.777 78.1058C143.158 67.3835 149.457 66.3481 154.108 59.1946C159.653 47.0518 145.076 44.9319 139.813 54.1552C139.305 54.9293 138.023 54.6513 138.042 53.6846Z" fill="#FCB4B4"/>
<path d="M72.3815 99.1047C73.7823 102.346 69.0022 104.508 67.4923 101.32C66.0915 98.0821 70.8716 95.917 72.3815 99.1047Z" fill="#FCB4B4"/>
<path d="M53.414 82.0653C49.7331 76.517 52.857 69.2702 59.3552 67.946C67.9488 66.3615 72.6847 76.6919 69.4911 83.697C67.881 86.7826 66.9881 91.5656 68.0058 94.5088C68.5461 96.2691 67.0598 96.5638 66.0578 95.1502C62.0144 88.4231 65.4684 85.2737 65.4684 79.0328C64.0263 69.3744 54.2411 73.8883 54.692 81.6439C54.6851 82.3217 53.7873 82.6665 53.414 82.0653Z" fill="#FCB4B4"/>
<path d="M118.645 159.177L62.839 159.181C62.839 159.181 62.3772 156.168 65.3115 149.142C67.1171 144.819 76.917 139.613 77.0869 150.117C79.6676 138.705 94.2839 136.008 89.8938 154.131C89.9351 154.041 93.0373 147.319 98.5611 149.506C104.123 151.708 103.35 156.526 106.906 156.297C110.462 156.068 117.223 151.703 118.645 159.177Z" fill="#9AB1E8"/>
<path d="M112.419 159.182H66.4961C66.4961 159.182 66.7987 149.439 71.2595 146.129C75.6172 142.897 80.7215 147.46 82.2559 153.606C84.2629 158.622 88.8259 150.831 92.0057 150.598C92.5661 150.465 93.1497 150.465 93.7101 150.598C96.611 151.309 96.4067 156.715 100.608 156.715C105.204 156.715 105.09 154.199 108.321 154.135C112.047 154.068 112.419 159.182 112.419 159.182Z" fill="#ABC1EF"/>
<path d="M110.549 30.6211C107.791 30.6188 105.089 31.3967 102.756 32.8643C100.424 34.3319 98.5568 36.4291 97.3721 38.9123C96.1874 41.3955 95.7337 44.1628 96.0635 46.8928C96.3934 49.6228 97.4933 52.2035 99.2355 54.3352L90.1011 63.374C89.9574 63.5163 89.8432 63.6853 89.765 63.8716C89.6869 64.0578 89.6463 64.2575 89.6455 64.4594C89.644 64.8671 89.8051 65.2587 90.0932 65.548C90.3813 65.8374 90.7729 66.0007 91.1819 66.0022C91.5908 66.0037 91.9836 65.8431 92.2739 65.5559L101.426 56.4981C103.692 58.3157 106.453 59.4153 109.352 59.6556C112.251 59.8958 115.155 59.2657 117.692 57.8463C118.024 57.6346 118.262 57.3045 118.357 56.9237C118.452 56.5428 118.398 56.14 118.204 55.798C118.011 55.4559 117.694 55.2005 117.318 55.0841C116.942 54.9677 116.536 54.9992 116.182 55.172C113.757 56.5288 110.921 56.9635 108.198 56.3956C105.476 55.8278 103.053 54.2959 101.377 52.0836C99.7004 49.8713 98.885 47.1284 99.0814 44.3627C99.2778 41.5971 100.473 38.9961 102.445 37.0413C104.417 35.0865 107.033 33.9104 109.808 33.7306C112.583 33.5508 115.33 34.3796 117.539 36.0635C119.749 37.7474 121.271 40.1723 121.825 42.8893C122.379 45.6063 121.926 48.4314 120.551 50.8414C120.349 51.196 120.296 51.6163 120.404 52.0099C120.512 52.4034 120.773 52.7379 121.129 52.9398C121.485 53.1418 121.906 53.1946 122.301 53.0866C122.696 52.9786 123.031 52.7187 123.234 52.3641C124.497 50.1512 125.156 47.6465 125.144 45.1001C125.133 42.5538 124.451 40.0552 123.167 37.8541C121.882 35.6529 120.041 33.8264 117.827 32.5571C115.613 31.2879 113.103 30.6203 110.549 30.6211Z" fill="#7D6AD6"/>
<path d="M65.3755 163.705C64.5739 166.128 64.5708 166.379 64.5645 166.872C64.5645 166.905 64.5645 166.944 64.5645 166.944V167.753L66.1897 168.563L67.8133 169.373C70.5825 169.335 71.9585 169.348 72.6875 169.373H72.82C73.6633 169.391 74.5038 169.269 75.3068 169.011C75.5766 168.92 75.8638 168.171 75.1206 167.753C73.1466 166.651 71.7234 167.265 70.2465 166.134C70.0617 165.993 69.9017 165.822 69.7731 165.629C69.6727 165.516 69.5612 165.414 69.4402 165.324C68.678 164.751 68.2978 164.463 65.3755 163.705Z" fill="#23357F"/>
<path d="M82.4262 165.348C82.4352 165.95 82.4131 166.553 82.3599 167.154C82.2779 168.097 82.1706 168.47 82.3773 168.829C82.6755 169.346 83.3903 169.406 83.78 169.433C86.849 169.648 88.4948 169.387 88.4948 169.387C91.9235 169.181 93.0896 168.727 92.9681 168.67C92.8466 168.613 93.0912 168.143 92.9807 167.799C92.7708 167.143 91.3713 167.308 89.7334 166.977C88.6667 166.763 88.5137 166.542 87.3019 166.144C85.7256 165.637 84.0821 165.369 82.4262 165.348Z" fill="#23357F"/>
<path d="M69.4349 165.326C69.4349 165.326 71.928 156.86 74.3075 149.123C78.238 136.358 79.5887 132.968 78.8834 130.744C78.8155 130.53 78.6009 130.234 78.3642 129.69C76.8416 126.182 78.0187 124.447 76.739 123.212C75.6345 122.144 74.0566 122.771 73.4901 121.593C73.1256 120.836 73.5043 119.974 73.4901 119.973C73.2298 119.933 71.8838 127.766 70.2412 136.978C67.8018 150.703 65.375 163.706 65.375 163.706C65.375 163.706 66.0204 164.911 66.9987 165.326C67.7418 165.644 70.2428 165.255 69.4349 165.326Z" fill="#7D6AD6"/>
<path d="M73.4954 111.931C76.1131 110.388 79.7833 113.967 82.431 111.931C83.3998 111.185 83.5955 110.177 84.0546 110.265C85.0897 110.465 84.9162 115.741 84.8673 117.759C84.7095 124.146 85.6672 130.518 85.6799 136.908C85.6925 143.177 85.9876 152.62 87.3035 166.048C87.0731 166.185 86.8338 166.307 86.5872 166.413C86.041 166.656 85.4611 166.815 84.8673 166.885C84.5979 166.926 84.324 166.926 84.0546 166.885C83.6807 166.817 83.3998 166.668 82.431 166.051C80.2651 152.451 78.0991 138.852 75.9332 125.252C75.2295 124.837 72.8516 123.312 71.8717 120.256C70.9329 117.328 71.3447 113.199 73.4954 111.931Z" fill="#5E49CB"/>
<path d="M95.4265 68.1557C95.0683 67.7624 95.1361 67.3314 95.4265 64.9167C95.7421 62.2079 95.7925 61.6714 96.2375 60.8676C96.5263 60.3469 97.1716 59.1813 97.8627 59.2489C98.7558 59.3354 99.469 61.4591 99.4864 63.298C99.5132 66.1563 97.8627 68.9611 97.8627 68.9611C97.8627 68.9611 96.1129 68.9123 95.4265 68.1557Z" fill="#F0CA89"/>
<path d="M88.1154 63.3009C88.0065 62.6827 88.3127 62.0707 88.928 60.8705C89.5797 59.5979 89.9174 58.9828 90.5517 58.4417C91.3185 57.7967 92.5525 57.2461 92.988 57.6315C93.6191 58.1884 92.3757 60.4992 92.1769 60.8705C90.9462 63.1625 88.9312 64.9164 88.928 64.9196C88.9706 64.9715 89.0227 65.0297 89.0306 65.0234C89.0653 64.9982 88.2732 64.2023 88.1154 63.3009Z" fill="#F0CA89"/>
<path d="M80.3997 87.1863C80.5906 87.3845 81.8482 88.6792 83.6486 88.805C84.488 88.8648 85.621 88.6933 87.7101 87.1863C89.826 85.6573 93.1396 83.2662 94.2079 79.0881C94.6102 77.5151 94.6118 75.7422 94.6134 72.2059C94.6134 70.0508 94.6134 68.9749 94.6134 68.967C94.5439 68.6319 94.4635 68.3692 94.6134 68.1569C95.0867 67.4852 97.4425 67.8879 97.8623 68.967C97.9527 69.2295 97.9527 69.5146 97.8623 69.7771C97.0733 72.305 99.2445 78.7719 97.0496 84.3516C95.5901 88.0625 92.3854 90.9082 89.7393 93.2584C88.0777 94.7355 87.3361 95.1083 86.4904 96.4973C85.5436 98.061 85.2801 99.5617 84.8667 105.406C84.4675 110.965 84.5906 111.279 84.0541 111.884C81.2928 114.994 72.6838 112.692 72.6838 112.692C72.6838 112.692 73.326 108.382 73.4948 107.029C74.3469 100.199 71.8743 98.6477 72.6838 92.4545C73.2787 87.8926 75.1848 84.3799 75.1201 84.3564C75.0554 84.3328 73.7946 88.4794 73.4948 88.4054C73.0593 88.2969 72.9236 78.8223 78.369 73.0208C79.5887 71.7214 80.7879 70.9255 83.2415 68.1616C85.0024 66.1748 87.3077 63.3008 87.3077 63.3008L89.744 64.1093C89.744 64.1093 87.8016 67.3404 87.3077 68.1569C84.6253 72.5615 83.1184 73.3401 81.774 75.3332C81.4094 75.8849 81.0871 76.4634 80.81 77.0636C79.6865 79.3461 78.2096 82.335 79.1816 85.1665C79.4386 85.9186 79.8539 86.6073 80.3997 87.1863Z" fill="#D676BE"/>
<path d="M83.2416 81.1121C82.2192 83.8005 80.6507 85.1534 79.9927 85.1612H79.1817L79.9123 86.6258L79.9927 86.7831C79.8354 86.9231 79.667 87.0504 79.4894 87.1638C79.1546 87.3919 78.771 87.5389 78.3691 87.5932C77.7521 87.642 77.0452 87.31 76.7439 86.7831C76.403 86.1837 76.6555 85.4711 76.7439 85.1644C77.375 82.9448 75.136 81.0429 74.7147 78.6865C74.1293 75.4223 76.9474 70.9941 79.5872 70.9941C81.7158 70.9941 83.6156 73.876 84.0542 76.2576C84.3951 78.0871 83.8365 79.5328 83.2416 81.1121Z" fill="#F0CA89"/>
<path d="M79.9127 86.627C79.3194 86.4697 78.6377 86.2385 78.3695 85.9726C78.1896 85.7917 78.0287 85.4692 77.7036 84.8274C77.65 84.7236 77.4906 84.4027 77.5569 84.3555C77.5884 84.3319 77.6484 84.3807 77.8598 84.4751C77.9734 84.527 77.9876 84.5285 78.1233 84.5836C78.319 84.667 78.7845 84.8746 79.4014 85.1656H79.1821L79.9127 86.627Z" fill="#E8AB58"/>
<path d="M83.2428 76.2558C82.9651 76.4572 82.3607 76.9338 80.8065 79.4948C79.2176 82.1108 78.9904 81.8874 77.7485 84.7646C77.2168 85.9994 76.9328 86.6523 76.745 87.5961C76.3221 89.715 76.9028 91.3998 77.5576 94.074C78.8199 99.2557 80.1627 99.5578 79.9939 102.172C79.7998 105.207 77.8306 107.373 75.934 109.459C73.6208 112.004 71.8314 112.531 71.0599 112.698C69.8181 112.97 68.652 112.872 68.6236 112.698C68.5841 112.463 70.6749 112.444 71.8725 111.079C73.2011 109.558 72.7135 107.162 72.6851 107.03C72.0539 104.129 69.3983 104.132 67.811 100.552C67.2392 99.2767 66.9615 97.8898 66.9984 96.4934C67.0804 94.634 67.7557 93.8947 68.6236 91.6358C69.4757 89.2858 70.0214 86.8364 70.2472 84.3477C70.5739 80.3317 69.6161 80.2231 70.2472 77.8698C70.9683 75.1767 73.0243 72.5135 75.9277 71.3919C76.6645 71.1072 79.3264 70.08 81.6081 71.3919C83.1655 72.2854 84.5366 74.258 84.0443 75.441C83.9071 75.8012 83.6704 75.9444 83.2428 76.2558Z" fill="#683EC0"/>
</svg>
