<svg width="24" height="24" viewBox="0 0 24 24" fill="none" xmlns="http://www.w3.org/2000/svg">
<path d="M20.4555 3.54185C18.3965 1.48605 15.0472 1.48605 12.9882 3.54185L8.63477 7.8908L13.5774 12.8284C14.5947 11.9821 15.8844 11.4522 17.3085 11.4522C18.1254 11.4522 18.9026 11.6217 19.6099 11.9244L20.4555 11.0015C22.514 8.94516 22.514 5.59882 20.4555 3.54185Z" fill="#191970"/>
<path d="M12.7542 13.6632L7.80466 8.71875L3.54384 12.9794C1.48539 15.0357 1.48539 18.3821 3.54384 20.439C5.60285 22.4947 8.99119 22.5339 11.0503 20.4781L11.914 19.6111C11.611 18.9045 11.4414 18.128 11.4414 17.312C11.4414 15.9259 11.9459 14.6677 12.7542 13.6632Z" fill="#191970"/>
<path d="M12.6152 17.3091C12.6152 19.6977 14.4099 21.6471 16.7219 21.9384V12.6797C14.4099 12.9711 12.6152 14.9204 12.6152 17.3091Z" fill="#191970"/>
<path d="M17.8945 12.6797V21.9384C20.2065 21.6471 22.0012 19.6977 22.0012 17.309C22.0012 14.9204 20.2065 12.9711 17.8945 12.6797Z" fill="#191970"/>
</svg>
