<svg width="81" height="35" viewBox="0 0 81 35" fill="none" xmlns="http://www.w3.org/2000/svg">
<line x1="5.5" y1="34.3047" x2="80.5" y2="34.3047" stroke="#191970" stroke-opacity="0.7" stroke-linecap="round"/>
<path d="M45.654 6.76573C44.2923 5.98761 43.0546 7.31746 43.0546 7.31746C43.0546 7.31746 41.8153 5.98761 40.4553 6.76573C39.3083 7.42311 39.8818 9.4204 40.7656 10.5004C41.6493 11.5804 43.0546 12.335 43.0546 12.335C43.0546 12.335 44.47 11.5686 45.3437 10.5004C46.2174 9.43214 46.7993 7.42311 45.654 6.76573Z" fill="#EA8F7C"/>
<path d="M45.5825 0.143832C44.7826 -0.313985 44.0548 0.467491 44.0548 0.467491C44.0548 0.467491 43.327 -0.313985 42.527 0.143832C41.8562 0.529539 42.1916 1.70511 42.7098 2.33901C43.094 2.77097 43.5474 3.13596 44.0514 3.41898C44.5552 3.13557 45.0085 2.77063 45.393 2.33901C45.9196 1.70511 46.2566 0.529539 45.5825 0.143832Z" fill="#F0A28B"/>
<path d="M54.2896 7.15338C53.4897 6.69556 52.7619 7.47871 52.7619 7.47871C52.7619 7.47871 52.0341 6.69556 51.2342 7.15338C50.5634 7.54076 50.8988 8.71465 51.4153 9.35023C51.8001 9.78104 52.2534 10.1454 52.7569 10.4285C53.2604 10.1454 53.7136 9.78104 54.0985 9.35023C54.6267 8.71465 54.9638 7.54076 54.2896 7.15338Z" fill="#F0A28B"/>
<path d="M44.4726 20.6485C43.8571 20.4942 43.1662 19.6993 43.0891 19.4629C43.0891 19.4629 42.3814 21.3378 43.7213 22.6056L44.4726 20.6485Z" fill="#AB844B"/>
<path d="M48.1937 29.875V33.1636L46.5352 32.9422" stroke="#AB844B" stroke-width="1.38" stroke-miterlimit="10"/>
<path d="M46.5352 33.5143L48.1937 33.1621H48.9551" stroke="#AB844B" stroke-width="1.38" stroke-miterlimit="10"/>
<path d="M50.4339 29.875V33.1636L48.7754 32.9422" stroke="#AB844B" stroke-width="1.38" stroke-miterlimit="10"/>
<path d="M48.7754 33.5143L50.4339 33.1621H51.1953" stroke="#AB844B" stroke-width="1.38" stroke-miterlimit="10"/>
<path d="M55.4631 28.0649C56.2596 28.048 57.0498 27.9199 57.8108 27.6842C59.0032 27.3388 60.1184 26.6462 59.6186 25.7792C59.1189 24.9122 57.888 25.6568 57.888 25.6568C57.888 25.6568 58.272 24.5718 57.3849 24.6506C55.9578 24.773 56.0031 26.2773 55.0371 26.8642L55.4631 28.0649Z" fill="#91A390"/>
<path d="M56.4306 26.954C54.5859 29.721 49.0049 32.0621 45.4731 28.0692C42.0135 24.1534 44.467 20.6485 44.467 20.6485C44.467 20.6485 46.7879 19.317 49.0418 20.5714C52.7781 22.6475 52.1626 27.2995 56.4306 26.954Z" fill="#A3B9A2"/>
<path d="M54.263 28.9677C49.6111 30.6983 48.4355 23.3028 45.1352 22.793C44.6326 22.6919 44.1104 22.779 43.6679 23.0379C43.522 24.3895 43.8121 26.1806 45.4807 28.0688C48.0716 30.9985 51.7643 30.5189 54.2781 28.9627L54.263 28.9677Z" fill="#BCD3BA"/>
<path d="M47.059 22.2532C47.059 22.3596 47.0275 22.4637 46.9683 22.5522C46.9092 22.6408 46.8251 22.7097 46.7267 22.7505C46.6284 22.7912 46.5201 22.8019 46.4157 22.7811C46.3113 22.7604 46.2154 22.7091 46.1401 22.6338C46.0648 22.5585 46.0135 22.4626 45.9928 22.3582C45.972 22.2538 45.9827 22.1455 46.0234 22.0472C46.0641 21.9488 46.1331 21.8647 46.2217 21.8056C46.3102 21.7464 46.4143 21.7148 46.5207 21.7148C46.6635 21.7148 46.8004 21.7716 46.9014 21.8725C47.0023 21.9735 47.059 22.1104 47.059 22.2532Z" fill="#4F5B51"/>
<path d="M48.1006 24.3715C47.9329 24.6783 47.4063 24.7152 46.9267 24.452C46.4471 24.1887 46.2039 23.7258 46.375 23.4173C46.546 23.1087 47.0676 23.0819 47.5489 23.3384C48.0302 23.595 48.2716 24.0646 48.1006 24.3715Z" fill="#F9C5AF"/>
<path d="M55.364 21.2402C55.364 21.2402 56.2226 22.0636 55.4714 23.2291C55.6196 23.4987 55.6799 23.8078 55.6438 24.1133C55.6077 24.4188 55.477 24.7054 55.2701 24.933C55.2701 24.933 55.5837 25.4176 54.9867 26.3903C54.1482 27.752 52.4243 28.738 50.6668 28.2987C49.0686 27.9012 48.1916 25.7245 49.0921 24.4617C50.2039 22.8954 53.6518 23.1654 55.364 21.2402Z" fill="#91A390"/>
<path d="M55.4627 23.2305C54.7919 24.4999 52.3184 25.0752 52.3184 25.0752" stroke="#A3B9A2" stroke-width="0.69" stroke-miterlimit="10"/>
<path d="M55.2618 24.9336C54.7219 25.5457 53.8364 26.2265 52.9141 26.3775" stroke="#A3B9A2" stroke-width="0.69" stroke-miterlimit="10"/>
<path d="M23.1641 25.5V32.7412L26.8165 32.2515" stroke="#AB844B" stroke-width="1.94" stroke-miterlimit="10"/>
<path d="M26.8158 33.5153L23.1633 32.7422H21.4863" stroke="#AB844B" stroke-width="1.94" stroke-miterlimit="10"/>
<path d="M18.2324 25.5V32.7412L21.8849 32.2515" stroke="#AB844B" stroke-width="1.5" stroke-miterlimit="10"/>
<path d="M21.8841 33.5153L18.2317 32.7422H16.5547" stroke="#AB844B" stroke-width="1.5" stroke-miterlimit="10"/>
<path d="M38.179 19.4414C38.6267 20.3755 39.97 20.4577 39.97 20.4577C39.51 21.0066 38.921 21.4328 38.2557 21.698C37.5904 21.9631 36.8697 22.059 36.1582 21.977L38.179 19.4414Z" fill="#AB844B"/>
<path d="M9.85118 8.67556C7.6711 8.15402 8.79636 0.649509 5.90859 0.401315C4.38924 0.27051 4.3993 2.83965 4.3993 2.83965C1.35054 1.04528 -0.928479 2.70885 0.374538 5.47755C1.67756 8.24625 6.07629 10.8942 6.07629 10.8942L9.85118 8.67556Z" fill="#E86A6D"/>
<path d="M5.67773 7.52069C5.67773 7.52069 5.81693 20.2742 15.2785 25.176C24.1514 29.7726 31.2232 26.152 34.3156 23.6298C37.408 21.1076 38.1727 19.4373 38.1727 19.4373C38.1727 19.4373 38.1861 17.6715 37.3996 14.5959C36.4236 10.7724 33.3111 6.19252 27.0677 5.72799C19.4273 5.16117 14.4651 11.4264 5.67773 7.52069Z" fill="#EA8F7C"/>
<path d="M25.7459 17.0784C17.9345 19.4597 11.4546 20.1774 6.50586 13.0352C7.5523 17.1119 9.91853 22.3994 15.2849 25.1749C24.1578 29.7715 31.2297 26.1509 34.322 23.6287C37.4144 21.1065 38.1791 19.4362 38.1791 19.4362C38.1791 19.4362 33.564 14.7054 25.7459 17.0784Z" fill="#F0A28B"/>
<path d="M10.9643 6.17188C10.9643 6.17188 9.14137 7.92265 10.7362 10.4046C10.4206 10.9768 10.2921 11.6334 10.3685 12.2824C10.4448 12.9314 10.7224 13.5402 11.1621 14.0235C11.1621 14.0235 10.4913 15.0532 11.7642 17.1159C13.5401 20.0087 17.206 22.0982 20.9373 21.1692C24.3298 20.3307 26.1946 15.7022 24.2795 13.0224C21.9032 9.68851 14.5798 10.262 10.9643 6.17188Z" fill="#E86A6D"/>
<path d="M10.7363 10.4062C12.1668 13.1028 17.4124 14.3321 17.4124 14.3321" stroke="#EA8F7C" stroke-width="0.73" stroke-miterlimit="10"/>
<path d="M11.1621 14.0156C12.3108 15.3136 14.1891 16.7575 16.1595 17.0795" stroke="#EA8F7C" stroke-width="0.73" stroke-miterlimit="10"/>
<path d="M30.5123 18.5146C30.815 17.7839 30.253 16.857 29.257 16.4445C28.261 16.0319 27.2082 16.2899 26.9055 17.0206C26.6028 17.7514 27.1648 18.6782 28.1608 19.0908C29.1568 19.5033 30.2096 19.2454 30.5123 18.5146Z" fill="#F9C5AF"/>
<path d="M31.347 15.5703C31.347 15.5703 31.3336 15.6592 31.3185 15.8084C31.2954 16.0111 31.2842 16.2149 31.285 16.4189C31.2877 16.5487 31.3 16.6782 31.3219 16.8062C31.3324 16.8728 31.3481 16.9384 31.3688 17.0025L31.399 17.0997L31.4426 17.1903C31.4709 17.2496 31.5052 17.3057 31.5449 17.358C31.5871 17.4068 31.6318 17.4533 31.6791 17.4972C31.7892 17.5794 31.9122 17.6429 32.043 17.685L32.1034 17.7034C32.1218 17.7034 32.1336 17.7034 32.1503 17.7118C32.1806 17.7192 32.2114 17.7237 32.2426 17.7252C32.3067 17.732 32.3713 17.732 32.4354 17.7252C32.5657 17.7021 32.69 17.6531 32.801 17.581C33.0212 17.4262 33.213 17.2344 33.3678 17.0142C33.4884 16.849 33.6003 16.6777 33.7032 16.501L33.8239 16.2948C33.8199 16.3759 33.8098 16.4566 33.7938 16.5363C33.7565 16.7485 33.6946 16.9556 33.6093 17.1534C33.4892 17.453 33.2988 17.7193 33.0542 17.9298C32.8992 18.058 32.7158 18.1471 32.5193 18.1898C32.4156 18.2112 32.3096 18.2185 32.204 18.2116C32.1476 18.2092 32.0914 18.2019 32.0363 18.1898C32.0095 18.1898 31.9793 18.1797 31.9558 18.173L31.8937 18.1545C31.7967 18.122 31.7025 18.0816 31.612 18.0338C31.5657 18.0118 31.5224 17.9842 31.4829 17.9516L31.3605 17.856C31.2864 17.785 31.2201 17.7063 31.1626 17.6213C31.1094 17.5391 31.0666 17.4507 31.0351 17.358C31.02 17.3127 31.0049 17.2674 30.9915 17.2238C30.9781 17.1802 30.9748 17.1349 30.968 17.0913C30.9538 17.0077 30.9476 16.9229 30.9496 16.8381C30.9497 16.6886 30.9666 16.5395 30.9999 16.3937C31.0457 16.1824 31.1184 15.9778 31.2162 15.785C31.2498 15.7145 31.2833 15.6625 31.3034 15.6273L31.347 15.5703Z" fill="#4F5B51"/>
<path d="M33.3289 17.4746L33.349 17.5283C33.359 17.5585 33.3825 17.6071 33.4094 17.6658C33.4362 17.7245 33.4748 17.7916 33.52 17.862L33.5905 17.971C33.6154 18.0082 33.6423 18.044 33.671 18.0783C33.7225 18.1505 33.7785 18.2194 33.8387 18.2846L33.9259 18.3768C33.9516 18.4038 33.979 18.429 34.0081 18.4523L34.1858 18.6083L33.9661 18.516C33.9343 18.5009 33.8957 18.4892 33.8605 18.4691L33.7448 18.407C33.6593 18.3628 33.577 18.313 33.4982 18.2578C33.458 18.2293 33.4144 18.2058 33.3775 18.1739L33.2635 18.0834C33.1897 18.0247 33.1276 17.9626 33.0706 17.9157C33.0244 17.8706 32.9808 17.823 32.9398 17.7731L32.8945 17.7161L33.3289 17.4746Z" fill="#4F5B51"/>
<path d="M31.3996 17.3536L31.3476 17.3821C31.3042 17.4059 31.2622 17.4322 31.2218 17.461C31.1699 17.4995 31.1045 17.5431 31.0424 17.5985L30.9451 17.684C30.9111 17.7136 30.8786 17.7449 30.8479 17.7779C30.7845 17.8413 30.7252 17.9085 30.6701 17.9791L30.5913 18.0781C30.5682 18.1075 30.5469 18.1383 30.5276 18.1703L30.3984 18.3682C30.3984 18.3682 30.4219 18.276 30.4588 18.1385C30.4675 18.1005 30.4782 18.063 30.4907 18.0261C30.5058 17.9875 30.5209 17.9456 30.536 17.9037C30.5673 17.8129 30.6048 17.7243 30.6483 17.6387C30.6683 17.5934 30.6907 17.5492 30.7154 17.5062L30.7875 17.3821C30.8324 17.3076 30.8811 17.2354 30.9334 17.1658C30.9804 17.1054 31.0189 17.0551 31.0558 17.0166L31.1061 16.9629L31.3996 17.3536Z" fill="#4F5B51"/>
<path d="M32.4648 17.9023C32.4648 17.9023 32.4648 17.9225 32.4648 17.9594C32.4623 18.0091 32.4623 18.0589 32.4648 18.1086C32.4648 18.1723 32.4648 18.2512 32.4782 18.3333L32.4933 18.4625C32.4933 18.5077 32.5101 18.5497 32.5185 18.5949C32.5343 18.6837 32.5567 18.7711 32.5856 18.8565C32.5973 18.8985 32.6107 18.9387 32.6225 18.9756C32.633 19.0119 32.6464 19.0472 32.6627 19.0813L32.7549 19.2993L32.5973 19.1198C32.5705 19.0916 32.5453 19.062 32.5218 19.031C32.4984 18.9974 32.4732 18.9605 32.4464 18.9253C32.389 18.8478 32.3369 18.7666 32.2904 18.6821C32.2669 18.6402 32.2384 18.5983 32.2183 18.553C32.1982 18.5077 32.1764 18.4658 32.1563 18.4239C32.116 18.3384 32.0875 18.2562 32.059 18.1824C32.0378 18.1208 32.0199 18.0581 32.0053 17.9946L31.9902 17.9241L32.4648 17.9023Z" fill="#4F5B51"/>
</svg>
