<svg width="24" height="24" viewBox="0 0 24 24" fill="none" xmlns="http://www.w3.org/2000/svg">
<path d="M11.4375 8.58789C11.4375 8.27705 11.1859 8.02539 10.875 8.02539H9.98299L11.2727 6.7356C11.4337 6.57461 11.482 6.33291 11.3947 6.12256C11.3079 5.91221 11.1024 5.77539 10.875 5.77539H8.62514C8.31432 5.77539 8.06267 6.02705 8.06267 6.33789C8.06267 6.64873 8.31432 6.90039 8.62514 6.90039H9.51719L8.22746 8.19018C8.06648 8.35117 8.01814 8.59287 8.10544 8.80322C8.1923 9.01357 8.39766 9.15039 8.62514 9.15039H10.875C11.1859 9.15039 11.4375 8.89873 11.4375 8.58789Z" fill="#191970"/>
<path d="M12.6055 5.42822C12.6923 5.63857 12.8978 5.77539 13.1251 5.77539H15.375C15.6858 5.77539 15.9375 5.52373 15.9375 5.21289C15.9375 4.90205 15.6858 4.65039 15.375 4.65039H14.4829L15.7727 3.3606C15.9337 3.19961 15.982 2.95791 15.8947 2.74756C15.8078 2.53721 15.6023 2.40039 15.375 2.40039H13.1251C12.8143 2.40039 12.5626 2.65205 12.5626 2.96289C12.5626 3.27373 12.8143 3.52539 13.1251 3.52539H14.0171L12.7274 4.81518C12.5664 4.97617 12.5181 5.21787 12.6055 5.42822Z" fill="#191970"/>
<path d="M19.912 11.4004H11.9999C11.0695 11.4004 10.3125 12.1574 10.3125 13.0879V15.3379C10.3125 15.6487 10.5641 15.9004 10.875 15.9004H21.5994V13.0879C21.5994 12.1574 20.8425 11.4004 19.912 11.4004Z" fill="#191970"/>
<path d="M9.18756 15.3379V14.7754H3.52534V8.58789C3.52534 8.27705 3.27369 8.02539 2.96286 8.02539C2.65204 8.02539 2.40039 8.27705 2.40039 8.58789V21.0379C2.40039 21.3487 2.65204 21.6004 2.96286 21.6004C3.27369 21.6004 3.52534 21.3487 3.52534 21.0379V19.3129H20.4745V21.0379C20.4745 21.3486 20.7263 21.6004 21.037 21.6004C21.3476 21.6004 21.5994 21.3486 21.5994 21.0379V17.0254H10.875C9.94308 17.0254 9.18756 16.2698 9.18756 15.3379Z" fill="#191970"/>
<path d="M9.18733 11.9629C9.18733 12.8948 8.4318 13.6504 7.49992 13.6504C6.56803 13.6504 5.8125 12.8948 5.8125 11.9629C5.8125 11.031 6.56803 10.2754 7.49992 10.2754C8.4318 10.2754 9.18733 11.031 9.18733 11.9629Z" fill="#191970"/>
</svg>
