<svg width="24" height="24" viewBox="0 0 24 24" fill="none" xmlns="http://www.w3.org/2000/svg">
<path d="M1.19922 15.5996H18.4792V19.3796H1.19922V15.5996Z" fill="#191970"/>
<path d="M19.5586 15.5996H22.7986V19.3796H19.5586V15.5996Z" fill="#191970"/>
<path d="M20.4262 13.536C20.4262 11.4141 19.0377 9.79149 17.2217 9.79149C14.8717 9.79149 12.949 7.54476 12.949 4.79883H11.8809C11.8809 8.29367 14.2308 11.0399 17.2219 11.0399C18.397 11.0399 19.3584 12.1633 19.3584 13.5364L20.4262 13.536Z" fill="#191970"/>
<path d="M17.2221 7.29526C16.0471 7.29526 15.0857 6.1719 15.0857 4.79883H14.0176C14.0176 6.92081 15.4062 8.54338 17.2221 8.54338C19.5721 8.54338 21.4948 10.7901 21.4948 13.536H22.563C22.563 10.0414 20.213 7.29548 17.2223 7.29548L17.2221 7.29526Z" fill="#191970"/>
</svg>
