<svg width="24" height="24" viewBox="0 0 24 24" fill="none" xmlns="http://www.w3.org/2000/svg">
<path d="M16.7714 7.6843C15.2186 7.6843 13.7786 8.1583 12.5992 8.96373C11.9948 8.55102 11.3219 8.22548 10.6006 8.00603L12.4594 5.64323C12.5768 5.49394 12.5901 5.27687 12.4915 5.11544L10.9871 2.64983C10.8975 2.50297 10.7113 2.40039 10.5344 2.40039H6.24188C6.06201 2.40039 5.87541 2.50607 5.78807 2.65744L4.35613 5.13883C4.26391 5.29847 4.27819 5.51268 4.39087 5.65977L6.20077 8.02251C3.30142 8.92832 1.19922 11.5532 1.19922 14.6423C1.19922 18.479 4.44162 21.6004 8.42696 21.6004C9.9798 21.6004 11.4198 21.1264 12.5992 20.321C13.7786 21.1264 15.2186 21.6004 16.7715 21.6004C20.7569 21.6004 23.9992 18.479 23.9992 14.6423C23.9992 10.8056 20.7568 7.6843 16.7714 7.6843ZM12.5992 17.8982C11.8486 17.0085 11.398 15.8752 11.398 14.6423C11.398 13.4095 11.8485 12.2761 12.5992 11.3864C13.3498 12.2761 13.8004 13.4094 13.8004 14.6423C13.8004 15.8752 13.3498 17.0085 12.5992 17.8982ZM3.0535 14.6423C3.0535 11.7899 5.46407 9.46938 8.42696 9.46938C9.44125 9.46938 10.3907 9.74143 11.201 10.2135C10.1662 11.4176 9.54367 12.9612 9.54367 14.6423C9.54367 16.3234 10.1662 17.8671 11.201 19.0711C10.3907 19.5432 9.44125 19.8152 8.42696 19.8152C5.46407 19.8152 3.0535 17.4947 3.0535 14.6423ZM16.7714 19.8152C15.7571 19.8152 14.8077 19.5432 13.9974 19.0711C15.0322 17.8671 15.6547 16.3234 15.6547 14.6423C15.6547 12.9612 15.0322 11.4176 13.9974 10.2135C14.8077 9.74143 15.7571 9.46938 16.7714 9.46938C19.7344 9.46938 22.1449 11.79 22.1449 14.6423C22.1449 17.4947 19.7344 19.8152 16.7714 19.8152Z" fill="#191970"/>
</svg>
