<svg width="22" height="18" viewBox="0 0 22 18" fill="none" xmlns="http://www.w3.org/2000/svg">
<path d="M11.7181 12.8081C12.0183 12.6071 12.3928 12.5493 12.7402 12.6502C13.7871 13.0245 14.1151 13.9935 13.7696 14.5322C13.2586 14.9437 13.6743 16.3367 14.3064 16.5652C14.9999 17.4824 15.7118 17.5941 16.9367 17.1403C17.3141 17.1284 18.2172 16.9169 18.6308 16.1145C18.7442 15.8954 18.9021 15.702 19.0942 15.5464C20.0839 14.7445 20.7779 13.7348 20.879 12.6058H20.8791C20.8961 12.4021 20.9502 12.2031 21.039 12.0186C21.7255 10.6159 21.9315 9.4214 21.705 7.97491C21.676 7.80393 21.674 7.62938 21.6993 7.45773C21.8665 6.39939 21.8621 5.00722 21.3862 3.95128C21.2989 3.75112 21.2455 3.538 21.228 3.3205C21.1146 2.0957 20.0052 0.830111 18.883 0.645643C17.5111 0.4202 16.99 1.04839 16.6337 1.97077H16.6339C16.5558 2.17255 16.4289 2.35229 16.2643 2.49347C15.8382 2.82636 15.5382 3.29312 15.4134 3.8176C15.3526 4.05358 15.2282 4.26881 15.0537 4.43996C14.4234 5.0714 14.1433 5.61987 13.5641 6.49246C13.0527 7.26165 12.2415 7.63473 10.9993 7.63473C9.7571 7.63473 8.94587 7.26197 8.43466 6.49117C7.85534 5.61987 7.57537 5.07061 6.9449 4.43996C6.77037 4.26897 6.64587 4.05374 6.58509 3.81776C6.46026 3.29328 6.16024 2.82651 5.73414 2.49363C5.56955 2.35247 5.4426 2.17289 5.36454 1.97094C5.00832 1.04939 4.48719 0.421055 3.11523 0.645809C1.99262 0.830086 0.883687 2.0957 0.770424 3.3205C0.752988 3.538 0.699538 3.75113 0.61219 3.95128C0.136363 5.00767 0.131941 6.40035 0.299148 7.45773C0.324407 7.62937 0.322451 7.80392 0.293444 7.97491C0.0667691 9.4214 0.272749 10.6159 0.959461 12.0186C1.04827 12.2031 1.10238 12.4021 1.11932 12.6058C1.22036 13.7356 1.91454 14.7451 2.90403 15.5464H2.90419C3.09632 15.702 3.25423 15.8954 3.36763 16.1145C3.78122 16.9171 4.68431 17.1284 5.06173 17.1403C6.28734 17.5941 6.99929 17.4824 7.69205 16.5652C8.32415 16.3366 8.74053 14.9435 8.22883 14.5322C7.88336 13.9925 8.21058 13.0244 9.25824 12.6502C9.60567 12.5493 9.98016 12.6071 10.2803 12.8081C10.4858 12.9272 11.5128 12.9272 11.7181 12.8081H11.7181Z" fill="#191970"/>
</svg>
