<svg width="26" height="26" viewBox="0 0 26 26" fill="none" xmlns="http://www.w3.org/2000/svg">
<circle cx="13" cy="13" r="13" fill="#191970"/>
<path d="M21.0241 7.6809C20.3996 7.96378 19.7354 8.14888 19.0546 8.22975C19.7777 7.78604 20.3137 7.09322 20.5614 6.28179C19.9001 6.69318 19.1715 6.98466 18.4089 7.14279C18.0908 6.79923 17.7042 6.52599 17.2742 6.34065C16.8442 6.15531 16.3802 6.06195 15.912 6.06657C15.4569 6.07219 15.0075 6.16739 14.5892 6.34676C14.1709 6.52612 13.792 6.78612 13.4742 7.11191C13.1564 7.43771 12.9059 7.82292 12.737 8.24554C12.568 8.66817 12.484 9.11992 12.4897 9.57502C12.4858 9.84301 12.5147 10.1105 12.5758 10.3714C11.205 10.3 9.86557 9.93546 8.64768 9.30238C7.42979 8.6693 6.36186 7.78241 5.51585 6.70153C5.2137 7.24082 5.05434 7.84836 5.05301 8.46652C5.05134 9.04062 5.18844 9.60662 5.45265 10.1163C5.71687 10.626 6.10041 11.0643 6.57052 11.3938C6.02637 11.371 5.49528 11.2198 5.0207 10.9526C5.0068 11.7625 5.27364 12.5523 5.77583 13.1879C6.27803 13.8235 6.9847 14.2657 7.77588 14.4395C7.48237 14.5261 7.17789 14.5696 6.87189 14.5687C6.65499 14.5696 6.43848 14.5479 6.22605 14.5041C6.43772 15.1989 6.86439 15.8087 7.44455 16.2458C8.02471 16.6828 8.72845 16.9246 9.45471 16.9364C8.23857 17.9238 6.71633 18.4566 5.14984 18.4431C4.87744 18.4594 4.60443 18.4594 4.33203 18.4431C5.89194 19.4679 7.71742 20.0141 9.58385 20.0143C10.8769 19.999 12.1542 19.7279 13.3421 19.2168C14.53 18.7058 15.605 17.9647 16.5053 17.0364C17.4056 16.1081 18.1134 15.0109 18.5879 13.8079C19.0623 12.605 19.294 11.32 19.2698 10.027C19.2698 9.87637 19.2698 9.71495 19.2698 9.56428C19.9461 9.07144 20.5262 8.4586 20.9811 7.75624L21.0241 7.6809Z" fill="white"/>
</svg>
