<svg width="21" height="17" viewBox="0 0 21 17" fill="none" xmlns="http://www.w3.org/2000/svg">
<path d="M18.9982 0.713787C18.4606 0.522169 17.8753 0.574087 17.3729 0.857758C17.3574 0.866468 15.8189 1.70619 13.551 1.40767C13.0643 0.958664 12.462 0.686636 11.8278 0.629057C11.7365 0.620859 11.6436 0.610612 11.5518 0.610612H9.34424C9.25252 0.610612 9.15954 0.620859 9.06829 0.629057C8.43589 0.685246 7.83484 0.955079 7.34864 1.40133C5.07801 1.70737 3.51854 0.864578 3.50372 0.856184C2.847 0.487975 2.06297 0.517692 1.43121 0.934915C0.79945 1.35197 0.409611 2.09726 0.400546 2.90491C0.391654 3.71273 0.764946 4.46791 1.38736 4.9017C1.31233 5.38879 1.46411 5.88453 1.79186 6.22389C2.1196 6.56307 2.5804 6.70106 3.02032 6.59176C3.46023 6.48263 3.82136 6.14039 3.98325 5.67945C4.14517 5.2185 4.08667 4.6995 3.8271 4.29579C3.56753 3.89189 3.14103 3.6562 2.69005 3.66748C2.23907 3.67875 1.82304 3.93544 1.58048 4.35179C1.14244 3.99947 0.896921 3.42855 0.927631 2.83439C0.958518 2.24023 1.26161 1.70348 1.73335 1.40767C2.20508 1.11186 2.7813 1.09718 3.26503 1.36856C3.32368 1.40135 4.50455 2.0471 6.34121 2.04692C6.49377 2.04692 6.65132 2.04214 6.81263 2.03258C6.75959 2.11233 6.70921 2.19499 6.66147 2.28055V2.28073C6.10658 3.2786 6.01957 4.50653 6.42732 5.58637C6.43029 5.59423 6.43356 5.60191 6.43731 5.6096L8.60047 10.115V10.1148C8.43652 10.4142 8.39503 10.7752 8.48597 11.1096C8.57691 11.4442 8.79203 11.7215 9.07875 11.874L9.41601 15.5213C9.43442 15.7086 9.51569 15.8816 9.64407 16.0069C9.77245 16.1323 9.9389 16.201 10.1109 16.1996H10.7853H10.7852C10.9577 16.2003 11.1244 16.1314 11.2536 16.0064C11.3829 15.8814 11.4657 15.7088 11.4863 15.5214V15.524L11.844 11.8605C12.12 11.7044 12.3256 11.4315 12.4129 11.1052C12.5003 10.7788 12.4616 10.4277 12.3062 10.1332L14.4596 5.60863C14.463 5.60129 14.466 5.59412 14.4689 5.58643H14.4688C14.8765 4.50676 14.7895 3.27883 14.2345 2.28078C14.187 2.19556 14.137 2.11342 14.0841 2.034C16.1761 2.15355 17.5477 1.40417 17.6112 1.36862H17.6114C18.0951 1.09725 18.6715 1.11194 19.1431 1.40773C19.6148 1.70353 19.9179 2.24047 19.9486 2.83481C19.9794 3.42897 19.7337 3.99987 19.2955 4.35221C19.0587 3.94557 18.6559 3.69076 18.216 3.66908C17.776 3.64739 17.354 3.86155 17.0848 4.24326C16.8157 4.62479 16.7332 5.12601 16.8636 5.58665C16.994 6.04707 17.3211 6.40929 17.7403 6.5572C18.1897 6.71586 18.6823 6.60621 19.0395 6.26806C19.3969 5.92991 19.5671 5.41211 19.4886 4.90215C19.946 4.5833 20.2751 4.08563 20.4092 3.51045C20.543 2.93526 20.4717 2.32572 20.2095 1.80623C19.9473 1.28675 19.5141 0.895974 18.998 0.713923L18.9982 0.713787ZM13.2081 2.67163C13.1962 2.70237 12.0107 5.77507 11.3282 8.20443C11.0477 9.20659 10.8765 10.2415 10.818 11.2877L10.7097 13.2035V13.2037C10.7013 13.3552 10.5868 13.4735 10.448 13.4741H10.445C10.3051 13.4724 10.191 13.3504 10.1862 13.1974L10.1198 11.362C10.079 10.2102 9.89684 9.06976 9.57817 7.97111C8.8762 5.56173 7.70217 2.70631 7.69035 2.67746C7.64184 2.55979 7.67132 2.42111 7.76211 2.3388C7.8529 2.25631 7.98268 2.2505 8.0794 2.32445C8.08548 2.32923 8.60977 2.72255 9.45574 2.9145C10.584 3.17033 11.7236 2.96608 12.8426 2.30718C12.9406 2.24946 13.0612 2.26568 13.1434 2.34783C13.2256 2.4298 13.2515 2.55977 13.2081 2.6718L13.2081 2.67163Z" fill="#191970"/>
</svg>
