<svg width="24" height="18" viewBox="0 0 24 18" fill="none" xmlns="http://www.w3.org/2000/svg">
<path d="M10.668 3.68754C10.3169 3.61421 9.97315 3.51037 9.64062 3.37713C10.1193 4.47507 10.9808 6.52412 11.5695 8.3432C11.775 8.97912 11.9351 9.62821 12.0484 10.286C12.154 9.71648 12.2933 9.15353 12.4658 8.59994C13.0562 6.70842 13.9557 4.46326 14.4253 3.32617C12.8918 3.9404 11.5618 3.87514 10.668 3.68768L10.668 3.68754Z" fill="#191970"/>
<path d="M22.2342 0.722481C21.5916 0.516272 20.8918 0.572144 20.2911 0.877415C20.2727 0.886788 18.4333 1.79046 15.722 1.4692C15.1401 0.986005 14.4201 0.693263 13.6618 0.631299C13.5527 0.622477 13.4416 0.61145 13.3319 0.61145H10.6927C10.583 0.61145 10.4718 0.622477 10.3627 0.631299C9.60669 0.691767 8.88811 0.982147 8.30684 1.46238C5.59224 1.79173 3.72784 0.884754 3.71013 0.875721C2.925 0.479475 1.98767 0.511455 1.23238 0.960448C0.477088 1.40926 0.0110233 2.2113 0.000185744 3.08045C-0.0104446 3.94978 0.435838 4.76247 1.17996 5.22929C1.09025 5.75347 1.27171 6.28696 1.66354 6.65216C2.05537 7.01716 2.60627 7.16566 3.1322 7.04804C3.65814 6.9306 4.08987 6.5623 4.28342 6.06626C4.477 5.57022 4.40707 5.01169 4.09674 4.57724C3.78641 4.14258 3.27652 3.88895 2.73736 3.90109C2.1982 3.91322 1.70082 4.18945 1.41083 4.63751C0.88714 4.25836 0.593618 3.64396 0.630332 3.00456C0.667258 2.36516 1.02962 1.78753 1.59359 1.4692C2.15756 1.15086 2.84645 1.13507 3.42476 1.42711C3.49488 1.4624 4.90665 2.15732 7.10243 2.15713C7.28482 2.15713 7.47318 2.15198 7.66603 2.14169C7.60262 2.22752 7.54239 2.31647 7.48531 2.40855V2.40874C6.82193 3.48259 6.7179 4.80402 7.20539 5.9661C7.20893 5.97455 7.21285 5.98282 7.21732 5.99109L9.80345 10.8395V10.8394C9.60744 11.1615 9.55784 11.55 9.66656 11.9099C9.77528 12.27 10.0325 12.5684 10.3753 12.7325L10.7785 16.6575C10.8005 16.8591 10.8976 17.0453 11.0511 17.1802C11.2046 17.3151 11.4036 17.3889 11.6093 17.3875H12.4155H12.4153C12.6216 17.3882 12.8209 17.3141 12.9753 17.1796C13.1299 17.0451 13.229 16.8593 13.2536 16.6576V16.6604L13.6812 12.718C14.0111 12.55 14.2569 12.2563 14.3614 11.9051C14.4658 11.5539 14.4195 11.176 14.2338 10.8592L16.8082 5.99005C16.8123 5.98215 16.8158 5.97443 16.8194 5.96616H16.8192C17.3067 4.80427 17.2026 3.48284 16.5391 2.4088C16.4824 2.31709 16.4225 2.22869 16.3593 2.14323C18.8604 2.27188 20.5002 1.46543 20.5761 1.42718H20.5763C21.1546 1.13515 21.8437 1.15095 22.4075 1.46927C22.9714 1.78759 23.3338 2.36542 23.3705 3.00501C23.4073 3.64441 23.1135 4.25878 22.5897 4.63796C22.3066 4.20036 21.8251 3.92614 21.2992 3.90281C20.773 3.87947 20.2686 4.10993 19.9467 4.52071C19.625 4.93129 19.5264 5.47068 19.6823 5.9664C19.8382 6.46188 20.2292 6.85168 20.7304 7.01085C21.2677 7.18159 21.8566 7.0636 22.2837 6.6997C22.7109 6.3358 22.9144 5.77856 22.8206 5.22978C23.3674 4.88665 23.7609 4.35108 23.9211 3.7321C24.0811 3.11312 23.9959 2.45715 23.6824 1.89811C23.3689 1.33907 22.851 0.918541 22.2341 0.722627L22.2342 0.722481ZM15.312 2.8294C15.2978 2.86248 13.8805 6.16916 13.0646 8.78351C12.7292 9.86198 12.5245 10.9757 12.4546 12.1016L12.3251 14.1633V14.1635C12.3151 14.3265 12.1782 14.4539 12.0122 14.4544H12.0086C11.8414 14.4526 11.705 14.3213 11.6993 14.1567L11.6198 12.1815C11.5711 10.9421 11.3533 9.71473 10.9723 8.53243C10.1331 5.93958 8.72951 2.86673 8.71538 2.83568C8.65738 2.70905 8.69262 2.55981 8.80117 2.47123C8.9097 2.38246 9.06487 2.37621 9.1805 2.45579C9.18777 2.46094 9.81457 2.8842 10.8259 3.09077C12.1749 3.36609 13.5372 3.14628 14.8751 2.43721C14.9922 2.37509 15.1364 2.39255 15.2347 2.48095C15.3329 2.56917 15.3639 2.70903 15.3121 2.82959L15.312 2.8294Z" fill="#191970"/>
<path d="M20.8967 15.2113L19.8946 13.5256H19.8948C19.8385 13.4311 19.7356 13.373 19.6244 13.373C19.5133 13.373 19.4103 13.4311 19.354 13.5256L18.352 15.2113H18.3522C18.2544 15.3752 18.1906 15.5564 18.1642 15.7444C18.1013 16.196 18.2557 16.6503 18.5819 16.9734C18.7442 17.1342 18.9428 17.255 19.1616 17.3259C19.3117 17.3748 19.4689 17.3998 19.6271 17.4C19.9745 17.3989 20.3105 17.2772 20.5757 17.0561C20.8411 16.835 21.0187 16.5288 21.0774 16.1914C21.1362 15.854 21.0722 15.5068 20.8967 15.2113L20.8967 15.2113Z" fill="#191970"/>
<path d="M17.6754 10.4943C17.6191 10.3999 17.5161 10.3418 17.405 10.3418C17.2938 10.3418 17.1909 10.3999 17.1345 10.4943L16.3457 11.8213L16.3459 11.8215C16.2646 11.9578 16.2112 12.1087 16.1892 12.2653C16.1368 12.6412 16.2655 13.0194 16.5369 13.2883C16.8209 13.5674 17.2252 13.6924 17.62 13.6227C18.015 13.5531 18.3504 13.2978 18.5186 12.9389C18.6866 12.5801 18.6661 12.1629 18.4637 11.8216L17.6754 10.4943Z" fill="#191970"/>
<path d="M22.1129 10.4943C22.0565 10.3999 21.9536 10.3418 21.8424 10.3418C21.7313 10.3418 21.6284 10.3999 21.572 10.4943L20.7833 11.8215C20.702 11.9578 20.6487 12.1087 20.6267 12.2653C20.5744 12.6412 20.7029 13.0194 20.9745 13.2883C21.2583 13.5674 21.6628 13.6924 22.0577 13.6228C22.4525 13.5531 22.7878 13.2978 22.956 12.9389C23.124 12.5801 23.1037 12.1629 22.9014 11.8217L22.1129 10.4943Z" fill="#191970"/>
</svg>
