<svg width="24" height="20" viewBox="0 0 24 20" fill="none" xmlns="http://www.w3.org/2000/svg">
<path d="M18.1305 17.2594C18.1654 17.1827 18.1938 17.1092 18.2222 17.0357V17.0165C19.0314 15.0205 18.6237 13.6473 18.6173 13.6313C18.5924 13.5525 18.6015 13.4667 18.6425 13.395L21.2723 8.84393C21.3632 8.67908 21.3839 8.48393 21.3296 8.30326C21.2754 8.12259 21.1508 7.97199 20.9846 7.886C20.6612 7.72271 20.2681 7.83989 20.084 8.15422L13.4492 19.5299C14.4292 19.6863 16.9925 19.8109 18.1304 17.2592L18.1305 17.2594Z" fill="#191970"/>
<path d="M10.668 3.56778C10.3169 3.4926 9.97315 3.38613 9.64062 3.24951C10.1193 4.37524 10.9808 6.47614 11.5695 8.34124C11.775 8.99325 11.9351 9.65877 12.0484 10.3332C12.154 9.74926 12.2933 9.17207 12.4658 8.60448C13.0562 6.66509 13.9557 4.36313 14.4253 3.19727C12.8918 3.82704 11.5618 3.76013 10.668 3.56792L10.668 3.56778Z" fill="#191970"/>
<path d="M22.2342 0.526371C21.5916 0.314945 20.8918 0.37223 20.2911 0.685225C20.2727 0.694836 18.4333 1.62137 15.722 1.29199C15.1401 0.796563 14.4201 0.496414 13.6618 0.432882C13.5527 0.423837 13.4416 0.412531 13.3319 0.412531H10.6927C10.583 0.412531 10.4718 0.423837 10.3627 0.432882C9.60669 0.49488 8.88811 0.792607 8.30684 1.28499C5.59224 1.62267 3.72784 0.692751 3.71013 0.683488C2.925 0.277216 1.98767 0.310005 1.23238 0.770359C0.477088 1.23052 0.0110233 2.05287 0.000185744 2.944C-0.0104446 3.83533 0.435838 4.66858 1.17996 5.14722C1.09025 5.68466 1.27171 6.23165 1.66354 6.60609C2.05537 6.98033 2.60627 7.13258 3.1322 7.01199C3.65814 6.89158 4.08987 6.51396 4.28342 6.00536C4.477 5.49677 4.40707 4.92411 4.09674 4.47867C3.78641 4.03301 3.27652 3.77296 2.73736 3.78541C2.1982 3.79785 1.70082 4.08107 1.41083 4.54046C0.88714 4.15171 0.593618 3.52178 0.630332 2.8662C0.667258 2.21062 1.02962 1.61837 1.59359 1.29198C2.15756 0.965591 2.84645 0.949402 3.42476 1.24883C3.49488 1.28501 4.90665 1.99751 7.10243 1.99732C7.28482 1.99732 7.47318 1.99205 7.66603 1.98149C7.60262 2.06949 7.54239 2.1607 7.48531 2.25511V2.25529C6.82193 3.35632 6.7179 4.71119 7.20539 5.90267C7.20893 5.91134 7.21285 5.91982 7.21732 5.9283L9.80345 10.8994V10.8992C9.60744 11.2296 9.55784 11.6279 9.66656 11.9969C9.77528 12.366 10.0325 12.6721 10.3753 12.8403L10.7785 16.8646C10.8005 17.0713 10.8976 17.2622 11.0511 17.4005C11.2046 17.5388 11.4036 17.6146 11.6093 17.613H12.4155H12.4153C12.6216 17.6138 12.8209 17.5379 12.9753 17.3999C13.1299 17.262 13.229 17.0715 13.2536 16.8647V16.8676L13.6812 12.8254C14.0111 12.6532 14.2569 12.352 14.3614 11.992C14.4658 11.6319 14.4195 11.2444 14.2338 10.9196L16.8082 5.92723C16.8123 5.91913 16.8158 5.91121 16.8194 5.90273H16.8192C17.3067 4.71145 17.2026 3.35658 16.5391 2.25536C16.4824 2.16133 16.4225 2.07069 16.3593 1.98307C18.8604 2.11497 20.5002 1.28812 20.5761 1.2489H20.5763C21.1546 0.949478 21.8437 0.965682 22.4075 1.29206C22.9714 1.61843 23.3338 2.21088 23.3705 2.86666C23.4073 3.52224 23.1135 4.15215 22.5897 4.54092C22.3066 4.09225 21.8251 3.8111 21.2992 3.78717C20.773 3.76324 20.2686 3.99954 19.9467 4.42071C19.625 4.84168 19.5264 5.39472 19.6823 5.90298C19.8382 6.41099 20.2292 6.81066 20.7304 6.97386C21.2677 7.14891 21.8566 7.02794 22.2837 6.65483C22.7109 6.28172 22.9144 5.71039 22.8206 5.14772C23.3674 4.7959 23.7609 4.24679 23.9211 3.61214C24.0811 2.9775 23.9959 2.30494 23.6824 1.73175C23.3689 1.15856 22.851 0.727392 22.2341 0.526521L22.2342 0.526371ZM15.312 2.6866C15.2978 2.72052 13.8805 6.11087 13.0646 8.79137C12.7292 9.89713 12.5245 11.0391 12.4546 12.1934L12.3251 14.3073V14.3075C12.3151 14.4746 12.1782 14.6052 12.0122 14.6058H12.0086C11.8414 14.6039 11.705 14.4693 11.6993 14.3005L11.6198 12.2754C11.5711 11.0045 11.3533 9.74616 10.9723 8.53393C10.1331 5.87548 8.72951 2.72488 8.71538 2.69304C8.65738 2.56321 8.69262 2.41019 8.80117 2.31937C8.9097 2.22835 9.06487 2.22195 9.1805 2.30354C9.18777 2.30882 9.81457 2.74279 10.8259 2.95459C12.1749 3.23687 13.5372 3.0115 14.8751 2.28449C14.9922 2.22079 15.1364 2.2387 15.2347 2.32933C15.3329 2.41978 15.3639 2.56319 15.3121 2.6868L15.312 2.6866Z" fill="#191970"/>
</svg>
