<svg width="26" height="26" viewBox="0 0 26 26" fill="none" xmlns="http://www.w3.org/2000/svg">
<circle cx="13" cy="13" r="13" fill="#191970"/>
<path d="M11.1444 15.2527V10.399L15.783 12.8312L11.1444 15.2527ZM21.3256 9.55957C21.2424 8.93914 21.0097 8.34819 20.6475 7.83761C20.1921 7.37681 19.5735 7.11391 18.9256 7.10579C16.5256 6.9336 12.9202 6.93359 12.9202 6.93359C12.9202 6.93359 9.30418 6.9336 6.90421 7.10579C6.25634 7.11391 5.63776 7.37681 5.18229 7.83761C4.81539 8.34562 4.58222 8.93779 4.50426 9.55957C4.39706 10.4886 4.33954 11.4226 4.33203 12.3577V13.66C4.33954 14.5951 4.39706 15.5291 4.50426 16.4581C4.58222 17.0799 4.81539 17.672 5.18229 18.1801C5.70508 18.6453 6.37677 18.9086 7.07644 18.9226C8.454 19.0518 12.9095 19.0948 12.9095 19.0948C12.9095 19.0948 16.5256 19.0949 18.9256 18.9119C19.5735 18.9038 20.1921 18.6409 20.6475 18.1801C21.0097 17.6695 21.2424 17.0786 21.3256 16.4581C21.4328 15.5291 21.4903 14.5951 21.4978 13.66V12.3577C21.4903 11.4226 21.4328 10.4886 21.3256 9.55957Z" fill="white"/>
</svg>
